<?xml version="1.0" encoding="UTF-8" standalone="no"?>
<!-- Created with Inkscape (http://www.inkscape.org/) -->

<svg
   xmlns:dc="http://purl.org/dc/elements/1.1/"
   xmlns:cc="http://creativecommons.org/ns#"
   xmlns:rdf="http://www.w3.org/1999/02/22-rdf-syntax-ns#"
   xmlns:svg="http://www.w3.org/2000/svg"
   xmlns="http://www.w3.org/2000/svg"
   xmlns:sodipodi="http://sodipodi.sourceforge.net/DTD/sodipodi-0.dtd"
   xmlns:inkscape="http://www.inkscape.org/namespaces/inkscape"
   width="113.93571mm"
   height="117.54439mm"
   viewBox="0 0 403.70923 416.49586"
   id="svg20607"
   version="1.1"
   inkscape:version="0.91 r13725"
   sodipodi:docname="beach-photo.svg">
  <defs
     id="defs20609" />
  <sodipodi:namedview
     id="base"
     pagecolor="#ffffff"
     bordercolor="#666666"
     borderopacity="1.0"
     inkscape:pageopacity="0.0"
     inkscape:pageshadow="2"
     inkscape:zoom="1.4"
     inkscape:cx="337.10937"
     inkscape:cy="141.9629"
     inkscape:document-units="px"
     inkscape:current-layer="g20242"
     showgrid="false"
     fit-margin-top="0"
     fit-margin-left="0"
     fit-margin-right="0"
     fit-margin-bottom="0"
     inkscape:window-width="1855"
     inkscape:window-height="1056"
     inkscape:window-x="65"
     inkscape:window-y="24"
     inkscape:window-maximized="1" />
  <metadata
     id="metadata20612">
    <rdf:RDF>
      <cc:Work
         rdf:about="">
        <dc:format>image/svg+xml</dc:format>
        <dc:type
           rdf:resource="http://purl.org/dc/dcmitype/StillImage" />
        <dc:title></dc:title>
      </cc:Work>
    </rdf:RDF>
  </metadata>
  <g
     inkscape:label="Calque 1"
     inkscape:groupmode="layer"
     id="layer1"
     transform="translate(-46.716814,-281.25713)">
    <g
       id="g20242"
       transform="translate(406.87168,359.01762)">
      <g
         id="g7563"
         transform="matrix(0.89542042,0,0,0.89542042,-382.15624,-591.80346)">
        <rect
           id="rect7559"
           style="fill:#ffffff;stroke:#000000;stroke-width:8"
           height="457.14001"
           width="442.85999"
           y="578.08002"
           x="28.570999" />
        <rect
           id="rect7561"
           style="fill:none;stroke:#000000;stroke-width:8"
           height="308.57001"
           width="397.14001"
           y="609.51001"
           x="51.429001" />
      </g>
      <rect
         id="rect3855"
         height="138.67516"
         width="349.09604"
         y="-42.283821"
         x="-332.81924"
         style="clip-rule:evenodd;fill:#afe4f4;fill-rule:evenodd" />
      <path
         id="path3865"
         d="m -302.61083,26.874386 c 5.77351,0 65.361,-1.416155 67.97541,-1.198285 3.2681,-0.544674 4.57525,-5.446746 2.9412,-8.496925 -4.24846,-7.9522496 -15.03302,-7.2986396 -22.00478,1.960829 10.78455,-27.6694746 -23.74784,-35.839593 -32.57155,-15.9045006 -5.44672,-7.9522508 -16.88496,1.52509 -10.13098,10.7845596 -5.88251,-2.396569 -9.25951,-0.544674 -9.69518,6.209291 -5.11994,-4.139528 -17.42965,6.645031 3.48588,6.645031 z"
         inkscape:connector-curvature="0"
         style="clip-rule:evenodd;fill:#ffffff;fill-rule:evenodd" />
      <g
         transform="matrix(0.79823822,0,0,0.79823822,882.13475,-32.773706)"
         id="g20229">
        <path
           style="clip-rule:evenodd;fill:#ffd42d;fill-rule:evenodd"
           inkscape:connector-curvature="0"
           d="m -1140.3226,-6.016384 c 25.4302,0 46.0692,20.639013 46.0692,46.069226 0,25.430212 -20.639,45.977092 -46.0692,45.977092 -25.4302,0 -45.9771,-20.54688 -45.9771,-45.977092 0,-25.430213 20.5469,-46.069226 45.9771,-46.069226 z"
           id="path3861" />
        <path
           style="clip-rule:evenodd;fill:#fff000;fill-rule:evenodd"
           inkscape:connector-curvature="0"
           d="m -1140.3226,37.933657 -38.0532,0 c 0,-21.007567 17.0456,-38.053181 38.0532,-38.053181 21.0076,0 38.0532,17.045614 38.0532,38.053181 l -38.0532,0 z"
           id="path3863" />
      </g>
      <path
         sodipodi:nodetypes="ccccccc"
         id="path3857"
         d="m -332.84588,52.311349 349.285508,0 0,72.605101 C -56.74374,76.543757 -89.77667,155.04572 -159.49247,132.4718 c -36.22671,-11.60944 -67.25206,-16.03209 -99.46371,-5.25189 -22.63023,7.64749 -64.14557,-2.30346 -73.81816,-12.89938 z"
         inkscape:connector-curvature="0"
         style="clip-rule:evenodd;fill:#31bcb6;fill-rule:evenodd" />
      <path
         sodipodi:nodetypes="ccccccc"
         id="path3859"
         d="m 16.439621,123.57998 c -73.406107,-51.873949 -106.411501,31.78776 -176.211231,7.83177 -36.15523,-12.43869 -67.24326,-17.13776 -99.4269,-5.62045 -22.59706,8.10818 -63.91083,-2.3956 -73.58873,-13.72863 l 0,70.79728 349.226861,0 z"
         inkscape:connector-curvature="0"
         style="clip-rule:evenodd;fill:#fbe89e;fill-rule:evenodd" />
      <path
         sodipodi:nodetypes="cccccc"
         id="path4167"
         d="m -332.77892,168.90844 c 54.36287,19.55064 106.00939,5.79824 163.38482,-8.9113 61.57474,-15.9198 132.324087,0.46549 185.819716,17.40938 l 0,49.60014 -349.182216,0 z"
         inkscape:connector-curvature="0"
         style="clip-rule:evenodd;fill:#efcf82;fill-rule:evenodd" />
      <g
         transform="matrix(-0.5009892,-0.15460573,-0.14828428,0.50181111,-501.88226,3.4897372)"
         id="g39074">
        <g
           transform="matrix(0.74572157,0,0,0.74572157,-418.49029,-294.93703)"
           id="g39102">
          <path
             inkscape:connector-curvature="0"
             id="path4227"
             d="m -160.06597,574.40513 -26.93189,41.70805 c 0.0495,0.0263 0.082,0.0726 0.10406,0.12748 l -38.43431,61.63713 -15.64898,24.78154 4.91534,0.20686 10.07201,-15.96398 -0.0158,-0.009 23.79612,-37.73209 15.82818,-25.02865 -0.0569,0.0195 14.23021,-22.56638 -0.83565,0.8333 16.79501,-26.02337 c -0.6444,-0.18623 -1.38381,-0.45671 -2.03556,-0.80236 -0.65175,-0.34564 -1.21744,-0.76645 -1.78187,-1.18797 z"
             style="clip-rule:evenodd;fill:#a3422d;fill-rule:evenodd" />
          <polygon
             id="polygon4229"
             points="442.36,342.016 441.64,339.784 439.408,340.288 364.384,356.488 375.688,363.04 386.92,369.52 398.224,376 437.896,342.952 441.64,339.784 439.84,339.496 306.568,318.976 302.896,318.4 296.776,317.464 298.432,318.4 299.368,318.976 308.008,324.016 319.312,330.496 330.544,336.976 439.696,339.784 441.64,339.784 442.648,341.44 499.6,434.536 510.904,441.016 514.864,443.32 522.136,447.496 533.44,454.048 514.864,430.936 442.792,341.224 441.64,339.784 440.776,344.68 431.992,395.584 443.296,402.064 454.528,408.472 465.832,415.024 "
             style="clip-rule:evenodd;fill:#eb181f;fill-rule:evenodd"
             transform="matrix(1.2797007,0,0,1.2797007,-685.33614,74.809995)" />
          <path
             id="path4231"
             d="m -123.02535,510.2768 2.85629,-0.64497 -2.48774,0 -25.33813,-0.64497 0,6.72611 24.96958,-5.43617 0,0 z m -24.96958,61.8249 0,-39.25098 23.03467,-19.1648 4.7912,-4.05409 1.28994,2.11919 72.881508,119.13501 -14.3736,-8.3846 -14.46573,-8.29246 -14.3736,-8.29246 -30.037138,-93.42839 -0.92138,-2.85629 -1.10566,6.26542 -11.24095,65.14188 -14.37359,-8.3846 -1.10567,-0.55283 z m 0,-63.11484 -114.34382,-2.94843 14.46574,8.3846 14.46574,8.29246 14.3736,8.29246 71.03874,-15.29498 0,-6.72611 0,0 z m 0,23.86386 0,39.25098 -4.23836,-2.48774 -3.77768,-2.21132 -5.34403,-3.04057 -14.3736,-8.3846 27.73367,-23.12675 z"
             inkscape:connector-curvature="0"
             style="clip-rule:evenodd;fill:#ffffff;fill-rule:evenodd" />
          <path
             id="path4249"
             d="m -120.16906,509.63183 c 3.5934,2.11919 8.29246,0.92139 10.3195,-2.76415 2.11919,-3.5934 0.92139,-8.20032 -2.76415,-10.31951 -3.5934,-2.11918 -8.20032,-0.82925 -10.31951,2.76415 -2.11918,3.5934 -0.82924,8.29246 2.76416,10.31951 z"
             inkscape:connector-curvature="0"
             style="clip-rule:evenodd;fill:#a3422d;fill-rule:evenodd" />
        </g>
      </g>
    </g>
  </g>
</svg>
