<?xml version="1.0" encoding="UTF-8" standalone="no"?>
<!-- Created with Inkscape (http://www.inkscape.org/) -->

<svg
   xmlns:dc="http://purl.org/dc/elements/1.1/"
   xmlns:cc="http://creativecommons.org/ns#"
   xmlns:rdf="http://www.w3.org/1999/02/22-rdf-syntax-ns#"
   xmlns:svg="http://www.w3.org/2000/svg"
   xmlns="http://www.w3.org/2000/svg"
   xmlns:sodipodi="http://sodipodi.sourceforge.net/DTD/sodipodi-0.dtd"
   xmlns:inkscape="http://www.inkscape.org/namespaces/inkscape"
   width="120.86593mm"
   height="164.3382mm"
   viewBox="0 0 428.2651 582.30069"
   id="svg2"
   version="1.1"
   inkscape:version="0.91 r13725"
   sodipodi:docname="little house.svg">
  <defs
     id="defs4" />
  <sodipodi:namedview
     id="base"
     pagecolor="#ffffff"
     bordercolor="#666666"
     borderopacity="1.0"
     inkscape:pageopacity="0.0"
     inkscape:pageshadow="2"
     inkscape:zoom="0.98994949"
     inkscape:cx="215.00598"
     inkscape:cy="240.10424"
     inkscape:document-units="px"
     inkscape:current-layer="g4329"
     showgrid="false"
     fit-margin-top="5"
     fit-margin-right="5"
     fit-margin-left="5"
     fit-margin-bottom="5"
     inkscape:window-width="1920"
     inkscape:window-height="1026"
     inkscape:window-x="0"
     inkscape:window-y="27"
     inkscape:window-maximized="1" />
  <metadata
     id="metadata7">
    <rdf:RDF>
      <cc:Work
         rdf:about="">
        <dc:format>image/svg+xml</dc:format>
        <dc:type
           rdf:resource="http://purl.org/dc/dcmitype/StillImage" />
        <dc:title></dc:title>
      </cc:Work>
    </rdf:RDF>
  </metadata>
  <g
     inkscape:label="Calque 1"
     inkscape:groupmode="layer"
     id="layer1"
     transform="translate(-6.7287766,0.78942474)">
    <g
       id="g4329"
       transform="translate(-84.852814,-276.7818)">
      <rect
         ry="10"
         rx="10"
         y="523.07648"
         x="150"
         height="315"
         width="315"
         id="rect4136"
         style="fill:#e1e1e1;fill-opacity:1;stroke:none;stroke-width:5;stroke-miterlimit:4;stroke-dasharray:none" />
      <g
         transform="matrix(-1,0,0,-1,632.85714,1396.1529)"
         id="g4202">
        <rect
           ry="7.5275698"
           rx="7.5275698"
           y="746.29077"
           x="178.57144"
           height="28.928572"
           width="56.42857"
           id="rect4204"
           style="fill:#d3d7cf;fill-opacity:1;stroke:none;stroke-width:5;stroke-miterlimit:4;stroke-dasharray:none" />
        <rect
           style="fill:#babdb6;fill-opacity:1;stroke:none;stroke-width:5;stroke-miterlimit:4;stroke-dasharray:none"
           id="rect4206"
           width="56.42857"
           height="28.928572"
           x="210.35716"
           y="779.14789"
           rx="7.5275698"
           ry="7.5275698" />
        <rect
           ry="7.5275698"
           rx="7.5275698"
           y="734.14789"
           x="240.00002"
           height="28.928572"
           width="56.42857"
           id="rect4208"
           style="fill:#c7c9c3;fill-opacity:1;stroke:none;stroke-width:5;stroke-miterlimit:4;stroke-dasharray:none" />
      </g>
      <g
         id="g4197">
        <rect
           style="fill:#d3d7cf;fill-opacity:1;stroke:none;stroke-width:5;stroke-miterlimit:4;stroke-dasharray:none"
           id="rect4181"
           width="56.42857"
           height="28.928572"
           x="178.57144"
           y="746.29077"
           rx="7.5275698"
           ry="7.5275698" />
        <rect
           ry="7.5275698"
           rx="7.5275698"
           y="779.14789"
           x="210.35716"
           height="28.928572"
           width="56.42857"
           id="rect4183"
           style="fill:#babdb6;fill-opacity:1;stroke:none;stroke-width:5;stroke-miterlimit:4;stroke-dasharray:none" />
        <rect
           style="fill:#c7c9c3;fill-opacity:1;stroke:none;stroke-width:5;stroke-miterlimit:4;stroke-dasharray:none"
           id="rect4185"
           width="56.42857"
           height="28.928572"
           x="240.00002"
           y="734.14789"
           rx="7.5275698"
           ry="7.5275698" />
      </g>
      <rect
         ry="8.5096827"
         rx="8.334054"
         y="616.50507"
         x="173.35715"
         height="124.64286"
         width="125.71429"
         id="rect4166"
         style="fill:#ac6f3c;fill-opacity:1;stroke:none;stroke-width:5;stroke-miterlimit:4;stroke-dasharray:none" />
      <path
         style="fill:#ac6f3c;fill-opacity:1;stroke:none;stroke-width:5;stroke-miterlimit:4;stroke-dasharray:none"
         d="m 221.57617,101.63672 c -27.89169,9.35903 -56.86043,30.51776 -84.28515,56.82031 l 0,-15.70703 c 0,-4.17027 -3.35903,-7.52734 -7.5293,-7.52734 l -21.73047,0 c -4.17027,0 -7.52734,3.35707 -7.52734,7.52734 l 0,52.08789 c 0,0.81585 0.13315,1.59941 0.37109,2.33399 -31.194263,36.28752 -58.287171,75.72203 -76.429688,106.0957 60.58528,30.81851 316.794108,16.70741 392.832028,0 C 395.80341,213.05566 288.59942,127.15671 221.57617,101.63672 Z"
         transform="translate(84.852814,276.7818)"
         id="rect4172"
         inkscape:connector-curvature="0" />
      <path
         id="rect4143"
         d="m 187.16992,622.79102 c -4.17027,0 -7.52734,3.35706 -7.52734,7.52734 l 0,39.25 c 0,4.17027 3.35707,7.5293 7.52734,7.5293 l 39.25196,0 c 4.17027,0 7.52734,-3.35903 7.52734,-7.5293 l 0,-39.25 c 0,-4.17028 -3.35707,-7.52734 -7.52734,-7.52734 l -39.25196,0 z m 58.98047,0 c -4.17027,0 -7.52734,3.35706 -7.52734,7.52734 l 0,39.25 c 0,4.17027 3.35707,7.5293 7.52734,7.5293 l 39.25,0 c 4.17028,0 7.52734,-3.35903 7.52734,-7.5293 l 0,-39.25 c 0,-4.17028 -3.35706,-7.52734 -7.52734,-7.52734 l -39.25,0 z m -58.98047,58.97851 c -4.17027,0 -7.52734,3.35902 -7.52734,7.5293 l 0,39.25 c 0,4.17027 3.35707,7.52734 7.52734,7.52734 l 39.25196,0 c 4.17027,0 7.52734,-3.35707 7.52734,-7.52734 l 0,-39.25 c 0,-4.17028 -3.35707,-7.5293 -7.52734,-7.5293 l -39.25196,0 z m 58.98047,0 c -4.17027,0 -7.52734,3.35902 -7.52734,7.5293 l 0,39.25 c 0,4.17027 3.35707,7.52734 7.52734,7.52734 l 39.25,0 c 4.17028,0 7.52734,-3.35707 7.52734,-7.52734 l 0,-39.25 c 0,-4.17028 -3.35706,-7.5293 -7.52734,-7.5293 l -39.25,0 z"
         style="fill:#bbd4f0;fill-opacity:1;stroke:none;stroke-width:5;stroke-miterlimit:4;stroke-dasharray:none"
         inkscape:connector-curvature="0" />
      <path
         style="fill:#ac6f3c;fill-opacity:1;stroke:none;stroke-width:5;stroke-miterlimit:4;stroke-dasharray:none"
         d="m 350.38472,670.21936 76.37343,0 c 4.17027,0 7.52757,3.3573 7.52757,7.52757 l 0,160.27354 -91.42857,0 0,-160.27354 c 0,-4.17027 3.35729,-7.52757 7.52757,-7.52757 z"
         id="rect4168"
         inkscape:connector-curvature="0"
         sodipodi:nodetypes="sssccss" />
      <rect
         ry="7.5275698"
         rx="7.5275698"
         y="756.64789"
         x="353.21429"
         height="7.8571429"
         width="15.714286"
         id="rect4170"
         style="fill:#8f5902;fill-opacity:1;stroke:none;stroke-width:5;stroke-miterlimit:4;stroke-dasharray:none" />
      <path
         sodipodi:nodetypes="ccc"
         inkscape:connector-curvature="0"
         id="path4174"
         d="m 249.99519,337.00612 c -68.41718,-26.05968 -43.68157,51.26937 -40.32365,67.21282 0.74364,-26.0095 12.73076,-56.95717 40.32365,-67.21282 z"
         style="fill:#babdb6;fill-opacity:1;stroke:none;stroke-width:5;stroke-miterlimit:4;stroke-dasharray:none" />
      <path
         style="fill:#babdb6;fill-opacity:1;stroke:none;stroke-width:5;stroke-miterlimit:4;stroke-dasharray:none"
         d="m 157.93623,298.43469 c 68.41718,-18.91682 31.89586,21.26937 40.68079,79.35568 -17.17221,-25.29522 -13.0879,-69.10003 -40.68079,-79.35568 z"
         id="path4179"
         inkscape:connector-curvature="0"
         sodipodi:nodetypes="ccc" />
      <path
         id="path4230"
         d="m 187.16992,622.79102 c -4.17027,0 -7.52734,3.35706 -7.52734,7.52734 l 0,39.25 c 0,4.17027 3.35707,7.5293 7.52734,7.5293 l 39.25196,0 c 4.17027,0 7.52734,-3.35903 7.52734,-7.5293 l 0,-39.25 c 0,-4.17028 -3.35708,-7.52734 -7.52734,-7.52734 l -39.25196,0 z m 58.98047,0 c -4.17027,0 -7.52734,3.35706 -7.52734,7.52734 l 0,39.25 c 0,4.17027 3.35707,7.5293 7.52734,7.5293 l 23.38867,0 a 126.60714,126.60714 0 0 0 23.2461,-48.23633 c -0.67507,-3.46805 -3.71337,-6.07031 -7.38477,-6.07031 l -39.25,0 z m -58.98047,58.97851 c -4.17027,0 -7.52734,3.35902 -7.52734,7.5293 l 0,36.21289 a 126.60714,126.60714 0 0 0 54.30664,-17.19336 l 0,-19.01953 c 0,-4.17028 -3.35708,-7.5293 -7.52734,-7.5293 l -39.25196,0 z m 58.98047,0 c -4.17027,0 -7.52734,3.35902 -7.52734,7.5293 l 0,16.2832 a 126.60714,126.60714 0 0 0 27.21289,-23.8125 l -19.68555,0 z"
         style="opacity:0.36000001;fill:#ffffff;fill-opacity:1;stroke:none;stroke-width:5;stroke-miterlimit:4;stroke-dasharray:none"
         inkscape:connector-curvature="0" />
      <g
         id="g4308">
        <path
           style="opacity:1;fill:#73d216;fill-opacity:1;stroke:none;stroke-width:5;stroke-miterlimit:4;stroke-dasharray:none"
           d="m 277.14258,787.86133 0,20 2.5,0 0,-20 -2.5,0 z m -31.25,0.71484 0,20 2.5,0 0,-20 -2.5,0 z m -46.25,3.75 0,20 2.5,0 0,-20 -2.5,0 z m 24.46484,2.5 0,20 2.5,0 0,-20 -2.5,0 z m 41.07031,0.71485 0,20 2.5,0 0,-20 -2.5,0 z"
           id="rect4297"
           inkscape:connector-curvature="0" />
        <g
           id="g4291"
           transform="matrix(0.87368234,0,0,0.87368234,87.139284,98.905005)">
          <path
             inkscape:connector-curvature="0"
             id="path4293"
             transform="matrix(1.4074074,0,0,1.4074074,-142.08995,-329.73883)"
             d="m 259.05078,772.54102 a 5.8364663,5.8364663 0 0 0 -3.42578,1.11914 5.8364663,5.8364663 0 0 0 -3.04492,-0.86524 5.8364663,5.8364663 0 0 0 -5.83594,5.83594 5.8364663,5.8364663 0 0 0 0.44336,2.2207 5.8364663,5.8364663 0 0 0 -3.61523,5.39258 5.8364663,5.8364663 0 0 0 5.83593,5.83594 5.8364663,5.8364663 0 0 0 1.13477,-0.11719 5.8364663,5.8364663 0 0 0 5.7168,4.68555 5.8364663,5.8364663 0 0 0 5.83593,-5.83789 5.8364663,5.8364663 0 0 0 -0.0332,-0.56836 5.8364663,5.8364663 0 0 0 0.79492,0.0625 5.8364663,5.8364663 0 0 0 5.83594,-5.83789 5.8364663,5.8364663 0 0 0 -3.83984,-5.47657 5.8364663,5.8364663 0 0 0 0.0332,-0.61328 5.8364663,5.8364663 0 0 0 -5.83594,-5.83593 z m -3.04492,10.80664 a 5.8364663,5.8364663 0 0 0 1.04883,0.50781 5.8364663,5.8364663 0 0 0 -0.0332,0.61133 5.8364663,5.8364663 0 0 0 0.0332,0.57031 5.8364663,5.8364663 0 0 0 -0.79492,-0.0625 5.8364663,5.8364663 0 0 0 -1.13477,0.11719 5.8364663,5.8364663 0 0 0 -0.32422,-1.06836 5.8364663,5.8364663 0 0 0 1.20508,-0.67578 z"
             style="opacity:1;fill:#cc0000;fill-opacity:1;stroke:none;stroke-width:5;stroke-miterlimit:4;stroke-dasharray:none" />
          <circle
             r="5.1785712"
             cy="774.68365"
             cx="218.75"
             id="circle4295"
             style="opacity:1;fill:#fce634;fill-opacity:1;stroke:none;stroke-width:5;stroke-miterlimit:4;stroke-dasharray:none" />
        </g>
        <g
           id="g4239">
          <rect
             style="opacity:1;fill:#ac6f3c;fill-opacity:1;stroke:none;stroke-width:5;stroke-miterlimit:4;stroke-dasharray:none"
             id="rect4237"
             width="117.49998"
             height="29.642883"
             x="178.03572"
             y="806.29083"
             rx="6.0990424"
             ry="6.0990424" />
          <rect
             ry="4.670445"
             rx="4.670445"
             y="830.93365"
             x="176.78572"
             height="9.6428576"
             width="119.99998"
             id="rect4235"
             style="opacity:1;fill:#8f5902;fill-opacity:1;stroke:none;stroke-width:5;stroke-miterlimit:4;stroke-dasharray:none" />
        </g>
        <g
           id="g4255"
           transform="translate(-17.857143,7.5)">
          <path
             style="opacity:1;fill:#ef2929;fill-opacity:1;stroke:none;stroke-width:5;stroke-miterlimit:4;stroke-dasharray:none"
             d="m 209.64258,761.29102 a 8.2142859,8.2142859 0 0 0 -4.82031,1.57617 8.2142859,8.2142859 0 0 0 -4.28711,-1.21875 8.2142859,8.2142859 0 0 0 -8.21289,8.21289 8.2142859,8.2142859 0 0 0 0.62304,3.125 8.2142859,8.2142859 0 0 0 -5.08789,7.58984 8.2142859,8.2142859 0 0 0 8.21485,8.21485 8.2142859,8.2142859 0 0 0 1.59765,-0.16407 8.2142859,8.2142859 0 0 0 8.04492,6.5918 8.2142859,8.2142859 0 0 0 8.21289,-8.21289 8.2142859,8.2142859 0 0 0 -0.0469,-0.80078 8.2142859,8.2142859 0 0 0 1.11914,0.0859 8.2142859,8.2142859 0 0 0 8.21484,-8.21485 8.2142859,8.2142859 0 0 0 -5.40429,-7.70898 8.2142859,8.2142859 0 0 0 0.0469,-0.86133 8.2142859,8.2142859 0 0 0 -8.21484,-8.21484 z M 205.35742,776.5 a 8.2142859,8.2142859 0 0 0 1.47461,0.71289 8.2142859,8.2142859 0 0 0 -0.0469,0.86328 8.2142859,8.2142859 0 0 0 0.0469,0.80078 8.2142859,8.2142859 0 0 0 -1.11719,-0.0859 8.2142859,8.2142859 0 0 0 -1.59961,0.16406 8.2142859,8.2142859 0 0 0 -0.45507,-1.50391 8.2142859,8.2142859 0 0 0 1.69726,-0.95117 z"
             transform="translate(12.857143,-3.75)"
             id="circle4251"
             inkscape:connector-curvature="0" />
          <circle
             r="5.1785712"
             cy="774.68365"
             cx="218.75"
             id="path4243"
             style="opacity:1;fill:#fce634;fill-opacity:1;stroke:none;stroke-width:5;stroke-miterlimit:4;stroke-dasharray:none" />
        </g>
        <g
           id="g4279"
           transform="matrix(0.80143936,0,0,0.80143936,71.996707,157.20347)">
          <path
             inkscape:connector-curvature="0"
             id="path4281"
             transform="matrix(1.4074074,0,0,1.4074074,-142.08995,-329.73883)"
             d="m 259.05078,772.54102 a 5.8364663,5.8364663 0 0 0 -3.42578,1.11914 5.8364663,5.8364663 0 0 0 -3.04492,-0.86524 5.8364663,5.8364663 0 0 0 -5.83594,5.83594 5.8364663,5.8364663 0 0 0 0.44336,2.2207 5.8364663,5.8364663 0 0 0 -3.61523,5.39258 5.8364663,5.8364663 0 0 0 5.83593,5.83594 5.8364663,5.8364663 0 0 0 1.13477,-0.11719 5.8364663,5.8364663 0 0 0 5.7168,4.68555 5.8364663,5.8364663 0 0 0 5.83593,-5.83789 5.8364663,5.8364663 0 0 0 -0.0332,-0.56836 5.8364663,5.8364663 0 0 0 0.79492,0.0625 5.8364663,5.8364663 0 0 0 5.83594,-5.83789 5.8364663,5.8364663 0 0 0 -3.83984,-5.47657 5.8364663,5.8364663 0 0 0 0.0332,-0.61328 5.8364663,5.8364663 0 0 0 -5.83594,-5.83593 z m -3.04492,10.80664 a 5.8364663,5.8364663 0 0 0 1.04883,0.50781 5.8364663,5.8364663 0 0 0 -0.0332,0.61133 5.8364663,5.8364663 0 0 0 0.0332,0.57031 5.8364663,5.8364663 0 0 0 -0.79492,-0.0625 5.8364663,5.8364663 0 0 0 -1.13477,0.11719 5.8364663,5.8364663 0 0 0 -0.32422,-1.06836 5.8364663,5.8364663 0 0 0 1.20508,-0.67578 z"
             style="opacity:1;fill:#eb3e3e;fill-opacity:1;stroke:none;stroke-width:5;stroke-miterlimit:4;stroke-dasharray:none" />
          <circle
             r="5.1785712"
             cy="774.68365"
             cx="218.75"
             id="circle4283"
             style="opacity:1;fill:#fce634;fill-opacity:1;stroke:none;stroke-width:5;stroke-miterlimit:4;stroke-dasharray:none" />
        </g>
        <g
           transform="matrix(0.71052632,0,0,0.71052632,70.065793,238.57383)"
           id="g4263">
          <path
             style="opacity:1;fill:#cc0000;fill-opacity:1;stroke:none;stroke-width:5;stroke-miterlimit:4;stroke-dasharray:none"
             d="m 259.05078,772.54102 a 5.8364663,5.8364663 0 0 0 -3.42578,1.11914 5.8364663,5.8364663 0 0 0 -3.04492,-0.86524 5.8364663,5.8364663 0 0 0 -5.83594,5.83594 5.8364663,5.8364663 0 0 0 0.44336,2.2207 5.8364663,5.8364663 0 0 0 -3.61523,5.39258 5.8364663,5.8364663 0 0 0 5.83593,5.83594 5.8364663,5.8364663 0 0 0 1.13477,-0.11719 5.8364663,5.8364663 0 0 0 5.7168,4.68555 5.8364663,5.8364663 0 0 0 5.83593,-5.83789 5.8364663,5.8364663 0 0 0 -0.0332,-0.56836 5.8364663,5.8364663 0 0 0 0.79492,0.0625 5.8364663,5.8364663 0 0 0 5.83594,-5.83789 5.8364663,5.8364663 0 0 0 -3.83984,-5.47657 5.8364663,5.8364663 0 0 0 0.0332,-0.61328 5.8364663,5.8364663 0 0 0 -5.83594,-5.83593 z m -3.04492,10.80664 a 5.8364663,5.8364663 0 0 0 1.04883,0.50781 5.8364663,5.8364663 0 0 0 -0.0332,0.61133 5.8364663,5.8364663 0 0 0 0.0332,0.57031 5.8364663,5.8364663 0 0 0 -0.79492,-0.0625 5.8364663,5.8364663 0 0 0 -1.13477,0.11719 5.8364663,5.8364663 0 0 0 -0.32422,-1.06836 5.8364663,5.8364663 0 0 0 1.20508,-0.67578 z"
             transform="matrix(1.4074074,0,0,1.4074074,-142.08995,-329.73883)"
             id="circle4265"
             inkscape:connector-curvature="0" />
          <circle
             style="opacity:1;fill:#fce634;fill-opacity:1;stroke:none;stroke-width:5;stroke-miterlimit:4;stroke-dasharray:none"
             id="circle4275"
             cx="218.75"
             cy="774.68365"
             r="5.1785712" />
        </g>
        <g
           transform="matrix(0.80143936,0,0,0.80143936,91.10385,166.66776)"
           id="g4285">
          <path
             style="opacity:1;fill:#ef2929;fill-opacity:1;stroke:none;stroke-width:5;stroke-miterlimit:4;stroke-dasharray:none"
             d="m 259.05078,772.54102 a 5.8364663,5.8364663 0 0 0 -3.42578,1.11914 5.8364663,5.8364663 0 0 0 -3.04492,-0.86524 5.8364663,5.8364663 0 0 0 -5.83594,5.83594 5.8364663,5.8364663 0 0 0 0.44336,2.2207 5.8364663,5.8364663 0 0 0 -3.61523,5.39258 5.8364663,5.8364663 0 0 0 5.83593,5.83594 5.8364663,5.8364663 0 0 0 1.13477,-0.11719 5.8364663,5.8364663 0 0 0 5.7168,4.68555 5.8364663,5.8364663 0 0 0 5.83593,-5.83789 5.8364663,5.8364663 0 0 0 -0.0332,-0.56836 5.8364663,5.8364663 0 0 0 0.79492,0.0625 5.8364663,5.8364663 0 0 0 5.83594,-5.83789 5.8364663,5.8364663 0 0 0 -3.83984,-5.47657 5.8364663,5.8364663 0 0 0 0.0332,-0.61328 5.8364663,5.8364663 0 0 0 -5.83594,-5.83593 z m -3.04492,10.80664 a 5.8364663,5.8364663 0 0 0 1.04883,0.50781 5.8364663,5.8364663 0 0 0 -0.0332,0.61133 5.8364663,5.8364663 0 0 0 0.0332,0.57031 5.8364663,5.8364663 0 0 0 -0.79492,-0.0625 5.8364663,5.8364663 0 0 0 -1.13477,0.11719 5.8364663,5.8364663 0 0 0 -0.32422,-1.06836 5.8364663,5.8364663 0 0 0 1.20508,-0.67578 z"
             transform="matrix(1.4074074,0,0,1.4074074,-142.08995,-329.73883)"
             id="path4287"
             inkscape:connector-curvature="0" />
          <circle
             style="opacity:1;fill:#fce634;fill-opacity:1;stroke:none;stroke-width:5;stroke-miterlimit:4;stroke-dasharray:none"
             id="circle4289"
             cx="218.75"
             cy="774.68365"
             r="5.1785712" />
        </g>
      </g>
    </g>
  </g>
</svg>
