<?xml version="1.0" encoding="UTF-8" standalone="no"?>
<svg id="Capa_2" xmlns:rdf="http://www.w3.org/1999/02/22-rdf-syntax-ns#" xmlns="http://www.w3.org/2000/svg" viewBox="0 0 723.75299 662.88159" height="662.88" width="723.75" version="1.2" y="0px" x="0px" xmlns:cc="http://creativecommons.org/ns#" xmlns:dc="http://purl.org/dc/elements/1.1/">
<g id="g4219" stroke-linejoin="round" transform="translate(-283.55 -121.81)" stroke="#000" stroke-linecap="round" stroke-miterlimit="10" stroke-width="5.6693" fill="none">
<path id="XMLID_2_" d="m728.8 283.8c-9.6-5.9-21.2-8.1-32.6-9.7-37.5-5.2-76.5-4.4-113.9 5.9-37.3 10.3-72.9 30.4-98.7 59.5-14.3 16.2-25.5 34.9-34 54.4-26.4 61.3-24.7 131.9 2.8 189.5s80 101.9 141.8 121.9c61.9 20 132.4 15.9 195-9.6 18.1-7.4 36.1-16.9 48.9-31.7 10.1-11.6 16.3-25.8 21.4-40.1 27.2-75.8 26.3-159.5-2.5-231.3-10.9-27.1-25.6-52.6-45.2-74.1-32.9-36.2-79.1-60.2-128.7-68.4-49.7-8.2-102.6-1-150.4 19.2"/>
<path id="XMLID_42_" d="m806.6 303.4c8.3-7.1 16.7-14.3 25-21.4"/>
<path id="XMLID_68_" d="m814.6 248.7c25.3 14.6 45.2 37.6 55.8 64.7 0.7 1.7 1.4 3.6 3.2 4.2 1.2 0.4 2.5 0.2 3.7-0.1 21.5-4.3 43.1-12.9 58.9-28.5s24.8-39 18.6-59c-6.1-20-26-33.1-47.1-36.4s-43.2 1.9-63.8 9.6c-18.5 6.9-37.7 17.2-46.4 34.7 11.2-2.8 22.4-5.5 33.6-8.3"/>
<path id="XMLID_69_" d="m936 194c7.7-10.4 20.8-16.9 33.5-16.4 0.7 0 1.5 0.1 2 0.5 0.6 0.4 0.8 1.1 1 1.8 1.8 6.9-4.2 15-11.5 15.7"/>
<path id="XMLID_70_" d="m493.9 310.1c-12.5-15.5-26.7-29.7-42.4-42.2"/>
<path id="XMLID_71_" d="m481.8 247.2c-13 3.6-23.5 13.2-33.5 22.4-16 14.8-32.5 30.2-41.6 49.6-19.9-13.9-41.8-25.8-57-44.5s-22-47-8-68.3c5.2-8 12.9-14.3 21.2-19.2 22.8-13.3 51.2-16.2 74.9-7.4s42.2 28.8 48.8 53"/>
<path id="XMLID_72_" d="m366.9 175.9c-10.7-5.2-21.4-10.4-32.1-15.4-1.1-0.5-2.3-1-3.5-0.6-1 0.3-1.6 1.2-2.2 2.1-3.3 5.5-3.7 12.5-1.1 17.9 2.7 5.5 8.3 9.3 14.6 9.9"/>
<path id="XMLID_73_" d="m655 241.3c-2.4-13.1-5.8-26-10-38.6"/>
<path id="XMLID_74_" d="m687.2 187.8c-0.2 18.3-2.4 36.6-6.5 54.7"/>
<path id="XMLID_75_" d="m711.9 187.7c-51.7-8.5-106.6-2.5-156.8 17.1-2.5-15.9-4.3-32-5.4-48.2-0.2-2.3-0.3-4.7 1-6.7 1.2-2 3.5-3.1 5.7-4 54.8-24.1 117.6-27.9 172.5-10.4 4.7 1.5 9.5 3.3 12.7 6.8 9.1 10.1 0.6 26.7 2.7 40.3-10.4 0.1-20.9 0.2-31.3 0.2"/>
<path id="XMLID_77_" d="m473.5 312.4c-31.4 54.6-51.5 115.7-52.6 176.8s17.5 122.1 56.5 167.4c7.8 9 16.6 18.1 18.6 29.9 4.6 27.7-30.2 53.1-25.6 80.8 0.7 4 2.3 8 5.2 10.7 6.9 6.4 19.1 4.2 26.9-2s12.5-15.3 17.4-23.9 10.8-17.4 19.8-21.7c12.7-6.2 27.2-1.7 40.2 2.3 67.3 20.5 145.2 22.1 208.9-13.9 2.6 8.9 5.2 18 10.6 25.4s14 13.2 23.5 12.8c2.1-0.1 4.3-0.5 6.1-1.6 5.2-3.3 5.2-10.7 2.8-16s-6.4-9.8-7.4-15.5c-2.3-12.9 11.1-23.5 21.5-32.6 36-31.2 51.3-79.1 59-124.6 7.7-45.1 9.7-91.1 1-135.1s-28.4-85.7-60.4-116.5"/>
<path id="XMLID_78_" d="m640.5 294.1c-23.7-3.1-47.8 5.9-70.6 14.7-10.7 4.1-21.5 8.3-31.5 13.9-34 19.1-57 53.9-68.7 90.3s-13.4 74.4-14 111.8c-0.3 18.6-0.3 37.3 4 55.2 7.3 30.3 26.9 56.3 51.7 75.2 24.7 18.8 54.3 31 84.7 39.6 48.2 13.6 100.6 18.4 150.4 5.1 49.9-13.4 96.8-47 118.1-93.6 16.3-35.8 16.6-75.8 13.8-113.8-2.7-36.1-8.5-73.2-28.7-102.5-12.1-17.5-28.7-31.4-46.4-43.5-52.3-35.9-115.9-57.9-181.6-56.6"/>
<path id="XMLID_79_" d="m681.7 486.2c1.8-4.1-0.1-8.8-3.3-11.6-3.3-2.8-7.6-4-11.8-5.2-2.2-0.6-4.6-1.2-6.9-0.7-2.9 0.6-5.2 2.8-7.1 5-2.5 2.9-4.7 6.3-4.7 10 0 3.9 2.6 7.1 5.4 9.6 6.6 5.7 15.8 8.7 24.9 8.1"/>
<path id="XMLID_80_" d="m673.4 457.6c0.5-25 1.1-50 1.6-74.9 0.4-20.4 0-43-14.5-56.7-3.7 4.8-4.5 11-5.2 16.8-2.2 17.8-4.5 35.8-3.7 53.6s4.6 35.6 13.9 50.4"/>
<path id="XMLID_81_" d="m700.2 486.2c14.9-5.5 30.6-9.1 46.2-9.3 4.7-0.1 9.7 0.3 13.6 2.6s6.4 7.4 4.5 11.8c-2 4.7-7.8 6.6-12.9 7.5-15 2.6-31.4 1.6-42.6-7.5 1 0 2 0 3 0.1"/>
<path id="XMLID_82_" d="m647.7 304.7c-3.7 3.4-5.7 8.9-3.9 13.2 1.8 4.4 8.1 6.4 12.1 3.4 2.9-2.2 3.8-6.1 3.9-9.6 0-2.5-0.6-5.4-2.9-6.6-3.2-1.6-7 1.4-9.7 4.1"/>
<path id="XMLID_83_" d="m685 664.8c-6 4.9-10.4 12.3-9.9 19.7s6.9 14.1 14.5 13.5c1.6-0.1 3.2-0.6 4.4-1.7 1.5-1.4 1.9-3.4 2.3-5.3 1.2-6.1 2.1-13.2-2.2-17.5-1.7-1.7-4-2.7-6.5-2.8"/>
<path id="XMLID_84_" d="m835 469.3c-4.1 1.8-6.7 6.8-5.6 10.9 1.5 5.8 8.4 8.2 14.6 8.6 3.2 0.2 6.9 0 9.3-2.2 2.7-2.5 3-6.6 2.6-10.1-0.5-4.5-1.9-9.1-5.5-11.7s-9.9-1.9-12 2.2"/>
<path id="XMLID_85_" d="m476.6 482c-3.6 0.6-5.2 4.8-6 8.3-0.9 3.8-1.8 7.8-1.5 11.6 0.3 3.9 2.1 7.7 5.5 9.6 5.7 3.1 13.6-0.9 17.1-6.7 2.2-3.6 3.3-8 1.9-11.8-1.4-3.7-5.8-6.3-9.8-5"/>
<path id="XMLID_86_" d="m745.6 334.6c-3.7 8.3-7.5 16.6-11.2 24.9"/>
<path id="XMLID_87_" d="m804.9 374.4c-0.2 4.2-4.5 7.2-8.3 9.4-5.4 3.1-10.7 6.2-16.1 9.2"/>
<path id="XMLID_88_" d="m844.1 592.4c-6.5-7.3-14.9-12.9-24.3-16.2"/>
<path id="XMLID_89_" d="m778.6 662.1c-0.3-9.2 0.2-18.5 1.2-27.8"/>
<path id="XMLID_90_" d="m596.6 674.5c8.5-6.5 16.9-13.1 25.2-19.9"/>
<path id="XMLID_91_" d="m516 626.8c7.9-3 15.5-7.1 22.4-12.1"/>
<path id="XMLID_92_" d="m494.7 402.8c4.2 6.3 9.7 11.8 16.1 16"/>
<path id="XMLID_93_" d="m518.2 369.5c7.1 3.4 13.5 8.1 18.8 13.7"/>
<path id="XMLID_94_" d="m317.3 250.9c2.6 8.4 5.2 16.8 7.9 25.2 2 6.4 4.3 13.2 9.6 17.2"/>
<path id="XMLID_95_" d="m305.5 259.8c5 15.6 13.1 30.3 23.8 42.8"/>
<path id="XMLID_96_" d="m286.4 264.2c7.8 20.3 19.8 39 35 54.5 5.8 5.9 13.4 11.8 21.6 10.2"/>
<path id="XMLID_97_" d="m982.7 253.1c1.9 12-6.6 22.9-15.3 31.4-13.5 13.1-30.6 25.1-49.4 23.5"/>
<path id="XMLID_98_" d="m991.3 261c0.6 14.8-7.6 29.6-20.4 36.8"/>
<path id="XMLID_99_" d="m1004.4 256c0.8 19.4-5.4 39-17.3 54.3-11.8 15.4-29.2 26.4-48.1 30.6"/>
<path id="XMLID_100_" d="m894 180.2c-13.2-2.6-27-2.2-40.1 1"/>
<path id="XMLID_101_" d="m869 163.7c-11.2 0.3-22.2 5.2-29.9 13.4"/>
<path id="XMLID_102_" d="m848.8 139.6c-12.7 8.2-20.8 23.2-20.5 38.4"/>
<path id="XMLID_103_" d="m454 170c5.3 2.8 10.4 6.1 15 10"/>
<path id="XMLID_104_" d="m458.9 160.3c11.7 5 24.3 10.8 30.3 22.1 1.4 2.7 2.4 5.7 1.8 8.7s-3.1 5.7-6.1 5.7"/>
<path id="XMLID_105_" d="m475.8 143.4c7.2 4.6 13.3 11 17.7 18.4"/>
</g>
</svg>
