<?xml version="1.0" encoding="UTF-8"?>
<!DOCTYPE svg PUBLIC "-//W3C//DTD SVG 1.1//EN" "http://www.w3.org/Graphics/SVG/1.1/DTD/svg11.dtd">
<svg version="1.1" xmlns="http://www.w3.org/2000/svg" xmlns:xlink="http://www.w3.org/1999/xlink" x="0" y="0" width="957" height="867" viewBox="0, 0, 957, 867">
  <defs>
    <clipPath id="Clip_1">
      <path d="M0.06,0.623 L956.511,0.623 L956.511,867 L0.06,867 z"/>
    </clipPath>
    <clipPath id="Clip_2">
      <path d="M0.06,0.623 L956.511,0.623 L956.511,867 L0.06,867 z"/>
    </clipPath>
  </defs>
  <g id="Layer_1">
    <g clip-path="url(#Clip_1)">
      <path d="M328.375,589.696 C334.441,578.385 338.206,566.162 342.266,554.079 C345.226,545.268 347.433,536.206 350.248,527.342 C351.362,523.834 350.275,522.602 346.99,521.352 C310.823,507.588 274.715,493.668 238.634,479.679 C236.143,478.714 234.232,478.589 231.686,479.704 C216.874,486.186 196.996,476.018 196.425,460.598 C196.327,457.933 194.976,458.375 193.126,458.601 C186.159,459.454 179.136,459.576 172.186,458.667 C163.278,457.502 161.394,454.193 164.597,445.719 C165.395,443.607 165.565,442.681 163.009,441.922 C149.648,437.955 151.049,423.767 159.576,417.376 C160.771,416.48 161.974,415.592 163.498,414.458 C157.409,410.655 151.627,406.544 153.488,398.15 C154.948,391.565 160.028,388.935 166.036,387.518 C166.266,385.537 164.589,384.607 163.787,383.25 C161.44,379.278 160.136,375.078 160.426,370.42 C160.96,361.82 164.595,358.901 173.148,360.246 C182.187,361.668 190.142,365.702 198.048,370.97 C198.84,367.225 199.175,363.801 200.537,360.652 C203.019,354.911 206.657,350.68 213.528,350.863 C215.74,350.922 216.301,349.951 216.508,347.938 C220.578,308.378 235.545,272.794 256.392,239.406 C258.479,236.063 259.004,234.525 254.766,232.148 C230.875,218.745 226.607,186.278 245.925,166.824 C251.928,160.78 258.722,155.663 265.788,150.936 C268.639,149.028 270.616,146.642 272.214,143.584 C301.609,87.355 343.534,44.099 402.484,18.764 C433.494,5.438 465.854,-1.228 499.726,1.07 C527.503,2.954 553.354,11.752 578.263,23.708 C603.27,35.71 626.43,50.656 648.224,67.748 C650.545,69.568 651.91,69.772 654.404,67.79 C666.984,57.793 684.799,57.568 697.593,66.916 C710.753,76.53 715.916,93.531 710.293,108.724 C704.633,124.015 689.818,133.215 672.837,131.984 C657.82,130.895 644.289,119.107 641.523,103.585 C640.538,98.06 638.613,96.334 633.424,97.491 C631.662,97.883 629.811,97.877 627.478,98.105 C633.908,107.562 640.362,116.747 644.547,127.021 C651.037,142.952 660.346,155.832 674.167,166.818 C693.965,182.555 694.873,208.677 678.76,227.013 C675.311,230.937 670.922,233.61 666.508,236.496 C682.278,255.223 696.669,274.768 708.939,295.821 C719.83,314.509 728.629,333.94 730.037,355.956 C730.237,359.082 730.353,362.213 730.529,365.756 C737.436,362.224 744.209,359.194 751.786,358.436 C758.514,357.762 761.249,359.731 762.558,366.398 C763.996,373.723 761.026,379.707 756.799,385.6 C763.774,387.284 769.417,390.475 770.197,398.018 C770.963,405.425 765.708,409.272 759.995,412.515 C774.628,422.431 774.021,436.727 757.888,441.441 C758.555,443.299 759.376,445.131 759.871,447.047 C761.242,452.344 759.388,455.518 754.04,456.51 C746.475,457.912 738.835,458.293 731.196,456.99 C728.753,456.574 727.623,456.899 727.005,459.896 C723.799,475.451 707.191,484.232 692.314,478.287 C689.427,477.133 687.121,477.15 684.312,478.244 C649.187,491.932 614.043,505.57 578.843,519.061 C574.93,520.56 573.757,521.852 575.155,526.415 C581.341,546.599 588.386,566.462 595.89,586.182 C597.036,589.195 598.531,590.091 601.673,590.043 C614.079,589.851 626.49,589.964 640.15,589.964 C626.864,579.291 614.593,569.434 602.322,559.576 C598.687,556.655 595.054,553.731 591.422,550.806 C585.786,546.266 585.661,542.392 591.159,537.857 C602.335,528.64 613.552,519.472 624.782,510.32 C629.898,506.151 633.48,506.741 637.047,512.482 C647.931,529.996 658.743,547.556 669.575,565.103 C673.042,570.721 682.801,571.587 687.156,566.6 C700.079,551.803 712.964,536.973 725.891,522.179 C731.359,515.922 734.578,516.055 739.888,522.498 C749.525,534.193 759.25,545.815 768.859,557.532 C773.111,562.716 772.504,566.247 766.888,569.775 C758.336,575.145 749.735,580.436 740.805,585.979 C744.391,588.968 747.786,590.206 752.007,590.044 C759.494,589.757 767.001,589.915 774.498,589.98 C780.512,590.032 783.25,592.218 782.477,598.08 C781.235,607.496 784.761,612.676 793.325,616.793 C805.885,622.831 817.684,630.448 829.829,637.353 C832.825,639.057 835.677,640.872 835.377,644.866 C835.1,648.558 832.377,650.069 829.304,651.371 C822.569,654.223 815.955,657.362 809.209,660.186 C806.327,661.392 804.843,662.852 804.768,666.337 C804.549,676.481 803.785,686.611 803.334,696.751 C803.187,700.057 802.808,703.25 799.411,704.75 C795.882,706.309 793.045,704.856 790.508,702.206 C788.27,699.868 785.767,697.784 782.639,694.904 C782.639,697.616 782.639,699.22 782.639,700.823 C782.639,750.312 782.641,799.801 782.636,849.29 C782.636,857.583 781.303,858.928 773.152,858.929 C751.49,858.932 729.828,858.937 708.166,858.92 C706.003,858.919 703.947,858.755 702.322,860.783 C700.957,862.486 698.722,862.379 696.744,862.387 C685.08,862.431 673.416,862.415 661.752,862.389 C660.762,862.387 659.497,862.51 658.825,861.982 C652.042,856.655 644.16,859.647 636.784,858.975 C633.809,858.704 630.786,859.019 627.791,858.905 C624.888,858.795 622.713,858.788 621.773,862.647 C620.971,865.939 617.445,866.133 614.258,866.128 C579.599,866.072 544.935,865.739 510.283,866.24 C492.501,866.497 474.706,867.353 456.936,866.839 C412.654,865.561 368.37,866.362 324.088,866.11 C321.535,866.095 318.97,866.161 317.342,863.784 C316.084,861.947 314.466,862.595 312.872,862.813 C292.199,865.634 271.436,866.859 250.593,865.736 C219.719,864.072 190.048,857.6 162.26,843.464 C131.412,827.771 120.156,803.932 128.008,770.098 C133.737,745.409 145.758,723.647 159.425,702.66 C174.355,679.733 191.524,658.539 209.603,638.054 C214.363,638.886 218.503,640.906 221.858,644.442 C221.056,647.67 218.632,649.842 216.583,652.183 C195.159,676.646 175.155,702.145 159.376,730.706 C150.239,747.245 142.487,764.287 140.483,783.432 C138.591,801.51 144.642,815.888 160.175,825.592 C180.098,838.04 202.076,844.943 225.177,848.512 C245.803,851.699 266.492,852.563 287.328,850.785 C294.617,850.163 301.887,849.446 309.164,848.734 C312.999,848.358 314.39,846.584 314.22,842.918 C314.066,839.597 314.217,836.262 314.075,832.928 C313.975,826.298 313.914,819.675 314.076,813.053 C313.933,770.253 313.995,727.453 314.049,684.653 C314.06,675.92 316.678,673.58 325.524,673.408 C329.772,673.326 334.072,673.879 338.718,672.936 C335.839,667.451 330.959,664.149 328.206,659.255 C328.024,658.631 327.769,657.8 328.208,657.39 C332.158,653.691 332.068,648.799 332.302,643.993 C334.987,643.191 336.281,645.333 337.651,646.807 C344.223,653.876 350.777,660.966 356.542,668.74 C359.843,673.191 367.933,675.341 373.116,673.397 C375.44,672.526 375.175,670.603 375.191,668.825 C375.251,662.163 375.229,655.5 375.207,648.838 C375.198,645.997 375.431,643.196 375.945,640.395 C377.071,634.261 377.041,634.227 382.17,630.568 C380.398,628.358 377.97,626.871 376.055,624.876 C369.741,618.295 370.14,613.153 377.906,608.221 C387.604,602.062 397.445,596.122 407.25,590.131 C412.224,587.092 417.098,583.889 422.147,580.974 C428.416,577.352 432.923,578.449 436.264,584.723 C439.297,590.419 442.171,596.204 445.246,601.447 C445.201,597.288 445.29,592.643 445.192,588.003 C445.095,583.447 446.804,580.273 451.341,578.917 C458.464,578.288 465.507,580.091 472.619,579.579 C477.579,579.976 482.508,580.661 487.512,580.816 C493.104,580.989 495.593,583.786 495.782,589.354 C496.114,599.194 494.228,608.862 493.653,617.991 C498.656,607.463 504.156,596.417 509.902,585.501 C513.249,579.143 517.892,578.198 523.894,582.742 C534.24,590.577 544.05,599.09 554.118,607.278 C556.957,609.586 559.911,611.769 562.581,614.274 C567.135,618.545 567.422,622.694 563.31,627.37 C560.785,630.242 558.562,633.376 555.311,636.448 C559.583,635.635 563.118,634.041 566.919,633.796 C571.997,633.47 574.163,635.046 575.471,639.95 C575.975,650.719 573.053,661.248 572.66,672.949 C575.614,670.465 574.896,668.029 574.956,665.911 C575.552,644.626 574.994,623.337 575.106,602.05 C575.119,599.721 575.015,597.388 575.249,595.069 C575.539,593.152 576.45,591.41 578.137,590.62 C581.554,589.02 580.891,586.873 579.8,584.093 C573.346,567.65 567.68,550.932 562.571,534.021 C561.621,530.875 560.877,527.668 558.223,525.203 C552.429,519.82 553.747,513.601 561.304,510.577 C571.355,506.555 581.468,502.682 591.572,498.793 C618.62,488.383 645.613,477.829 672.678,467.464 C676.113,466.149 675.981,464.815 674.38,462.015 C664.184,444.184 657.199,425.245 655.05,404.679 C654.591,400.294 654.025,400.011 650.083,401.646 C636.852,407.136 623.569,412.499 610.35,418.016 C607.706,419.119 605.216,420.393 603.316,422.617 C586.083,442.781 564.368,456.204 539.504,464.791 C535.998,466.001 534.771,467.71 535.528,471.419 C537.154,479.377 536.854,487.278 534.042,495.018 C531.81,501.16 528.302,506.335 522.761,509.857 C506.333,520.298 487.532,520.29 472.942,505.745 C471.409,504.216 469.803,502.751 468.373,501.128 C463.722,495.848 464.108,496.08 460.012,501.841 C443.918,524.478 408.913,520.199 396.033,503.731 C392.221,498.857 389.857,493.388 389.395,487.297 C388.993,482 388.57,476.576 389.755,471.362 C390.587,467.701 389.403,466.388 386.081,465.293 C370.14,460.038 355.426,452.384 342.002,442.249 C335.591,437.408 329.881,431.834 324.316,426.09 C321.956,423.654 319.274,421.852 316.1,420.587 C302.176,415.033 288.302,409.353 274.482,403.542 C269.391,401.402 269.114,401.441 268.478,406.632 C266.031,426.606 259.33,445.111 249.674,462.658 C247.102,467.334 247.215,467.481 252.094,469.373 C287.501,483.107 322.916,496.82 358.389,510.381 C360.102,511.036 361.823,511.665 363.448,512.522 C369.082,515.492 370.434,520.1 366.759,525.29 C363.937,529.276 363.341,533.939 362.079,538.367 C354.11,566.311 344.265,593.513 330.815,619.337 C329.274,622.296 327.7,625.239 325.897,628.031 C323.675,631.472 323.514,634.361 326.971,637.169 C328.415,638.342 330.224,639.702 329.565,642.144 C328.298,642.962 326.977,642.626 325.73,642.195 C316.481,639.002 307.16,635.982 298.499,631.324 C297.074,630.557 295.165,629.947 295.216,627.975 C295.269,625.929 297.27,625.546 298.779,625.026 C301.437,624.111 303.823,622.456 306.683,622.111 C310.382,623.536 312.185,621.687 313.122,618.353 C313.869,617.057 314.707,615.812 315.819,614.817 C322.108,609.19 325.866,602.244 326.969,593.853 C327.16,592.403 327.285,590.87 328.375,589.696" fill="#6E4100"/>
    </g>
    <path d="M332.105,643.833 C334.893,650.817 334.177,653.539 328.411,657.869 C325.887,660.138 323.038,659.284 320.385,658.434 C307.843,654.416 295.604,649.627 283.94,643.469 C279.323,641.032 279.201,641.107 278.883,646.258 C278.141,658.285 275.732,669.998 271.964,681.436 C271.599,682.543 271.15,683.622 270.619,684.661 C267.98,689.823 263.056,692.089 258.262,690.355 C253.328,688.571 250.61,683.201 252.473,677.662 C255.787,667.813 257.667,657.705 258.879,647.434 C259.459,642.513 258.96,642.088 254.284,643.933 C245.537,647.385 236.511,648.117 227.29,646.765 C225.235,646.464 222.865,646.46 221.638,644.177 C217.367,642.645 213.415,640.486 209.603,638.054 C206.865,635.387 204.099,632.773 202.189,629.369 C196.415,619.08 198.777,609.388 209.472,599.898 C212.946,595.215 218.172,595.125 223.245,594.624 C236.677,593.724 248.103,599.504 259.445,605.54 C264.469,608.213 264.408,608.221 266.828,602.83 C270.852,593.87 275.186,585.059 281.894,577.738 C288.185,570.871 295.641,566.279 305.443,566.907 C309.866,568.088 314.559,568.73 317.522,572.87 C323.129,577.195 326.774,582.787 328.375,589.696 C328.695,599.509 324.877,607.618 318.145,614.524 C316.684,616.023 315.206,617.507 313.736,618.998 C312.127,620.99 310.127,622.337 307.558,622.748 C303.626,624.375 299.695,626.003 294.735,628.056 C306.644,634.213 318.137,638.67 330.088,642.013 C331.25,642.077 331.892,642.718 332.105,643.833" fill="#41BC5C"/>
    <path d="M223.488,595.638 C218.474,595.933 213.883,597.618 209.472,599.899 C198.909,587.72 188.265,575.608 179.936,561.699 C177.366,557.407 175.073,552.978 173.743,548.154 C169.975,534.494 178.74,523.852 192.914,524.634 C200.538,525.055 207.495,527.605 214.266,530.866 C219.773,533.518 219.772,533.518 221.541,527.889 C223.443,521.839 225.896,516.055 229.749,510.952 C240.813,496.3 257.406,496.831 267.73,512.053 C269.829,515.149 270.322,520.265 273.671,521.199 C276.689,522.042 280.575,519.541 284.128,518.737 C294.212,516.456 304.233,516.838 314.154,519.755 C327.351,523.635 332.062,531.44 329.126,544.968 C326.96,554.953 322.509,564.034 317.522,572.87 C313.728,570.704 309.712,569.085 305.492,567.966 C304.678,565.39 306.403,563.506 307.387,561.488 C310.383,555.348 313.384,549.216 314.769,542.467 C316.007,536.439 314.867,534.62 308.945,533.185 C297.37,530.382 286.192,531.76 275.343,536.498 C267.098,540.099 264.181,538.878 260.783,530.533 C259.342,526.994 258.071,523.386 255.815,520.222 C250.908,513.341 246.463,513.237 241.209,519.968 C237.102,525.229 235.343,531.472 233.809,537.797 C233.22,540.222 233.065,542.745 232.418,545.149 C230.785,551.21 225.497,553.506 220.054,550.427 C213.538,546.741 207.15,542.836 199.92,540.612 C197.356,539.823 194.8,539.15 192.095,539.288 C187.818,539.506 186.689,540.899 188.003,545.044 C190.037,551.458 193.693,557.06 197.573,562.471 C204.751,572.484 212.728,581.857 220.925,591.045 C222.111,592.375 223.756,593.483 223.488,595.638" fill="#6E4100"/>
    <path d="M853.047,516.224 C847.85,510.203 843.128,504.904 838.622,499.429 C836.782,497.193 835.079,496.173 831.921,496.656 C824.886,497.734 817.754,498.181 809.738,498.977 C813.805,492.307 817.363,486.177 821.237,480.253 C822.981,477.588 823.071,475.406 821.669,472.541 C818.625,466.318 815.984,459.898 812.765,452.625 C820.086,454.3 826.594,455.436 832.865,457.348 C836.94,458.59 839.623,457.714 842.531,454.82 C847.095,450.278 852.08,446.157 857.804,441.037 C858.417,448.41 859.231,454.743 859.372,461.091 C859.467,465.375 860.729,468.079 864.783,470.057 C870.717,472.952 876.295,476.578 882.787,480.333 C875.594,483.368 869.224,486.326 862.648,488.717 C859.353,489.915 858.058,491.853 857.466,495.087 C856.227,501.866 854.666,508.587 853.047,516.224" fill="#FFC700"/>
    <g clip-path="url(#Clip_2)">
      <path d="M87.604,647.569 C94.106,642.494 99.637,638.02 105.351,633.793 C107.758,632.012 108.637,630.105 108.353,627.076 C107.708,620.197 107.471,613.28 106.994,605.122 C113.725,609.686 119.543,613.415 125.102,617.496 C127.709,619.409 129.897,619.561 132.822,618.311 C139.16,615.602 145.66,613.273 153.19,610.366 C150.945,618.236 149.117,625.062 147.016,631.804 C146.194,634.441 146.372,636.343 148.308,638.546 C153.014,643.898 157.378,649.551 162.446,655.778 C154.616,656.139 147.444,656.623 140.266,656.722 C137.458,656.76 135.721,657.545 134.232,660.007 C130.467,666.236 126.398,672.282 122.047,679.027 C119.341,671.516 116.786,664.744 114.49,657.885 C113.609,655.251 112.191,653.827 109.452,653.182 C102.507,651.547 95.623,649.65 87.604,647.569" fill="#FFC700"/>
      <path d="M956.451,628.12 C956.906,631.936 954.727,634.233 951.234,635.372 C934.501,640.827 917.763,646.27 900.975,651.551 C896.065,653.096 891.781,650.837 890.502,646.589 C889.126,642.018 891.145,637.914 895.954,636.341 C912.372,630.971 928.804,625.641 945.294,620.5 C952.336,618.305 956.506,621.272 956.451,628.12" fill="#FF7164"/>
      <path d="M66.706,644.282 C66.622,650.137 61.736,653.339 55.341,651.328 C41.08,646.845 26.887,642.144 12.667,637.534 C11.087,637.022 9.51,636.506 7.922,636.023 C1.23,633.991 -1.222,630.256 0.565,624.79 C2.02,620.341 6.418,618.807 12.728,620.809 C24.609,624.58 36.447,628.489 48.311,632.313 C52.421,633.638 56.577,634.816 60.674,636.178 C64.52,637.457 66.896,639.944 66.706,644.282" fill="#FF7164"/>
    </g>
    <path d="M91.552,573.9 C91.443,576.232 90.191,578.612 87.44,580.081 C84.334,581.74 81.097,581.645 78.58,579.35 C67.897,569.609 57.052,560.067 45.934,550.822 C42.62,548.066 42.637,543.223 45.241,540.014 C48.057,536.545 52.78,535.949 56.816,539.233 C64.931,545.836 72.8,552.742 80.725,559.575 C83.366,561.852 85.865,564.293 88.435,566.653 C90.351,568.412 91.583,570.493 91.552,573.9" fill="#FF7164"/>
    <path d="M873.243,581.086 C869.751,580.916 867.176,579.288 865.968,575.992 C864.618,572.311 865.74,569.22 868.596,566.583 C877.632,558.239 886.728,549.966 896.3,542.234 C897.979,540.878 899.597,539.381 901.458,538.327 C905.282,536.162 908.893,536.81 911.768,540.108 C914.472,543.209 914.321,548.192 910.999,550.904 C899.794,560.054 888.992,569.649 878.345,579.432 C876.967,580.698 875.157,581.18 873.243,581.086" fill="#FF7164"/>
    <path d="M910.032,726.265 C908.04,726.265 906.046,726.314 904.055,726.255 C899.342,726.114 896.403,723.425 896.1,719.044 C895.783,714.477 898.055,711.468 902.715,710.621 C911.016,709.114 919.277,710.883 927.553,711.162 C932.852,711.34 938.136,712.051 943.415,712.626 C948.543,713.185 951.581,716.516 951.286,721.073 C950.991,725.64 947.678,728.575 942.332,728.275 C931.56,727.669 920.804,726.748 910.042,725.956 C910.039,726.059 910.035,726.162 910.032,726.265" fill="#FF7164"/>
    <path d="M46.851,725.914 C37.086,726.671 27.322,727.436 17.556,728.175 C16.067,728.287 14.561,728.396 13.077,728.296 C8.927,728.015 5.88,724.973 5.628,720.997 C5.38,717.079 8.098,713.296 12.142,712.865 C24.848,711.51 37.567,710.161 50.369,710.138 C52.01,710.135 53.703,710.391 55.285,710.836 C59.424,712.001 61.202,715.02 60.873,719.129 C60.537,723.328 58.066,725.802 53.832,726.168 C51.526,726.368 49.188,726.204 46.864,726.204 C46.86,726.107 46.855,726.011 46.851,725.914" fill="#FF7164"/>
    <path d="M618.646,367.965 C606.898,401.491 585.495,426.75 553.882,443.098 C527.623,456.677 499.268,461.632 470.062,462.509 C437.631,463.483 405.942,459.618 376.145,445.885 C344.031,431.084 321.389,407.093 308.244,374.213 C310.128,372.666 310.177,372.553 312.918,373.741 C319.918,376.774 327.168,378.037 334.81,377.757 C339.481,377.586 343.915,376.61 347.487,373.836 C358.051,365.636 367.143,356.238 365.109,341.354 C363.29,328.04 357.27,317.002 344.978,310.385 C332.593,303.718 314.947,308.028 305.311,319.875 C303.421,322.199 301.721,324.654 300.286,327.308 C299.472,328.814 299.071,330.913 296.684,330.922 C291.502,301.394 294.771,272.444 304.127,244.308 C314.116,214.268 308.772,220.436 337.385,205.39 C368.862,188.838 403.037,181.278 438.407,178.906 C441.09,178.726 443.443,179.013 445.933,180.573 C483.491,204.099 524.624,218.097 568.009,226.011 C583.071,228.758 598.243,230.713 613.501,231.895 C616.084,232.095 616.833,233.31 617.534,235.325 C628.008,265.402 633.174,296.09 628.315,327.949 C626,327.895 625.491,325.833 624.552,324.391 C615.368,310.297 601.719,306.236 585.967,307.639 C571.411,308.936 552.012,331.017 559.491,350.396 C562.288,357.642 565.5,364.552 571.317,369.831 C582.566,380.038 598.095,380.686 610.928,371.818 C613.284,370.191 615.143,367.366 618.646,367.965" fill="#FEF8EA"/>
    <path d="M332.105,643.833 C331.43,643.225 330.754,642.616 330.083,642.011 C329.778,641.623 329.472,641.229 329.156,640.843 C326.871,638.052 322.048,636.428 322.105,633.01 C322.158,629.792 325.341,626.645 327.083,623.432 C342.871,594.314 354.066,563.423 362.564,531.489 C363.275,528.819 363.962,526.328 366.165,524.096 C369.62,520.595 367.814,515.544 362.603,513.492 C348.369,507.884 334.07,502.441 319.793,496.941 C296.204,487.853 272.614,478.767 249.018,469.695 C246.786,468.837 244.643,468.545 246.694,465.035 C257.986,445.707 265.696,425.121 267.404,402.596 C267.616,399.799 268.638,399.769 270.875,400.696 C287.163,407.44 303.484,414.105 319.818,420.737 C321.615,421.467 322.831,422.761 324.067,424.107 C341.578,443.193 362.947,456.269 387.41,464.356 C391.179,465.602 391.967,466.947 391.277,470.941 C388.813,485.192 389.796,498.889 402.693,508.323 C417.196,518.931 446.24,522.237 461.35,497.71 C462.04,496.589 462.759,495.486 463.665,494.058 C467.374,498.051 470.738,502.054 474.493,505.648 C490.316,520.794 517.086,518.899 529.214,501.717 C535.921,492.215 536.157,481.436 533.931,470.57 C533.173,466.867 533.731,465.316 537.433,464.091 C563.077,455.603 585.238,441.694 602.979,421.114 C604.433,419.428 606.118,418.291 608.191,417.448 C622.517,411.617 636.847,405.789 651.071,399.714 C654.589,398.212 655.923,398.561 656.233,402.587 C657.934,424.609 665.752,444.634 676.79,463.496 C678.755,466.855 676.961,467.186 674.619,468.092 C637.082,482.607 599.563,497.166 562.045,511.728 C560.813,512.206 559.495,512.64 558.46,513.417 C554.873,516.109 554.545,521.338 558.258,523.587 C561.035,525.269 561.912,527.485 562.732,530.215 C568.328,548.855 574.531,567.295 581.725,585.381 C582.92,588.384 583.104,590.119 579.498,590.952 C577.99,591.301 577.181,592.771 576.342,594.022 C575.543,607.414 576.254,620.821 575.914,634.215 C575.875,635.742 577.179,637.875 574.72,638.873 C572.656,634.553 569.156,634.269 565.024,635.201 C561.1,636.087 557.436,638.351 552.68,637.733 C556.217,633.657 559.503,629.959 562.687,626.177 C566.037,622.196 565.864,618.625 561.907,615.363 C549.082,604.791 536.225,594.254 523.261,583.853 C517.573,579.289 514.001,580.233 510.676,586.797 C505.569,596.877 500.547,607 495.429,617.074 C494.712,618.485 494.381,620.194 492.497,621.44 C492.086,614.044 493.6,607.097 493.889,600.091 C494.032,596.608 494.522,593.137 494.6,589.656 C494.714,584.542 492.724,582.412 487.523,582.112 C482.713,581.834 477.885,581.856 473.139,580.868 C471.969,580.075 471.583,578.804 471.053,577.588 C469.391,573.773 466.462,571.458 462.299,571.333 C458.203,571.21 454.932,572.977 453.1,576.846 C452.525,578.061 451.913,579.206 450.707,579.909 C447.395,581.888 446.084,584.679 446.311,588.632 C446.623,594.071 446.389,599.542 446.389,606.569 C442.353,599.005 438.956,592.673 435.592,586.323 C431.762,579.096 429.113,578.315 422.237,582.532 C407.493,591.574 392.746,600.609 378.039,609.71 C371.391,613.824 371.005,617.604 376.498,623.169 C377.901,624.59 379.305,626.016 380.79,627.346 C382.261,628.664 384.006,629.703 385.018,631.861 C379.192,632.424 377.433,635.775 377.136,641.332 C376.61,651.138 376.672,660.943 376.493,670.744 C376.432,674.116 375.233,674.595 372.156,674.958 C363.477,675.983 357.366,673.647 352.259,665.804 C346.87,657.527 339.904,650.169 332.105,643.833" fill="#FF7164"/>
    <path d="M221.638,644.177 C234.904,647.816 247.632,646.284 260.491,639.495 C260.839,649.307 259.035,658.135 257.006,666.915 C256.223,670.305 255.036,673.605 253.968,676.925 C252.031,682.942 253.818,687.478 258.852,689.18 C263.826,690.862 268.095,688.394 270.195,682.363 C274.43,670.202 276.855,657.67 277.538,644.806 C277.634,643.006 277.736,641.206 277.834,639.427 C279.727,638.82 280.797,640.139 282.028,640.818 C294.007,647.43 306.694,652.364 319.594,656.807 C322.467,657.796 325.383,658.269 328.412,657.87 C332.821,663.381 338.202,668.107 342.566,674.837 C335.817,674.837 329.893,674.812 323.97,674.843 C317.515,674.877 315.658,676.833 315.655,683.745 C315.637,721.398 315.653,759.05 315.638,796.702 C315.636,802.197 315.527,807.691 315.467,813.186 C313.789,814.475 311.659,814.151 309.79,814.776 C305.882,816.083 303.081,819.896 303.262,823.763 C303.445,827.696 306.474,831.409 310.33,832.393 C312.063,832.836 314.019,832.492 315.48,833.878 C315.535,837.704 315.439,841.539 315.693,845.352 C315.892,848.347 314.598,849.513 311.788,849.857 C289.473,852.594 267.152,854.022 244.643,852.195 C221.938,850.353 199.906,845.92 178.971,836.835 C168.913,832.47 158.91,827.899 150.874,820.027 C140.651,810.012 137.684,797.589 139.052,783.937 C141.526,759.249 153.039,738.047 165.612,717.364 C181.656,690.97 201.321,667.317 221.638,644.177" fill="#FF3538"/>
    <path d="M461.276,107.541 C519.299,107.812 574.423,119.848 625.5,148.155 C640.087,156.239 653.865,165.549 666.297,176.714 C678.028,187.249 680.016,203.205 671.315,215.416 C662.852,227.294 646.791,230.939 633.988,223.854 C632.687,223.134 631.397,222.32 630.286,221.341 C601.364,195.85 567.216,180.794 530.031,172.659 C470.149,159.56 411.03,162.494 353.301,183.999 C331.524,192.111 311.339,203.139 293.55,218.394 C281.734,228.528 264.074,226.63 253.711,214.707 C243.52,202.983 244.599,185.459 256.49,174.784 C270.311,162.376 285.926,152.538 302.408,144.095 C350.084,119.673 400.958,108.552 454.309,107.85 C456.632,107.82 458.953,107.647 461.276,107.541" fill="#FEFEFE"/>
    <path d="M635.19,137.363 C522.079,80.648 408.491,80.564 293.875,132.52 C293.32,131.913 294.129,131.251 294.502,130.654 C330.069,73.734 378.837,34.55 444.961,18.669 C484.966,9.061 523.511,13.746 560.962,30.145 C589.811,42.778 616.268,59.298 640.999,78.692 C642.122,79.573 643.812,80.128 643.264,82.107 C642.676,84.23 640.945,84.115 639.245,84.163 C631.431,84.385 623.62,84.785 615.806,84.83 C612.434,84.85 609.239,85.024 607.823,88.497 C606.517,91.7 607.752,94.419 610.019,97.116 C620.315,109.364 628.318,123.062 635.19,137.363" fill="#FF7164"/>
    <path d="M328.633,770.134 C328.633,744.484 328.712,718.834 328.55,693.186 C328.525,689.223 329.33,687.729 333.688,687.753 C366.998,687.936 400.31,687.921 433.621,687.764 C437.604,687.745 438.61,688.897 438.601,692.801 C438.476,744.599 438.468,796.398 438.612,848.197 C438.624,852.299 437.283,853.119 433.506,853.105 C400.195,852.974 366.883,852.965 333.573,853.114 C329.627,853.132 328.518,852.039 328.544,848.082 C328.716,822.1 328.633,796.117 328.633,770.134" fill="#41BC5C"/>
    <path d="M609.594,770.697 C609.594,796.357 609.472,822.018 609.709,847.676 C609.751,852.245 608.326,853.146 604.066,853.123 C571.242,852.952 538.417,852.964 505.593,853.112 C501.57,853.131 500.18,852.205 500.192,847.914 C500.337,796.261 500.338,744.608 500.191,692.956 C500.179,688.646 501.6,687.753 505.606,687.771 C538.43,687.917 571.255,687.932 604.078,687.758 C608.361,687.735 609.749,688.67 609.708,693.219 C609.474,719.044 609.594,744.871 609.594,770.697" fill="#41BC5C"/>
    <path d="M486.94,768.926 C486.941,795.913 486.838,822.901 487.046,849.887 C487.079,854.152 485.846,855.176 481.759,855.029 C472.941,854.71 464.1,854.78 455.277,855.011 C452.081,855.094 451.449,854.034 451.454,851.055 C451.539,796.248 451.542,741.44 451.448,686.633 C451.443,683.549 452.27,682.657 455.35,682.725 C464.341,682.922 473.346,682.988 482.332,682.704 C486.14,682.583 487.045,683.771 487.024,687.465 C486.869,714.618 486.94,741.772 486.94,768.926" fill="#FEFB64"/>
    <path d="M691.585,725.013 C691.585,764.478 691.512,803.944 691.683,843.408 C691.703,847.929 690.6,849.645 685.909,849.246 C681.114,848.839 676.25,848.986 671.432,849.212 C668.078,849.37 666.866,848.038 667.254,844.857 C667.334,844.2 667.264,843.526 667.264,842.86 C667.264,764.262 667.315,685.665 667.145,607.068 C667.134,602.001 668.38,600.235 673.485,600.771 C677.767,601.221 682.158,601.147 686.457,600.784 C690.737,600.422 691.686,602.057 691.671,606.118 C691.527,645.75 691.585,685.381 691.585,725.013" fill="#41BC5C"/>
    <path d="M620.549,398.217 C624.533,388.402 629.078,379.327 632.133,369.62 C632.824,367.422 633.989,366.878 636.159,367.071 C665.27,369.662 674.77,349.515 674.108,328.27 C673.886,321.141 672.82,313.989 668.637,307.809 C663.586,300.346 656.376,297.349 647.59,297.971 C644.547,298.186 643.28,297.614 643.094,294.089 C642.138,275.914 638.275,258.237 633.219,240.798 C633.004,240.056 632.845,239.298 632.522,237.994 C639.109,239.463 645.144,241.331 651.497,240.378 C652.771,240.187 653.49,241.47 654.222,242.339 C676.047,268.251 696.224,295.26 709.768,326.62 C712.992,334.082 715.121,341.886 716.242,350.055 C704.985,347.796 702.751,348.923 694.909,360.63 C680.077,351.914 668.629,357.657 662.31,365.613 C659.013,369.765 657.456,374.647 656.456,379.753 C656.11,381.521 656.15,383.455 654.047,384.325 C642.876,388.945 631.714,393.584 620.549,398.217" fill="#DCAE53"/>
    <path d="M618.646,367.965 C613.154,371.312 608.498,376.059 602.105,377.899 C585.341,382.725 570.109,375.297 561.332,358.689 C548.923,335.211 563.262,316.426 578.577,308.491 C590.623,302.25 616.961,306.531 626.495,325.02 C627.02,326.038 627.705,326.974 628.315,327.949 C626.633,341.66 623.876,355.111 618.646,367.965" fill="#FFCEB4"/>
    <path d="M296.684,330.922 C301.372,321.974 307.053,314.026 316.556,309.446 C332.404,301.806 350.408,306.875 359.438,322.035 C362.909,327.86 365.676,334.002 366.64,340.964 C369.432,361.138 346.578,387.069 319.177,377.486 C315.629,376.245 312.424,373.45 308.244,374.214 C302.2,360.368 298.499,345.897 296.684,330.922" fill="#FFCEB4"/>
    <path d="M241.551,300.801 C245.957,282.267 256.053,266.378 265.156,250.029 C265.479,249.448 265.92,248.93 266.219,248.339 C269.424,241.986 272.827,236.292 281.617,237.282 C285.335,237.7 289.041,235.726 293.401,234.111 C290.59,243.302 287.974,251.942 286.178,260.786 C283.93,271.858 281.581,282.922 281.583,294.289 C281.583,296.988 280.919,298.032 277.949,298.052 C261.207,298.167 252.824,305.553 250.88,322.736 C249.574,334.274 250.223,345.775 257.607,355.662 C264.528,364.929 274.402,367.995 285.307,367.289 C290.025,366.984 292.043,367.903 293.432,372.411 C296.456,382.222 301.338,391.276 306.843,401.295 C293.665,395.895 281.58,390.937 269.491,385.991 C266.737,384.865 267.129,382.171 266.654,380.039 C264.271,369.344 258.845,361.454 247.685,358.499 C244.713,357.712 241.727,358.174 238.75,358.006 C235.681,354.122 236.739,349.332 236.376,345.036 C235.106,330.004 236.754,315.186 241.551,300.801" fill="#DCAE53"/>
    <path d="M766.528,603.112 C769.68,602.425 769.611,604.474 769.601,606.624 C769.531,622.261 769.496,637.897 769.45,653.534 C768.761,655.449 767.604,657.024 766.163,658.462 C747.21,677.383 728.294,696.34 709.314,715.234 C708.108,716.435 707.074,718.302 704.796,717.596 C704.803,700.028 704.81,682.459 704.818,664.891 C705.399,662.686 707.033,661.242 708.558,659.718 C726.161,642.115 743.768,624.516 761.36,606.902 C762.896,605.364 764.446,603.885 766.528,603.112" fill="#FF3538"/>
    <path d="M704.85,817.958 C704.822,800.379 704.795,782.799 704.767,765.219 C705.451,763.653 706.698,762.545 707.871,761.373 C726.653,742.604 745.414,723.815 764.218,705.07 C765.699,703.594 766.91,701.595 769.396,701.541 C769.406,719.016 769.416,736.491 769.426,753.966 C768.396,756.096 766.823,757.786 765.165,759.442 C746.907,777.667 728.684,795.929 710.405,814.133 C708.816,815.716 707.57,817.954 704.85,817.958" fill="#FF3538"/>
    <path d="M706.593,589.955 C691.253,585.854 675.604,588.65 660.112,587.924 C658.657,587.856 657.622,587.274 656.558,586.418 C639.974,573.08 623.387,559.745 606.756,546.466 C604.977,545.046 604.316,544.032 606.451,542.316 C613.059,537.002 619.593,531.595 626.102,526.162 C628.62,524.06 629.703,525.507 631.011,527.639 C639.798,541.956 649.008,556.027 657.384,570.579 C661.679,578.041 666.218,582.76 675.77,582.745 C684.371,582.732 691.413,583.043 697.566,574.92 C707.483,561.828 719.035,549.983 729.733,537.471 C731.959,534.867 733.312,534.8 735.42,537.446 C741.116,544.599 746.882,551.703 752.843,558.634 C754.865,560.985 754.405,562.165 752.048,563.615 C738.449,571.981 724.875,580.39 711.337,588.854 C709.811,589.808 708.278,590.033 706.593,589.955" fill="#41BC5C"/>
    <path d="M769.396,701.541 C749.35,721.469 729.309,741.403 709.245,761.314 C707.843,762.705 706.263,763.918 704.766,765.216 C704.776,749.346 704.784,733.474 704.794,717.598 C725.001,697.458 745.204,677.317 765.421,657.191 C766.705,655.913 768.105,654.751 769.45,653.535 C769.432,669.536 769.414,685.538 769.396,701.541" fill="#FEFEFE"/>
    <path d="M704.85,817.958 C725.039,797.844 745.225,777.725 765.425,757.621 C766.704,756.348 768.09,755.182 769.426,753.966 C769.426,769.957 769.426,785.948 769.426,801.938 C768.499,803.712 767.327,805.28 765.895,806.706 C754.014,818.536 742.162,830.396 730.323,842.268 C728.901,843.693 727.416,844.985 725.545,845.775 C719.58,845.827 713.611,845.785 707.65,845.976 C705.195,846.055 704.563,845.129 704.611,842.813 C704.784,834.53 704.784,826.244 704.85,817.958" fill="#FEFEFE"/>
    <path d="M668.5,393.51 C668.407,386.573 668.74,380.931 671.411,375.742 C675.053,368.665 682.455,367.307 688.447,372.573 C690.601,374.465 692.559,376.693 693.356,379.4 C700.344,403.126 709.16,426.343 713.984,450.665 C716.077,461.216 710.099,467.706 700.281,466.986 C695.625,466.646 692.687,463.645 690.285,460.24 C684.603,452.186 680.611,443.187 676.925,434.115 C671.489,420.737 669.021,406.678 668.5,393.51" fill="#FEFEFE"/>
    <path d="M254.701,393.727 C254.432,418.522 246.425,440.149 234.21,460.379 C229.825,467.64 224.863,469.698 218.541,468.124 C211.729,466.428 208.758,462.478 209.129,455.526 C209.423,450.025 210.287,444.593 212.027,439.376 C217.812,422.031 222.757,404.44 227.778,386.867 C229.152,382.058 231.003,377.413 235.044,374.042 C241.242,368.872 248.376,370.292 252.005,377.468 C254.734,382.864 254.842,388.681 254.701,393.727" fill="#FEFEFE"/>
    <path d="M595.313,674.574 C589.023,674.997 588.981,674.996 589.025,668.852 C589.115,656.536 589.255,644.221 589.374,631.906 C598.226,621.535 607.747,611.833 618.241,603.107 C629.163,603.059 640.085,603.04 651.006,602.936 C652.938,602.918 654.191,603.187 653.993,605.568 C653.693,609.18 654.451,612.844 653.509,616.433 C652.767,618.719 651.225,620.424 649.56,622.085 C633.219,638.393 616.904,654.727 600.573,671.045 C599.055,672.562 597.652,674.271 595.313,674.574" fill="#FEFEFE"/>
    <path d="M464.36,669.796 C457.552,669.796 450.964,669.732 444.379,669.837 C442.574,669.866 441.7,668.713 440.668,667.699 C424.764,652.083 408.901,636.425 392.958,620.85 C390.807,618.749 389.824,617.587 393.291,615.574 C403.202,609.818 412.888,603.671 422.634,597.633 C424.434,596.518 425.674,595.456 427.185,598.339 C439.367,621.577 451.723,644.725 464.007,667.911 C464.214,668.302 464.185,668.817 464.36,669.796" fill="#FEFB64"/>
    <path d="M519.795,597.924 C529.128,605.523 537.996,612.798 546.941,619.978 C548.641,621.343 548.711,622.341 547.291,623.982 C533.133,640.332 519.024,656.726 504.939,673.139 C503.549,674.76 501.079,675.753 500.286,674.286 C497.134,668.459 491.92,669.875 487.115,669.833 C484.365,669.809 483.983,668.993 485.19,666.607 C496.662,643.93 508.07,621.22 519.795,597.924" fill="#FEFB64"/>
    <path d="M595.313,674.574 C614.711,655.194 634.11,635.815 653.509,616.434 C653.55,633.583 653.591,650.733 653.632,667.883 C653.509,668.565 653.415,669.255 653.1,669.888 C644.471,679.78 634.773,688.625 625.531,697.918 C624.831,698.623 623.961,699.158 622.859,698.973 C622.774,693.331 622.744,687.688 622.586,682.048 C622.441,676.861 620.445,674.94 615.226,674.845 C608.589,674.726 601.951,674.662 595.313,674.574" fill="#FF3538"/>
    <path d="M766.528,603.112 C753.306,616.466 740.114,629.851 726.849,643.163 C719.569,650.469 712.164,657.651 704.817,664.89 C704.828,648.924 704.837,632.957 704.847,616.99 C708.159,611.112 712.885,606.635 718.582,603.119 C734.564,603.116 750.546,603.114 766.528,603.112" fill="#FEFEFE"/>
    <path d="M676.223,119.023 C663.709,118.953 653.532,108.695 653.491,96.109 C653.451,83.577 664.205,72.943 676.754,73.109 C689.159,73.272 699.504,83.755 699.485,96.143 C699.464,108.898 689.097,119.095 676.223,119.023" fill="#FEFEFE"/>
    <path d="M622.805,799.586 C622.812,782.017 622.82,764.449 622.827,746.881 C623.183,745.768 623.656,744.703 624.483,743.865 C632.959,735.272 641.486,726.73 650.096,718.272 C651.005,717.378 651.986,716.322 653.542,716.931 C653.551,733.862 653.56,750.793 653.569,767.724 C653.957,768.369 653.997,769.065 653.869,769.785 C652.467,772.93 649.653,774.854 647.352,777.199 C640.852,783.825 634.281,790.381 627.657,796.883 C626.334,798.182 625.268,800.221 622.805,799.586" fill="#FF3538"/>
    <path d="M598.394,217.11 C574.202,214.702 550.509,209.756 527.237,202.819 C507.933,197.065 489.26,189.69 471.48,180.154 C470.784,179.78 470.136,179.317 469.631,177.992 C478.915,178.694 488.238,179.066 497.476,180.159 C528.254,183.801 557.715,192.02 585.283,206.431 C591.305,209.579 597.384,212.678 602.719,216.981 C601.301,217.797 599.853,217.64 598.394,217.11" fill="#DCAE53"/>
    <path d="M653.542,716.931 C644.768,725.562 636,734.199 627.214,742.818 C625.792,744.213 624.29,745.527 622.826,746.88 C622.837,730.912 622.848,714.943 622.859,698.973 C632.754,689.025 642.649,679.077 652.544,669.129 C653.323,668.931 653.914,669.238 653.905,670.019 C653.731,685.682 654.585,701.356 653.468,717.01 L653.542,716.931" fill="#FEFEFE"/>
    <path d="M622.805,799.586 C633.037,789.465 643.27,779.345 653.503,769.224 C654.579,775.457 653.823,781.738 653.942,787.994 C654.121,797.419 653.874,806.849 654.052,816.276 C653.872,816.653 653.691,817.031 653.51,817.409 C652.796,819.511 651.467,821.172 649.904,822.721 C643.284,829.287 636.697,835.887 630.121,842.497 C628.691,843.933 627.188,845.205 625.195,845.766 C622.62,846.39 622.629,844.81 622.64,842.957 C622.727,828.5 622.757,814.043 622.805,799.586" fill="#FEFEFE"/>
    <path d="M213.635,363.516 C217.027,369.382 218.405,374.19 216.439,380.321 C210.001,400.386 204.144,420.639 198.258,440.876 C197.453,443.643 196.453,445.044 193.45,445.37 C190.387,445.703 187.384,446.231 184.113,445.242 C185.091,444.796 186.113,444.426 187.039,443.89 C189.593,442.413 190.914,440.14 190.413,437.225 C189.889,434.173 188.05,432.313 184.794,431.742 C178.931,430.713 172.823,431.564 166.881,429.389 C167.467,426.862 169.608,426.027 171.47,425.323 C175.653,423.74 179.918,422.313 184.246,421.192 C187.682,420.303 190.137,418.665 190.374,414.985 C190.627,411.042 188.196,408.976 184.671,407.86 C180.718,406.608 176.771,405.325 172.867,403.928 C171.09,403.292 169.423,402.35 166.699,401.075 C172.619,399.198 177.417,399.66 182.097,400.321 C186.293,400.914 190.438,401.535 192.292,396.768 C194.236,391.769 190.662,389.284 186.939,386.916 C181.896,383.707 176.937,380.306 173.917,374.286 C176.783,373.93 178.897,375.254 180.961,376.237 C187.147,379.184 192.846,382.927 197.807,387.687 C200.228,390.009 202.7,391.742 206.223,390.226 C209.67,388.743 210.381,385.794 210.487,382.451 C210.679,376.362 210.628,370.221 213.635,363.516" fill="#FEF8EA"/>
    <path d="M734.325,444.137 C726.431,443.581 726.655,443.515 724.473,436.18 C718.65,416.604 712.849,397.016 706.528,377.599 C704.606,371.695 706.905,367.523 709.463,361.872 C712.343,367.184 712.239,371.958 712.664,376.643 C713.055,380.959 711.755,386.128 716.952,388.518 C722.095,390.883 724.773,386.459 728.032,383.826 C734.362,378.709 741.072,374.293 749.608,371.976 C746.782,378.342 741.707,381.568 736.87,385.024 C735.384,386.086 733.681,386.919 732.41,388.19 C730.361,390.242 729.827,392.757 731.175,395.507 C732.633,398.48 735.129,399.385 738.213,399.059 C743.943,398.454 749.676,397.036 755.796,399.166 C753.127,401.929 749.765,402.471 746.748,403.62 C743.806,404.741 740.75,405.559 737.761,406.561 C734.513,407.65 732.824,409.985 733.054,413.371 C733.268,416.527 735.111,418.437 738.242,419.277 C742.249,420.351 746.231,421.545 750.154,422.89 C752.601,423.729 755.048,424.761 756.848,427.546 C751.481,429.538 746.158,429.298 740.983,429.774 C737.199,430.122 733.964,430.965 733.177,435.231 C732.408,439.398 734.647,441.801 738.378,443.113 C737.579,445.639 735.783,444.219 734.325,444.137" fill="#FEF8EA"/>
    <path d="M426.686,503.091 C425.185,502.847 422.363,502.582 419.64,501.914 C403.147,497.866 401.485,485.273 404.363,471.478 C404.787,469.444 406.02,469.74 407.309,470.027 C422.257,473.359 437.396,475.069 452.692,475.566 C454.239,475.616 455.905,475.628 455.585,478.34 C453.997,491.779 441.187,503.392 426.686,503.091" fill="#FEFEFE"/>
    <path d="M521.992,480.079 C522.043,488.598 520.11,495.355 512.926,499.127 C505.115,503.229 496.965,504.877 488.744,500.014 C480.116,494.91 474.669,487.029 470.301,478.318 C468.352,474.431 472.127,475.66 473.405,475.586 C484.684,474.938 495.92,473.963 507.049,471.968 C509.661,471.5 512.403,471.329 514.833,470.377 C519.73,468.459 521.309,470.585 521.529,475.069 C521.626,477.053 521.892,479.03 521.992,480.079" fill="#FEFEFE"/>
    <path d="M473.921,658.584 C469.663,650.544 465.564,642.781 461.434,635.033 C460.791,633.827 460.531,632.595 460.495,631.228 C460.199,620.098 459.904,608.968 459.479,597.843 C459.365,594.875 459.755,593.236 463.447,593.721 C468.539,594.389 473.705,594.542 478.845,594.769 C480.839,594.857 481.254,595.53 481.073,597.51 C479.379,616.045 477.828,634.592 476.178,653.131 C476.02,654.903 476.025,656.837 473.921,658.584" fill="#FEFB64"/>
    <path d="M725.545,845.775 C740.172,831.163 754.799,816.55 769.426,801.938 C769.48,815.394 769.47,828.851 769.639,842.305 C769.674,845.152 768.702,846.013 765.913,845.98 C752.458,845.818 739.001,845.827 725.545,845.775" fill="#FF3538"/>
    <path d="M276.885,310.89 C280.242,310.493 281.655,312.184 281.903,316.566 C282.558,328.154 284.126,339.685 287.026,350.951 C287.8,353.957 286.676,354.316 284.301,354.475 C274.118,355.158 266.601,349.541 264.481,339.524 C262.978,332.425 262.917,325.34 265.228,318.395 C267.065,312.872 270.394,310.664 276.885,310.89" fill="#FEF8EA"/>
    <path d="M660.992,328.94 C660.952,333.768 660.689,337.918 659.428,341.929 C656.754,350.429 648.399,355.593 639.585,354.463 C637.227,354.161 637.009,353.2 637.471,351.209 C640.264,339.193 642.193,327.04 642.604,314.695 C642.682,312.337 643.72,311.527 645.784,311.095 C652.674,309.655 657.345,312.424 659.589,319.239 C660.705,322.626 660.635,326.127 660.992,328.94" fill="#FEF8EA"/>
    <path d="M790.468,683.518 C784.527,679.831 782.085,675.517 782.399,668.803 C783.002,655.87 782.684,642.886 782.51,629.927 C782.455,625.891 783.547,625.829 786.628,627.66 C795.451,632.905 804.398,637.941 814.224,643.593 C808.343,646.269 803.379,648.789 798.214,650.793 C794.293,652.316 792.781,654.739 792.238,658.918 C791.191,666.968 792.306,675.168 790.468,683.518" fill="#41BC5B"/>
    <path d="M560.516,650.826 C559.497,658.162 558.431,665.364 557.535,672.586 C557.27,674.73 555.98,674.796 554.399,674.795 C543.642,674.787 532.886,674.791 522.119,674.791 C529.706,658.533 543.939,653.137 560.516,650.826" fill="#FDFA63"/>
    <path d="M426.058,672.373 C414.575,672.373 403.311,672.357 392.047,672.389 C390.22,672.394 389.32,671.848 389.408,669.811 C389.695,663.168 389.927,656.52 390.018,649.872 C390.053,647.361 390.883,646.932 393.328,647.284 C399.75,648.207 405.236,650.246 409.665,655.507 C414.676,661.459 420.502,666.724 426.058,672.373" fill="#FEFB64"/>
    <path d="M618.241,603.107 C608.619,612.706 598.997,622.306 589.374,631.906 C589.327,623.467 589.367,615.026 589.186,606.59 C589.125,603.75 590.157,602.859 592.926,602.917 C601.362,603.092 609.802,603.059 618.241,603.107" fill="#FF3638"/>
    <path d="M625.195,845.766 C634.314,835.996 643.804,826.595 653.51,817.409 C653.592,825.699 653.591,833.992 653.803,842.279 C653.875,845.107 652.871,846.041 650.074,845.978 C641.783,845.792 633.488,845.821 625.195,845.766" fill="#FF3538"/>
    <path d="M241.551,300.801 C240.544,307.319 239.544,313.838 238.529,320.355 C236.574,332.918 237.957,345.46 238.749,358.006 C235.445,359.009 232.133,359.994 228.572,362.438 C228.646,351.774 230.073,342.037 231.912,332.352 C233.615,323.381 236.075,314.592 238.863,305.907 C239.435,304.124 239.444,301.852 241.551,300.801" fill="#FDFDFD"/>
    <path d="M315.48,833.878 C308.271,834.304 303.973,831.994 302.498,826.724 C299.983,817.737 307.846,811.198 315.467,813.186 C315.471,820.083 315.475,826.981 315.48,833.878" fill="#FEFDFD"/>
    <path d="M450.707,579.909 C452.865,573.001 456.681,569.756 462.382,569.982 C468.07,570.207 471.683,573.862 473.141,580.867 C465.622,581.471 458.197,579.927 450.707,579.909" fill="#FDFDFD"/>
    <path d="M574.72,638.873 C576.051,637.272 575.452,635.366 575.46,633.601 C575.515,622.153 575.461,610.704 575.517,599.256 C575.526,597.499 574.902,595.578 576.343,594.022 C576.301,618.436 576.26,642.849 576.218,667.263 C576.216,668.591 576.16,669.923 576.225,671.248 C576.343,673.669 575.534,674.99 572.817,674.857 C569.647,674.701 570.59,672.581 570.82,670.925 C571.958,662.721 573.235,654.535 574.34,646.326 C574.671,643.869 574.604,641.358 574.72,638.873" fill="#FD7062"/>
    <path d="M718.582,603.119 C714.003,607.743 709.424,612.367 704.847,616.991 C704.701,599.564 701.522,603.253 718.582,603.119" fill="#FE3638"/>
    <path d="M653.468,717.01 C654.483,701.629 653.681,686.231 653.878,670.842 C653.889,669.963 653.598,669.225 652.544,669.129 C652.906,668.714 653.269,668.298 653.631,667.883 C654.995,671.774 654.167,675.793 654.217,679.743 C654.354,690.403 654.293,701.066 654.236,711.727 C654.226,713.497 654.825,715.413 653.468,717.01" fill="#FF3538"/>
    <path d="M654.052,816.276 C654.008,802.559 653.98,788.842 653.902,775.125 C653.891,773.157 653.643,771.191 653.503,769.224 C653.525,768.725 653.546,768.226 653.568,767.726 C654.782,769.723 654.242,771.934 654.239,774.045 C654.221,788.122 654.124,802.199 654.052,816.276" fill="#FF3538"/>
    <path d="M307.558,622.748 C309.374,621.096 311.199,619.46 313.737,618.998 C312.107,625.334 311.649,625.611 307.558,622.748" fill="#F0F3ED"/>
    <path d="M734.325,444.137 C735.593,443.468 737.305,444.556 738.378,443.113 C739.36,443.194 740.19,443.523 740.861,444.861 C738.492,445.003 736.367,445.314 734.325,444.137" fill="#CFBEA6"/>
    <path d="M598.394,217.11 C599.835,217.067 601.276,217.024 602.718,216.981 C603.199,217.131 604.24,217.545 603.277,217.832 C601.714,218.299 599.872,218.337 598.394,217.11" fill="#B98D39"/>
    <path d="M223.488,595.638 C211.805,582.848 200.268,569.938 191.244,555.041 C189.177,551.628 187.226,548.145 186.322,544.176 C185.32,539.781 186.578,538.036 191.159,537.771 C195.785,537.504 199.981,539.117 204.193,540.724 C209.67,542.814 214.683,545.777 219.673,548.784 C226.091,552.65 230.377,550.548 231.463,542.942 C232.387,536.483 233.989,530.181 236.92,524.355 C239.475,519.277 242.398,513.413 248.818,513.528 C254.821,513.636 257.11,519.541 259.541,524.274 C260.75,526.63 261.612,529.171 262.544,531.662 C264.739,537.534 267.819,538.71 273.88,535.814 C285.405,530.308 297.346,528.837 309.777,532.018 C316.677,533.783 317.81,535.683 316.194,542.771 C314.134,551.807 309.629,559.81 305.492,567.966 C293.415,567.839 285.328,574.525 278.735,583.699 C273.663,590.758 269.711,598.46 266.726,606.578 C265.371,610.261 264.168,610.084 261.216,608.27 C249.646,601.159 237.569,595.344 223.488,595.638" fill="#FF3538"/>
    <path d="M293.576,609.879 C290.465,611.538 287.044,612.012 282.788,612.649 C286.843,602.45 291.192,593.064 299.819,586.431 C303.097,583.91 306.002,585.507 308.51,588.107 C308.968,589.376 308.313,590.407 307.657,591.334 C303.174,597.674 299.507,604.639 293.576,609.879" fill="#6E4300"/>
    <path d="M222.413,613.089 C230.131,611.978 236.953,614.622 243.567,618.14 C244.429,622.64 242.612,625.4 236.485,628.898 C231.101,629.286 226.041,628.428 221.63,625.056 C221.643,624.184 222.023,623.433 222.616,622.869 C225.352,620.266 225.779,617.675 222.794,614.936 C222.314,614.496 222.25,613.767 222.413,613.089" fill="#6E4100"/>
    <path d="M293.576,609.879 C298.554,602.621 303.533,595.364 308.511,588.106 C312.13,590.646 311.805,593.866 309.899,597.178 C306.197,603.608 300.501,607.552 293.576,609.879" fill="#FBFCFA"/>
    <path d="M236.485,628.898 C238.677,625.2 243.572,623.283 243.568,618.139 C246.987,619.437 250.079,621.315 253.419,623.665 C248.047,626.956 242.632,629.045 236.485,628.898" fill="#FD3838"/>
    <path d="M222.413,613.089 C227.282,619.343 227.282,619.343 221.63,625.056 C218.814,623.513 216.138,621.614 216.506,618.035 C216.836,614.83 219.517,613.646 222.413,613.089" fill="#FAFBFA"/>
    <path d="M462.845,395.233 C442.939,394.577 425.202,389.051 412.44,372.497 C410.199,369.59 408.368,366.411 407.11,362.949 C406.043,360.014 406.959,357.534 409.665,356.19 C412.516,354.773 415.556,355.201 416.941,358.289 C422.631,370.973 432.845,378.118 445.694,381.796 C460.284,385.973 474.712,384.935 488.614,378.798 C497.261,374.982 504.065,369.073 507.735,360.072 C509.185,356.512 511.671,354.379 515.507,356.035 C519.714,357.852 519.284,361.376 517.732,364.903 C510.847,380.539 497.937,388.554 482.152,392.787 C475.868,394.472 469.426,395.323 462.845,395.233" fill="#6E4100"/>
    <path d="M361.433,305.645 C361.385,303.788 361.948,301.501 362.912,299.383 C364.307,296.318 366.476,293.636 363.078,290.207 C361.454,288.567 362.498,286.017 364.488,284.572 C366.462,283.14 368.441,283.396 370.449,284.815 C374.963,288.003 381.801,285.679 383.306,280.516 C383.94,278.343 385.369,277.132 387.611,277.031 C390.108,276.918 392.128,278.205 392.349,280.55 C392.701,284.286 394.838,285.828 397.907,287.297 C402.232,289.367 405.322,292.967 407.189,297.38 C408.566,300.634 408.091,303.896 404.675,305.542 C401.498,307.072 398.621,306.2 396.501,303.022 C392.29,296.711 388.944,295.242 382.849,296.681 C377.059,298.048 374.392,301.131 373.387,307.943 C372.804,311.895 370.652,313.969 366.693,313.78 C363.087,313.607 361.218,310.745 361.433,305.645" fill="#6E4100"/>
    <path d="M558.374,313.91 C554.704,313.404 552.835,311.56 552.301,307.794 C551.13,299.538 544.411,295.153 536.403,297.132 C533.14,297.938 530.896,299.998 529.386,302.993 C527.547,306.643 524.688,308.144 520.789,306.306 C517.345,304.683 516.733,301.136 518.936,296.854 C520.322,294.158 522.149,291.775 524.544,289.938 C528.166,287.159 533.013,285.732 533.39,279.814 C533.517,277.807 536.186,277.29 538.357,277.69 C540.421,278.071 541.34,279.429 541.94,281.351 C542.312,282.541 540.618,284.974 543.207,284.821 C546.876,284.603 550.207,289.079 553.925,285.667 C556.182,283.596 558.511,282.676 560.96,284.77 C563.617,287.041 563.204,289.838 561.001,292.208 C559.651,293.661 560.04,294.637 560.923,296.071 C563.041,299.509 564.329,303.262 564.332,307.362 C564.335,311.375 562.19,313.422 558.374,313.91" fill="#6E4100"/>
    <path d="M380.385,193.87 C385.462,193.877 388.917,195.315 391.855,197.961 C393.853,199.761 394.261,201.992 392.679,204.187 C391.076,206.411 388.908,206.512 386.522,205.245 C379.954,201.757 375.018,203.254 371.72,210.098 C370.278,213.092 368.485,215.004 365.266,213.635 C361.641,212.092 362.021,208.972 363.5,206.041 C367.215,198.68 373.066,194.365 380.385,193.87" fill="#6E4300"/>
    <path d="M465.977,307.428 C465.866,310.529 464.328,312.461 461.212,312.787 C458,313.124 453.742,308.089 453.563,303.673 C453.428,300.327 455.223,298.309 458.559,298.063 C461.719,297.829 465.858,303.2 465.977,307.428" fill="#704502"/>
    <path d="M472.89,528.954 C472.998,535.41 468.505,540.047 462.076,540.115 C455.749,540.183 450.842,535.529 450.687,529.316 C450.538,523.343 455.613,518.123 461.704,517.983 C467.904,517.841 472.785,522.628 472.89,528.954" fill="#FEFEFD"/>
    <path d="M232.573,832.934 C226.597,833.01 221.673,828.219 221.716,822.372 C221.759,816.7 226.453,812.027 232.202,811.936 C238.268,811.839 243.016,816.492 242.98,822.497 C242.945,828.315 238.414,832.859 232.573,832.934" fill="#FEFDFD"/>
    <path d="M168.266,771.941 C174.415,771.885 179.034,776.437 178.987,782.506 C178.942,788.26 174.327,792.86 168.526,792.935 C162.608,793.012 157.614,788.082 157.727,782.276 C157.837,776.593 162.528,771.992 168.266,771.941" fill="#FEFDFD"/>
    <path d="M206.385,689.078 C206.327,683.011 210.603,678.522 216.535,678.424 C222.715,678.321 227.428,682.911 227.378,688.985 C227.331,694.745 222.619,699.447 216.878,699.465 C211.012,699.484 206.441,694.959 206.385,689.078" fill="#FEFDFD"/>
    <path d="M271.54,761.862 C277.68,761.951 281.867,766.472 281.698,772.832 C281.544,778.648 276.883,783.096 271.11,782.936 C265.361,782.777 260.713,778.071 260.709,772.404 C260.705,766.478 265.537,761.775 271.54,761.862" fill="#FEFDFD"/>
    <path d="M298.534,711.098 C298.553,716.89 293.946,721.658 288.218,721.775 C282.325,721.896 277.48,716.995 277.538,710.969 C277.594,705.031 282.019,700.766 288.099,700.787 C294.15,700.809 298.514,705.122 298.534,711.098" fill="#FEFDFD"/>
    <path d="M221.434,742.946 C227.526,743.042 231.881,747.678 231.701,753.875 C231.531,759.758 227.065,763.989 221.074,763.942 C215.118,763.896 210.482,759.007 210.715,753.019 C210.939,747.25 215.617,742.854 221.434,742.946" fill="#FEFDFD"/>
  </g>
</svg>
