<?xml version="1.0" encoding="UTF-8"?>
<!DOCTYPE svg PUBLIC "-//W3C//DTD SVG 1.1//EN" "http://www.w3.org/Graphics/SVG/1.1/DTD/svg11.dtd">
<svg version="1.1" xmlns="http://www.w3.org/2000/svg" xmlns:xlink="http://www.w3.org/1999/xlink" x="0" y="0" width="1539" height="840" viewBox="0, 0, 1539, 840">
  <defs>
    <clipPath id="Clip_1">
      <path d="M0.06,0.778 L1538.19,0.778 L1538.19,839.94 L0.06,839.94 z"/>
    </clipPath>
  </defs>
  <g id="Layer_1">
    <g clip-path="url(#Clip_1)">
      <path d="M1312.99,789.148 C1313.16,792.99 1311.94,793.791 1308.26,793.782 C1257.27,793.655 1206.28,793.696 1155.28,793.696 C1124.45,793.696 1093.62,793.696 1062.79,793.696 C981.294,793.696 899.799,793.657 818.303,793.802 C813.784,793.81 812.393,792.757 812.611,788.145 C813.011,779.664 812.824,771.149 812.667,762.653 C812.618,760.014 813.421,759.24 816.03,759.336 C847.795,760.503 879.557,761.802 911.332,762.616 C939.132,763.329 966.946,763.705 994.755,763.809 C1036.58,763.964 1078.4,764.153 1120.22,763.6 C1180.64,762.801 1241.04,761.265 1301.33,756.713 C1305.06,756.431 1309.9,754.094 1312.21,756.575 C1314.07,758.577 1312.85,763.517 1312.88,767.154 C1312.93,774.487 1312.66,781.83 1312.99,789.148 z M716.598,553.526 C717.212,556.52 714.544,556.174 713.138,556.674 C689.826,564.963 666.424,572.999 643.144,581.374 C591.883,599.817 540.717,618.495 488.529,634.274 C477.626,637.57 467.586,637.507 456.908,634.91 C449.715,633.161 442.301,632.32 434.986,631.072 C434.979,630.568 434.972,630.064 434.965,629.56 C443.008,627.162 451.07,624.825 459.09,622.355 C508.354,607.182 556.113,587.883 604.198,569.47 C634.758,557.768 665.189,545.632 697.24,538.401 C704.968,536.657 712.774,535.129 721.338,535.939 C717.461,541.473 715.279,547.083 716.598,553.526 z M261.298,362.51 C258.168,365.002 255.125,363.539 251.413,362.902 C259.822,355.483 268.32,349.102 277.176,343.262 C301.105,327.485 317.638,306.11 326.731,278.951 C327.197,277.557 327.458,276.122 329.104,275.412 C337.521,271.775 345.181,266.86 352.634,260.858 C355.678,278.325 358.773,295.313 358.238,312.716 C358.161,315.228 357.181,317.083 355.395,318.79 C348.755,325.136 341.286,330.363 333.834,335.694 C323.041,343.416 310.386,344.35 298.095,346.863 C284.785,349.585 272.107,353.902 261.298,362.51 z M1537.14,523.126 C1535.96,521.091 1533.74,522.4 1531.85,522.334 C1527.24,522.171 1523.35,519.135 1519.03,517.619 C1517.98,517.252 1518.73,515.82 1519.04,514.926 C1526.11,494.098 1527.48,472.56 1526.57,450.835 C1524.92,411.449 1516.48,373.363 1502.7,336.555 C1483.11,284.225 1457.7,235.699 1410.23,201.99 C1415.75,202.228 1420.22,199.57 1420.17,194.518 C1420.12,188.301 1423.6,183.584 1424.76,177.998 C1425.8,173.007 1430.87,169.667 1435.66,170.563 C1441.86,171.725 1448.09,172.882 1454.21,174.396 C1467.3,177.63 1480.37,180.961 1493.92,181.572 C1497.33,181.725 1500.86,182.406 1503.78,179.489 C1511.19,172.067 1513.32,161.989 1509,152.383 C1507.16,148.307 1504.72,144.505 1502.6,140.555 C1499.18,134.172 1499.38,131.999 1503.79,126.58 C1512.38,116.043 1512.67,109.013 1504.94,97.707 C1501.47,92.632 1497.76,87.706 1496.4,81.5 C1495.86,79.018 1494.22,77.671 1491.63,78.492 C1486.1,80.247 1483.81,77.123 1482.87,72.543 C1481.6,66.354 1480.69,60.091 1479.69,53.849 C1476.16,31.669 1464.78,22.71 1442.42,24.903 C1437.15,25.419 1432.02,27.228 1426.75,27.832 C1411.02,29.638 1398,21.214 1391.29,5.236 C1389.05,-0.074 1387.21,-0.55 1382.97,3.326 C1377.49,8.334 1373.43,14.39 1370.36,21.124 C1360.14,43.54 1358.93,67.426 1359.12,91.48 C1359.21,103.247 1360.12,114.997 1361.75,126.904 C1354.2,122.95 1352.16,122.485 1347.53,124.881 C1339.54,129.021 1333.62,135.166 1331.32,144.086 C1330.71,146.46 1329.74,147.528 1327.48,148.432 C1318.81,151.897 1313.97,162.228 1316.63,170.922 C1317.89,175.038 1316.27,176.834 1311.81,176.388 C1282.27,173.434 1252.95,174.588 1224.01,181.55 C1220.26,182.45 1219.34,181.688 1218.89,177.916 C1217.2,163.949 1206.43,152.818 1193.31,150.899 C1178.88,148.788 1165.66,155.596 1159.91,168.891 C1158.17,172.918 1156.69,172.19 1153.86,170.753 C1131.16,159.211 1109.71,145.504 1087.68,132.809 C1075.44,125.758 1062.82,119.338 1050.86,111.844 C1028.8,98.014 1004.88,91.102 978.976,91.514 C946.577,92.03 917.442,103.171 890.614,120.609 C842.818,151.676 807.864,194.228 781.374,244.186 C777.956,250.631 774.702,257.102 770.405,263.094 C764.858,270.829 760.821,279.438 759.395,289.024 C759.022,291.528 758.689,294.665 760.976,295.945 C764.258,297.782 763.446,299.871 762.969,302.565 C762.48,305.325 762.496,308.212 762.609,311.031 C762.845,316.876 765.779,320.895 771.437,322.26 C774.223,322.931 774.668,324.088 774.615,326.592 C774.384,337.415 774.489,348.245 774.192,359.065 C773.958,367.568 773.005,375.707 765.596,381.849 C761.98,384.846 759.46,389.272 756.785,393.279 C742.599,414.52 735.726,437.596 739.781,463.27 C740.17,465.734 739.691,469.05 743.107,469.854 C746.973,470.765 747.601,467.185 748.981,464.912 C752.043,459.868 754.962,454.736 758.261,449.088 C758.527,450.211 758.724,450.634 758.712,451.05 C758.247,466.342 760.543,481.275 764.972,495.855 C765.821,498.653 764.528,499.322 762.812,500.413 C757.143,504.018 751.238,507.475 751.872,515.636 C751.961,516.781 751.255,517.458 750.213,517.835 C742.587,520.602 735.885,527.272 726.604,523.08 C724.911,522.315 722.656,522.764 720.659,522.706 C707.688,522.33 695.181,525.122 682.791,528.469 C648.071,537.85 614.79,551.346 581.323,564.277 C532.363,583.194 483.494,602.346 432.857,616.498 C428.926,617.597 425.421,617.839 421.333,616.352 C412.712,613.217 404.329,615.379 401.306,621.463 C399.343,625.411 396.484,625.696 393.176,625.19 C378.206,622.898 363.345,620.089 348.965,615.145 C345.911,614.096 343.032,613.472 343.372,609.114 C343.525,607.158 341.941,605.064 340.125,604.351 C333.054,601.574 329.888,595.044 326.09,589.46 C320.813,581.699 315.674,573.563 316.974,563.304 C318.754,549.251 319.288,535.102 319.497,520.962 C319.835,498.139 318.798,475.359 315.818,452.71 C315.302,448.791 315.653,447.513 320.301,447.708 C344.371,448.718 366.991,431.35 372.069,408.486 C373.339,402.768 372.531,401.813 366.501,401.684 C364.678,401.645 362.841,401.517 361.042,401.23 C341.679,398.139 322.9,391.845 303.176,390.707 C299.433,390.491 299.06,386.812 298.421,384.52 C297.795,382.278 301.154,383.188 302.559,382.297 C303.209,381.884 304.168,381.968 304.983,381.805 C325.284,377.744 345.999,377.4 366.492,375.022 C406.281,370.406 438.506,352.66 462.847,320.906 C466.706,315.871 470.881,312.575 476.931,310.178 C503.708,299.57 520.503,278.875 532.011,253.273 C533.862,249.155 535.114,244.836 535.566,240.335 C536.091,235.12 532.582,228.827 528.353,227.154 C524.367,225.578 520.553,227.315 516.607,232.548 C515.706,233.742 514.814,234.958 514.065,236.25 C510.228,242.863 506.568,249.582 502.595,256.112 C499.105,261.849 495.493,267.555 489.371,272.648 C490.279,269.913 490.852,268.217 491.406,266.516 C496.43,251.105 499.843,235.364 500.619,219.145 C501.009,210.996 501.083,202.778 497.792,195.058 C494.609,187.59 488.651,186.859 483.699,193.252 C480.312,197.625 478.052,202.654 475.855,207.677 C467.403,227 459.738,246.674 449.939,265.395 C438.99,286.314 426.51,306.091 407.995,321.308 C399.545,328.253 390.243,333.675 379.037,336.606 C400.452,309.041 413.138,278.244 420.168,244.969 C421.816,237.171 423.181,229.16 420.714,221.257 C418.807,215.146 412.634,213.508 407.596,217.496 C405.174,219.412 403.715,222.028 402.452,224.76 C399.585,230.961 397.773,237.533 395.695,244.014 C392.06,255.347 388.574,266.739 382.971,278.149 C380.697,264.699 377.764,252.242 371.619,240.837 C370.304,238.396 370.255,236.446 371.173,233.927 C374.194,225.638 375.172,217.115 372.837,208.472 C371.222,202.495 366.237,198.204 360.983,197.865 C354.74,197.462 352.116,201.875 350.124,206.52 C347.378,212.924 345.274,219.6 342.678,226.073 C340.744,230.892 338.503,235.595 334.676,240.015 C334.422,238.838 334.216,238.381 334.242,237.938 C335.447,217.475 333.104,197.375 327.633,177.675 C324.291,165.636 320.263,153.801 311.886,144.088 C309.139,140.903 305.731,138.884 301.331,139.939 C296.982,140.98 294.825,144.18 293.602,148.273 C292.187,153.014 292.399,157.853 292.69,162.656 C293.826,181.448 297.734,199.923 299.229,218.68 C300.906,239.709 301.189,260.614 293.739,280.818 C290.887,288.555 287.052,295.734 280.613,302.417 C281.095,298.943 281.494,296.487 281.769,294.017 C284.381,270.638 282.642,247.471 278.126,224.475 C275.947,213.378 273.556,202.304 267.818,192.337 C265.737,188.721 263.059,185.457 258.395,186.464 C253.584,187.501 252.119,191.656 251.777,195.978 C251.277,202.291 251.504,208.615 252.212,214.93 C253.416,225.671 254.471,236.429 255.702,248.276 C249.942,242.456 245.696,236.751 239.106,233.852 C232.775,231.068 228.127,233.891 227.651,240.752 C227.293,245.908 228.871,250.69 231.076,255.157 C236.148,265.433 240.796,276.029 246.978,285.617 C254.484,297.26 254.012,308.434 248.715,320.396 C247.18,323.863 245.425,326.513 241.971,328.439 C226.018,337.337 212.506,348.984 202.911,364.743 C201.608,366.883 199.799,367.388 197.64,367.922 C178.403,372.672 160.317,379.906 144.867,392.732 C123.725,410.282 107.58,432.056 92.799,454.895 C68.596,492.292 48.891,531.959 33.965,573.95 C32.939,576.835 31.952,577.762 28.758,577.305 C23.044,576.488 17.494,577.812 12.355,580.464 C2.144,585.736 -2.358,595.868 1.21,605.848 C4.387,614.734 11.169,619.837 19.976,622.196 C22.878,622.974 23.993,624.251 24.376,627.044 C25.364,634.26 28.414,640.725 32.323,646.768 C44.752,665.986 62.537,678.914 82.754,688.664 C106.656,700.191 132.017,705.695 158.581,705.296 C162.116,705.242 163.669,705.793 161.741,709.567 C160.765,711.477 160.219,713.604 159.456,715.624 C154.072,729.872 150.952,744.372 155.109,759.525 C155.851,762.229 153.848,762.152 152.611,762.889 C145.779,766.962 137.993,769.515 132.134,775.127 C122.822,784.047 125.002,792.499 137.404,795.861 C146.807,798.41 156.464,798.596 166.131,798.712 C179.554,798.874 192.934,797.91 206.348,797.151 C206.315,797.708 206.424,798.143 206.26,798.31 C202.068,802.596 197.78,806.789 193.653,811.136 C190.234,814.738 186.336,817.956 184.218,822.655 C179.792,832.474 183.688,839.109 194.409,839.877 C202.315,840.443 210.003,838.976 217.633,837.192 C240.994,831.729 263.451,823.464 285.859,815.053 C288.347,814.119 290.814,813.207 293.591,813.334 C311.901,814.17 330.215,814.142 348.527,813.35 C350.75,813.254 352.707,813 352.853,816.366 C352.957,818.758 355.33,820.138 357.432,820.401 C371.226,822.124 384.741,822.175 395.731,811.655 C397.11,810.334 398.594,810.175 400.238,809.999 C410.17,808.94 420.099,807.848 430.033,806.806 C448.643,804.853 466.646,801.309 480.736,787.51 C481.952,786.319 483.304,786.228 484.855,786.353 C505.926,788.05 526.993,789.796 548.074,791.365 C561.184,792.341 574.308,793.269 587.442,793.747 C592.851,793.944 598.298,792.487 600.978,787.018 C603.551,781.77 600.791,777.337 597.597,773.332 C592.569,767.029 586.365,761.958 579.867,757.284 C572.743,752.161 565.447,747.277 557.788,741.986 C560.189,741.543 562.121,741.223 564.038,740.828 C569.869,739.627 575.933,739.274 581.041,735.596 C587.679,730.817 588.358,724.641 582.681,718.695 C579.067,714.91 574.587,712.334 569.985,709.978 C558.705,704.204 546.767,700.084 534.797,696.045 C533.678,695.668 532.233,695.76 531.817,694.242 C548.493,690.584 560.879,682.007 566.152,665.091 C567.922,659.413 566.575,657.646 560.666,658.063 C547.297,659.007 534.059,657.908 520.887,655.703 C511.973,654.212 503.17,652.396 496.16,645.68 C513.237,640.175 530.171,634.856 547.014,629.259 C603.613,610.453 659.152,588.645 715.658,569.565 C720.614,567.891 724.424,567.391 727.847,571.778 C729.61,574.038 733.262,574.282 733.78,578.004 C735.328,589.118 737.973,599.834 744.902,609.117 C747.668,612.823 744.186,615.292 742.214,618.127 C740.137,621.114 738.527,618.923 736.803,618.209 C726.04,613.746 715.199,609.479 703.486,608.373 C700.388,608.08 697.811,607.214 695.233,605.579 C689.339,601.841 683.339,598.248 676.574,596.232 C672.969,595.158 671.056,596.259 671.585,600.311 C672.446,606.911 673.172,613.531 674.218,620.101 C674.574,622.341 674.165,622.971 671.882,623.094 C666.738,623.369 661.558,623.645 656.489,624.496 C647.762,625.963 642.3,633.401 643.372,642.159 C644.6,652.192 650.3,659.359 658.94,664.022 C661.974,665.659 663.093,667.621 663.718,670.75 C668.518,694.774 676.978,717.333 690.73,737.782 C695.875,745.431 702.715,749.654 711.923,751.047 C728.402,753.54 744.959,755.084 761.561,756.23 C764.778,756.451 765.712,757.497 765.64,760.705 C765.425,770.367 765.408,780.04 765.645,789.7 C765.73,793.161 764.481,793.902 761.342,793.752 C751.371,793.277 741.346,793.501 731.419,792.602 C703.843,790.106 681.727,778.648 668.899,752.832 C667.882,750.785 666.639,749.361 664.324,750.084 C662.073,750.786 661.674,752.707 661.82,754.937 C662.529,765.779 664.438,776.393 667.761,786.736 C676.535,814.046 696.14,838.24 734.642,838.185 C960.133,837.861 1185.63,838.022 1411.12,838.048 C1417.73,838.048 1424.02,836.788 1430,834.029 C1450.36,824.636 1465.37,808.891 1479.54,792.153 C1480.71,790.765 1481.23,789.207 1480.33,787.564 C1479.27,785.61 1477.36,785.647 1475.49,786.006 C1472.72,786.54 1469.96,787.177 1467.2,787.757 C1432.82,794.96 1397.95,793.712 1363.16,793.755 C1360.41,793.758 1359.82,792.747 1359.84,790.251 C1359.94,777.585 1359.93,764.919 1359.85,752.253 C1359.84,750.144 1360.17,748.905 1362.61,748.523 C1375.75,746.46 1385.13,738.252 1393.49,728.793 C1436.12,680.573 1471.61,627.379 1502.7,571.162 C1504.34,568.189 1505.87,566.434 1509.44,566.999 C1515.77,568.004 1519.92,564.776 1522.93,559.637 C1524.44,557.058 1525.79,554.385 1527.27,551.79 C1531.2,544.921 1532.37,536.803 1537.35,530.324 C1538.59,528.708 1538.41,525.308 1537.14,523.126" fill="#2F201B"/>
    </g>
    <path d="M1142.08,565.825 C1130.69,529.441 1117.58,493.972 1100.27,459.294 C1113.32,462.102 1125.45,459.889 1137.61,458.11 C1138.91,457.921 1140.36,457.837 1141.56,458.244 C1143.46,458.89 1145.19,459.237 1146.55,457.509 C1148.04,455.619 1147.11,453.775 1146.12,451.975 C1139.15,439.314 1132.19,426.644 1125.22,413.977 C1124.38,412.456 1123.55,410.937 1122.3,408.674 C1127.25,411.558 1131.35,413.972 1135.48,416.337 C1137.33,417.398 1139.21,417.843 1140.88,415.964 C1142.43,414.221 1141.57,412.568 1140.67,410.921 C1134.18,399.101 1129.16,386.618 1123.98,374.202 C1122.91,371.643 1122.81,369.396 1123.69,366.627 C1127.39,355.037 1127.83,343.088 1126.51,331.075 C1126.08,327.2 1124.66,323.627 1121.09,321.385 C1119.24,320.224 1118.66,318.552 1118.51,316.372 C1117.25,298.766 1115.1,281.261 1112.08,263.87 C1111.7,261.691 1112.16,260.142 1113.58,258.447 C1129.08,239.895 1146.87,224.014 1167.69,211.589 C1170.21,210.084 1172.14,209.764 1174.95,211.083 C1191.43,218.824 1210.45,211.275 1216.92,194.293 C1218.17,191.009 1219.92,189.661 1223.04,188.899 C1253.47,181.467 1284.24,180.242 1315.27,183.807 C1316.84,183.988 1318.16,184.203 1319.03,185.728 C1325.62,197.17 1337.06,200.417 1348.76,202.693 C1362.44,205.356 1376.29,205.12 1389.97,202.5 C1393.49,201.826 1396.13,202.714 1398.89,204.181 C1417.17,213.881 1431.88,227.77 1444.63,243.794 C1472.59,278.914 1490.74,319.027 1503.65,361.666 C1514.56,397.711 1521.12,434.467 1519.52,472.325 C1518.95,485.831 1516.86,499.122 1512.63,512.032 C1511.8,514.56 1510.8,515.319 1508.02,514.59 C1478.91,506.937 1449.08,504.165 1419.19,501.999 C1390.45,499.917 1361.65,499.127 1332.84,499.445 C1298.55,499.824 1264.27,500.486 1230.26,505.767 C1219.65,507.414 1210.19,511.407 1201.43,517.464 C1181.5,531.235 1163.73,547.607 1145.62,563.565 C1144.66,564.417 1143.95,565.675 1142.08,565.825" fill="#FEFEFE"/>
    <path d="M354.543,407.398 C337.498,412.197 322.09,419.725 305.037,421.507 C296.535,422.395 288.486,420.718 281.119,416.156 C279.441,415.118 277.453,412.62 275.62,415.403 C273.618,418.441 276.882,419.399 278.645,420.525 C289.278,427.317 300.915,427.477 312.829,425.373 C326.829,422.901 339.789,416.976 353.363,413.088 C356.559,412.172 359.77,411.401 363.817,411.948 C358.663,423.982 350.085,432.003 338.894,437.572 C330.47,441.764 321.432,440.874 312.565,440.417 C310.693,440.321 308.969,437.338 306.495,435.056 C307.354,441.698 308.108,447.539 308.866,453.379 C312.216,479.192 313.227,505.13 312.34,531.114 C311.914,543.568 310.58,555.993 309.535,568.421 C309.371,570.367 308.916,572.462 307.979,574.145 C293.369,600.402 277.15,625.527 256.481,647.556 C235.728,669.676 210.297,684.269 182.207,694.936 C173.838,698.114 165.365,698.685 156.748,698.515 C123.535,697.857 92.654,689.425 65.202,670.138 C61.125,667.274 57.358,663.966 53.475,660.829 C53.002,660.447 52.699,659.854 51.905,658.826 C59.928,660.201 67.328,660.543 74.698,658.893 C82.823,657.075 90.168,653.842 95.83,647.443 C98.863,644.014 100.219,640.059 100.004,635.521 C99.897,633.252 99.671,630.946 96.667,630.947 C93.938,630.948 92.837,632.782 93.006,635.267 C93.297,639.562 91.08,642.514 88.122,645.161 C75.658,656.314 51.052,655.43 39.543,643.445 C35.367,639.096 33.216,633.797 31.703,628.073 C30.809,624.696 31.642,623.478 35.214,622.881 C44.313,621.361 51.479,616.763 54.575,607.663 C57.893,597.911 53.532,587.629 43.418,581.954 C39.846,579.95 39.88,578.162 41.034,574.95 C55.51,534.676 74.518,496.649 97.511,460.588 C108.905,442.718 121.582,425.822 136.057,410.314 C155.571,389.406 180.073,378.041 207.817,372.904 C227.802,369.204 247.814,368.207 267.762,372.925 C276.227,374.928 284.537,377.608 290.043,385.117 C291.068,386.515 292.948,388.115 292.085,389.852 C291.335,391.364 289.054,390.668 287.469,390.694 C282.099,390.783 276.888,391.835 271.721,393.109 C269.556,393.644 268.25,395.162 268.803,397.585 C269.338,399.928 271.263,400.333 273.118,399.864 C299.45,393.207 324.541,400.945 349.833,406.373 C351.112,406.647 352.389,406.929 354.543,407.398" fill="#C48F40"/>
    <path d="M788.614,245.623 C792.789,237.215 797.347,229.562 802.168,222.069 C826.687,183.962 856.528,150.97 894.863,126.248 C916.668,112.186 940.175,102.244 966.112,99.232 C993.194,96.086 1018.82,101.387 1042.48,114.941 C1074.22,133.117 1105.74,151.689 1137.4,169.995 C1147.01,175.551 1156.95,180.49 1168.02,184.593 C1162.44,188.538 1156.62,190.342 1150.87,192.258 C1135.45,197.396 1119.69,200.391 1103.34,200.065 C1100.11,200.001 1098.67,198.975 1097.89,195.87 C1096.46,190.234 1094.57,184.719 1092.98,179.124 C1092.21,176.425 1090.65,174.935 1087.88,175.876 C1085.11,176.819 1085.63,179.033 1086.32,181.275 C1098.15,219.699 1105.13,259.1 1109.83,298.952 C1110.3,302.912 1110.55,306.898 1110.86,310.876 C1110.9,311.291 1110.65,311.728 1110.39,312.648 C1101.51,306.321 1092.92,300.102 1083.9,294.511 C1038.82,266.551 989.965,248.505 937.933,238.731 C911.688,233.8 885.239,231.065 858.534,231.931 C835.172,232.687 812.035,235.051 790.53,245.413 C790.153,245.595 789.652,245.519 788.614,245.623" fill="#DF1F00"/>
    <path d="M1085.84,351.782 C1095.85,358.069 1105.28,365.18 1114.67,372.343 C1115.31,372.835 1116.07,373.392 1116.37,374.093 C1120.47,383.832 1124.51,393.601 1128.94,404.275 C1123.72,400.728 1119.3,397.634 1114.78,394.7 C1112.56,393.262 1110.27,390.178 1107.43,393.181 C1104.79,395.98 1107.53,398.429 1108.95,400.702 C1118.74,416.355 1127.72,432.468 1136.46,448.722 C1136.77,449.296 1136.99,449.92 1137.41,450.906 C1126.07,452.668 1114.96,455.188 1103.61,452.701 C1089.65,449.639 1083.06,439.651 1079.9,426.646 C1079.59,425.357 1079.38,424.029 1078.93,422.79 C1078.27,420.96 1076.83,420.298 1074.95,420.669 C1072.93,421.069 1072.19,422.599 1072.38,424.375 C1072.64,426.848 1073.24,429.285 1073.72,431.734 C1075.99,443.537 1073.64,454.902 1070.46,466.188 C1067.54,476.531 1067.39,486.861 1070.83,497.784 C1053.67,494.97 1036.64,492.998 1022.5,482.125 C1013.54,475.236 1008.51,465.844 1006.26,454.859 C1005.83,452.793 1005.71,450.367 1002.88,449.94 C1000.41,449.567 999.382,451.5 998.243,453.105 C985.008,471.756 969.732,488.663 954.211,505.407 C947.579,512.562 938.849,513.612 930.392,515.476 C915.585,518.74 900.401,519.608 885.403,521.683 C883.989,521.879 883.141,521.532 882.086,520.331 C872.964,509.947 850.226,512.879 844.235,525.245 C843.32,527.134 842.24,528.111 840.396,528.578 C840.235,528.619 840.05,528.644 839.925,528.739 C830.669,535.769 819.896,533.66 809.478,533.912 C804.496,534.033 799.414,534.2 794.59,535.288 C790.778,536.149 789.374,534.746 787.77,531.797 C774.216,506.888 765.147,480.777 765.707,451.972 C765.814,446.461 766.581,441.044 767.331,435.601 C767.696,432.947 770.064,429.33 765.95,427.752 C761.931,426.211 761.071,430.119 759.634,432.548 C755.246,439.963 750.954,447.435 746.032,455.903 C744.508,438.912 748.246,424.182 755.323,409.839 C759.47,412.977 763.324,416.123 767.411,418.927 C772.87,422.673 778.787,425.223 785.652,423.948 C787.753,423.558 788.411,424.193 788.897,426.328 C791.004,435.578 795.595,443.628 801.562,450.926 C802.821,452.464 804.063,454.254 806.449,453.72 C808.903,453.171 808.896,451.003 809.417,449.056 C811.669,440.655 817.266,434.236 822.465,427.081 C834.295,447.084 854.182,451.334 874.431,454.732 C882.467,456.08 890.629,456.679 898.658,458.06 C902.461,458.714 904.343,457.285 905.486,454.078 C908.18,446.514 908.45,438.721 907.052,430.927 C906.434,427.476 907.164,426.776 910.615,427.134 C918.281,427.93 925.896,426.717 933.479,425.641 C935.134,425.407 936.648,425.204 938.312,425.85 C959.25,433.982 977.376,428.419 993.794,414.421 C1018.89,393.02 1035.02,366.036 1043.76,334.425 C1044.07,333.303 1044.52,332.207 1044.71,331.067 C1045.14,328.451 1045.98,327.912 1048.57,329.338 C1058.77,334.943 1068.89,340.67 1078.63,347.045 C1078.74,348.046 1078.07,348.366 1077.29,348.598 C1072.79,348.347 1068.59,346.422 1064.07,346.225 C1060.88,346.086 1058.59,346.89 1057.97,350.542 C1054.83,368.928 1048.1,385.723 1035.88,400.092 C1033.95,402.357 1032.4,404.976 1030.89,407.558 C1028.64,411.373 1029.51,413.127 1033.88,413.473 C1046.99,414.512 1059.14,411.778 1069.46,403.299 C1078.64,395.756 1085.66,386.633 1088.51,374.758 C1090.11,368.117 1089.58,361.88 1085.68,356.106 C1085.03,355.142 1084.47,354.108 1084.35,352.907 C1084.49,352.068 1084.77,351.393 1085.84,351.782" fill="#FEFEFE"/>
    <path d="M1081.27,447.55 C1086.88,452.088 1091.05,456.402 1093.98,462.303 C1110.97,496.529 1124.06,532.243 1135.54,568.605 C1136.2,570.678 1136.21,572.23 1134.37,573.874 C1115.5,590.723 1097.29,608.317 1077.2,623.773 C1071.87,627.879 1066.13,629.987 1059.21,629.831 C1032.08,629.222 1004.94,629.085 977.806,628.537 C953.349,628.042 928.898,627.255 904.446,626.567 C896.465,626.342 888.488,625.844 880.508,625.809 C875.085,625.785 878.165,621.457 877.06,619.331 C875.88,617.059 878.407,617.096 880.032,616.816 C886.445,615.712 893.684,615.146 898.293,610.8 C905.409,604.091 913.715,605.724 921.708,605.067 C935.585,603.925 949.07,601.537 961.65,595.28 C962.989,594.614 964.275,593.839 965.566,593.082 C967.682,591.84 969.787,590.418 968.009,587.608 C966.364,585.008 964.198,585.747 961.941,587.054 C944.728,597.027 925.664,598.263 906.438,598.775 C904.103,598.838 903.211,597.935 902.894,595.709 C899.926,574.881 893.416,554.954 887.294,534.932 C885.314,528.458 885.264,528.647 892.359,527.811 C910.343,525.69 928.495,524.387 945.856,518.758 C951.003,517.089 955.538,515.036 959.714,510.272 C973.399,494.665 987.499,479.424 1000.5,462.249 C1003.62,469.662 1006.75,476.203 1011.75,481.699 C1022.77,493.817 1037.26,498.716 1052.65,501.813 C1058.03,502.895 1063.45,503.756 1068.83,504.847 C1071.23,505.335 1073.68,505.743 1075.15,508.279 C1075.92,509.617 1077.58,510.104 1079.14,509.435 C1081.02,508.634 1081.2,506.887 1080.92,505.192 C1080.7,503.911 1080.15,502.67 1079.64,501.458 C1075.24,491.048 1073.7,480.419 1076.83,469.331 C1078.77,462.48 1080.71,455.618 1081.27,447.55" fill="#DF1F00"/>
    <path d="M684.967,629.748 C719.884,629.409 752.852,629.637 785.813,630.332 C825.927,631.177 866.035,632.295 906.146,633.297 C946.085,634.295 986.024,635.325 1025.96,636.276 C1036.95,636.538 1047.95,636.316 1058.93,636.784 C1067.74,637.16 1075.11,634.374 1082,629.057 C1097.17,617.328 1111.26,604.36 1125.47,591.52 C1146.84,572.206 1168.29,553.009 1190.25,534.339 C1208.31,518.983 1228.54,511.443 1252,509.807 C1283.42,507.616 1314.84,506.084 1346.31,506.387 C1391.27,506.82 1436.18,508.516 1480.65,515.919 C1495.75,518.433 1510.7,521.591 1524.9,527.666 C1527.97,528.982 1528.85,530.25 1527.41,533.487 C1524.11,540.926 1521.45,548.638 1517.11,555.609 C1515.17,558.718 1512.88,560.203 1509.01,560.103 C1490.65,559.63 1472.55,556.764 1454.41,554.377 C1414.81,549.169 1375.32,543.192 1335.63,538.704 C1309.16,535.711 1282.69,533.06 1256,532.933 C1241.26,532.863 1228.48,536.98 1216.72,546.128 C1191.97,565.384 1168.86,586.467 1145.97,607.83 C1130.03,622.716 1114.06,637.589 1098.55,652.919 C1093.86,657.553 1088.77,659.319 1082.63,659.761 C1066.03,660.958 1049.4,661.636 1032.76,662.041 C979.634,663.334 926.501,663.583 873.367,663.395 C834.225,663.257 795.08,663.022 755.945,662.347 C727.653,661.859 699.342,661.712 671.08,659.97 C662.006,659.41 654.136,653.691 651.083,645.165 C648.385,637.631 652.031,631.768 659.979,630.946 C668.932,630.021 677.919,629.76 684.967,629.748" fill="#F2D243"/>
    <path d="M1392.71,718.623 C1388.21,723.34 1383.75,728.104 1379.18,732.762 C1374.98,737.047 1369.74,739.432 1363.97,740.884 C1345.98,745.41 1327.6,747.266 1309.2,748.846 C1254.09,753.575 1198.85,755.015 1143.58,756.127 C1085.44,757.296 1027.3,757.026 969.157,756.614 C935.694,756.376 902.229,755.45 868.78,754.379 C826.694,753.031 784.6,751.64 742.655,747.598 C741.025,746.942 739.184,747.855 737.593,746.913 C727.161,747.069 717.04,744.859 706.904,742.819 C704.585,742.353 702.785,740.891 701.174,739.162 C695.396,732.961 690.746,726.041 687.562,718.165 C687.471,715.742 689.424,715.726 690.96,715.447 C693.259,715.03 695.611,715.202 697.942,715.202 C926.136,715.199 1154.33,715.198 1382.52,715.203 C1384.85,715.204 1387.23,714.952 1389.5,715.487 C1391.04,715.851 1393.57,715.629 1392.71,718.623" fill="#F2D03F"/>
    <path d="M1435.69,663.549 C1427.44,674.681 1419.19,685.814 1410.95,696.946 C1408.69,698.166 1406.27,698.616 1403.72,698.528 C1402.39,698.483 1401.05,698.529 1399.72,698.529 C1162.88,698.529 926.044,698.532 689.205,698.498 C685.609,698.497 681.823,699.29 678.544,696.928 C674.748,688.551 672.809,679.625 670.759,670.728 C670.108,667.903 670.908,666.85 673.971,667.034 C698.412,668.499 722.893,668.543 747.362,669.106 C780.842,669.877 814.329,669.581 847.805,670.124 C880.629,670.656 913.448,670.393 946.268,670.388 C971.583,670.384 996.9,669.905 1022.21,669.412 C1039.02,669.086 1055.81,668.363 1072.61,667.818 C1074.89,666.772 1077.37,667.868 1079.67,667.13 C1083.65,666.31 1087.74,666.892 1091.77,665.795 C1095.26,664.844 1097.85,662.777 1100.64,660.83 C1102.01,660.071 1103.49,660.051 1105.01,660.056 C1211.82,660.395 1318.63,660.111 1425.45,660.211 C1427.94,660.213 1430.47,659.988 1432.92,660.537 C1434.4,660.868 1436.5,660.971 1435.69,663.549" fill="#F1CB37"/>
    <path d="M1435.69,663.549 C1434.55,660.563 1431.96,661.93 1430.07,661.928 C1360.83,661.851 1291.58,661.864 1222.34,661.864 C1184.55,661.864 1146.77,661.849 1108.98,661.893 C1106.13,661.896 1103.36,661.696 1100.64,660.83 C1117.67,644.601 1134.68,628.343 1151.76,612.16 C1156.92,607.264 1162.29,602.577 1167.56,597.795 C1169.38,596.896 1171.25,596.22 1173.33,596.523 C1181.62,597.735 1189.97,597.174 1198.29,597.178 C1287.78,597.22 1377.28,597.204 1466.77,597.208 C1469.1,597.208 1471.46,597.017 1473.76,597.381 C1475.42,597.644 1477.66,597.327 1477.82,600.024 C1465.76,620.163 1452.96,639.822 1439.4,658.984 C1438.27,660.58 1436.93,662.031 1435.69,663.549" fill="#EEBF2A"/>
    <path d="M784.768,377.671 C780.889,379.615 779.48,377.724 779.94,374.153 C782.14,357.083 780.542,339.899 781.614,322.8 C781.715,321.184 782.104,319.994 783.596,319.119 C784.724,318.457 785.966,317.61 786.582,316.52 C789.224,311.843 792.613,311.812 797.805,312.393 C812.346,314.02 829.573,295.398 824.142,282.389 C823.088,279.864 824.161,279.197 826.515,278.987 C845.137,277.328 863.751,277.568 882.376,278.966 C884.96,279.16 885.103,279.976 883.956,282.009 C882.4,284.766 881.192,287.705 880.738,290.869 C879.152,301.925 886.999,311.603 899.383,311.968 C906.416,312.175 911.118,313.457 916.341,318.974 C923.767,326.816 934.183,327.183 944.111,322.57 C946.671,321.38 947.678,321.511 949.602,323.706 C957.811,333.07 977.581,332.253 984.747,322.198 C989.097,316.094 987.853,309.234 985.731,302.561 C986.912,301.2 987.909,302.513 988.82,302.835 C1004.8,308.486 1020.36,315.161 1035.55,322.686 C1037.26,323.536 1039.5,323.884 1038.64,326.795 C1032.39,348.111 1025.08,369.033 1010.73,386.432 C1002.71,396.153 994.402,405.781 983.925,413.153 C975.409,419.146 966.201,422.937 955.611,422.669 C954.846,422.649 953.938,422.829 953.208,421.611 C959.152,419.618 965.07,417.835 970.827,415.634 C975.001,414.039 979.017,411.996 983.003,409.957 C986.607,408.114 986.784,405.583 983.86,402.863 C981.797,400.944 979.654,399.11 977.547,397.238 C976.756,395.204 978.212,393.741 978.938,392.146 C980.954,387.715 980.245,383.68 977.271,380.026 C974.396,376.493 970.914,373.677 966.567,372.11 C952.044,366.873 937.914,366.992 924.442,375.355 C921.633,377.099 918.721,377.956 915.448,376.98 C897.484,376.314 879.59,376.86 861.89,380.323 C860.385,380.618 859.405,380.222 858.26,379.418 C856.904,378.467 855.381,378.583 854.139,379.702 C852.927,380.794 852.336,382.318 853.313,383.73 C856.415,388.217 853.5,390.889 850.408,393.284 C843.131,398.922 834.667,401.766 825.631,402.727 C820.384,403.284 816.781,400.342 814.665,395.731 C812.552,391.128 812.673,386.561 816.599,382.955 C819.08,380.676 820.117,378.634 817.712,375.812 C814.27,375.56 811.573,374.235 809.366,371.35 C807.4,368.78 804.302,367.676 801.045,367.259 C799.267,367.032 797.305,367.182 796.137,365.351 C795.511,360.283 798.232,355.492 802.601,353.739 C804.789,352.861 806.462,353.575 808.052,355.019 C809.554,356.383 810.594,358.083 811.686,359.759 C812.741,361.379 814.107,362.773 816.203,361.899 C818.533,360.928 818.445,358.829 817.957,356.773 C815.635,346.988 803.727,342.738 795.668,348.835 C792.068,351.558 790.087,355.377 788.741,359.571 C787.861,362.312 788.738,364.465 791.093,366.058 C793.783,369.504 791.154,375.588 786.2,377.326 C785.751,377.483 785.223,377.452 784.768,377.671" fill="#FFEBD3"/>
    <path d="M325.472,676.746 C342.445,682.484 358.466,687.904 374.49,693.316 C378.27,694.593 382.049,695.877 385.848,697.094 C388.117,697.821 389.438,698.667 388.851,701.648 C382.23,735.309 374.664,768.664 360.221,800.069 C358.114,804.65 355.272,806.604 350.475,806.582 C336.986,806.522 323.496,806.561 309.961,806.561 C310.526,805.257 311.991,805.332 313.087,804.942 C315.653,804.029 316.541,802.243 315.579,799.872 C314.632,797.537 312.594,797.577 310.505,798.36 C300.381,802.152 290.274,805.991 280.125,809.716 C257.647,817.966 235.2,826.336 211.68,831.271 C205.978,832.467 200.216,833.43 194.349,832.828 C189.636,832.344 188.665,830.531 190.514,826.125 C191.505,823.764 193.127,821.908 194.881,820.107 C222.891,791.341 252.421,764.118 280.667,735.593 C282.781,733.458 287.33,731.136 283.752,727.621 C280.306,724.237 277.899,728.556 275.677,730.716 C256.686,749.17 237.745,767.677 218.829,786.208 C217.261,787.745 216.24,788.821 214.045,786.726 C206.445,779.472 200.955,770.842 196.518,761.426 C195.588,759.453 196.15,758.813 198.141,758.551 C205.432,757.592 212.458,755.602 219.258,752.826 C220.941,752.139 222.113,752.689 223.208,753.921 C224.756,755.663 226.266,757.448 227.93,759.074 C230.727,761.808 233.556,760.902 234.46,757.063 C234.536,756.742 234.622,756.388 234.564,756.075 C232.892,747 238.449,743.028 245.349,738.826 C265.37,726.634 282.943,711.3 298.878,694.149 C301.723,691.087 304.434,690.224 308.415,690.934 C313.968,691.923 319.614,692.519 325.246,692.893 C330.479,693.241 331.593,691.278 329.308,686.58 C328.581,685.086 327.878,683.576 327.263,682.034 C326.715,680.657 326.304,679.226 325.472,676.746" fill="#C49040"/>
    <path d="M515.477,717.496 C502.892,710.649 490.78,704.064 478.676,697.465 C477.071,696.59 475.546,695.425 473.561,696.077 C472.352,696.474 471.686,697.376 471.523,698.659 C471.218,701.062 472.618,702.245 474.531,703.279 C485.804,709.376 497.085,715.46 508.283,721.692 C533.016,735.458 557.806,749.142 580.269,766.554 C585.023,770.24 589.52,774.234 593.074,779.102 C595.95,783.039 595.207,784.974 590.539,786.298 C588.818,786.786 586.919,786.91 585.119,786.822 C560.202,785.591 535.362,783.327 510.505,781.258 C494.096,779.892 477.655,778.887 461.224,777.778 C458.725,777.61 455.721,777.378 455.797,781.093 C455.866,784.453 458.598,784.761 461.241,784.77 C464.371,784.78 467.5,784.772 470.826,785.406 C465.729,790.328 460.047,794.091 453.25,795.685 C437.025,799.489 420.425,800.814 403.92,802.745 C402.989,802.854 402.021,802.64 400.661,802.549 C407.672,782.946 412.064,762.997 416.188,742.99 C421.357,717.918 425.811,692.713 429.707,667.414 C430.239,663.957 431.309,661.959 435.219,661.175 C450.542,658.104 465.662,654.128 480.683,649.813 C483.27,649.07 485.394,649.511 487.848,650.343 C505.405,656.297 512.386,670.161 515.517,686.934 C517.365,696.836 517.492,706.765 515.477,717.496" fill="#C48F40"/>
    <path d="M1424.9,67.954 C1409.58,90.343 1396.21,113.914 1382.7,137.405 C1381.89,138.817 1381.07,140.224 1380.32,141.514 C1372.33,137.731 1368.97,131.775 1368.13,122.812 C1365.47,94.329 1364.26,66.026 1371.69,38.033 C1374.32,28.146 1378.28,18.879 1385.11,11.132 C1386.81,11.177 1386.81,12.673 1387.33,13.579 C1397.37,31.035 1414.56,38.454 1433.98,33.602 C1440.14,32.062 1446.3,31.047 1452.72,31.642 C1461.29,32.437 1466.76,36.957 1469.9,44.758 C1472.87,52.111 1473.34,59.967 1474.71,67.645 C1475.49,72.061 1476.12,76.489 1478.54,80.452 C1480.51,83.697 1483.26,85.746 1486.99,85.802 C1489.57,85.841 1490.76,86.807 1491.58,89.116 C1493.51,94.51 1497.29,98.831 1500.31,103.597 C1504.58,110.35 1504.92,114.584 1499.54,120.308 C1491.67,128.677 1491.41,136.86 1498.27,147.397 C1500.08,150.167 1501.59,153.163 1502.93,156.191 C1505.67,162.367 1503.86,167.802 1500.01,172.951 C1498.2,175.36 1495.92,174.671 1493.68,174.569 C1479.27,173.917 1465.52,169.766 1451.62,166.472 C1445.46,165.011 1439.24,163.95 1432.98,163.033 C1431.87,162.871 1430.32,163.429 1429.74,162.274 C1426.6,155.999 1420.55,153.456 1414.32,150.462 C1433.38,140.909 1453.76,134.694 1469.05,119.37 C1468.55,119.084 1468.15,118.76 1468.07,118.824 C1455.94,128.862 1441.59,134.567 1427.04,139.874 C1424.23,140.898 1421.13,141.472 1418.68,143.052 C1408.22,149.795 1397.41,147.109 1386.07,144.664 C1398.53,118.927 1411.67,93.686 1425.8,68.961 C1426.49,65.913 1428.64,63.747 1430.38,61.332 C1428.34,63.36 1427.35,66.261 1424.9,67.954" fill="#FEFEFE"/>
    <path d="M678.544,696.928 C680.543,696.907 682.543,696.866 684.542,696.866 C924.677,696.863 1164.81,696.863 1404.95,696.867 C1406.95,696.867 1408.95,696.919 1410.95,696.946 C1405.35,704.58 1399.63,712.103 1392.71,718.623 C1392.49,717.483 1391.8,716.904 1390.64,716.893 C1389.31,716.881 1387.98,716.865 1386.64,716.865 C1155.8,716.864 924.948,716.861 694.1,716.909 C691.907,716.909 689.379,715.91 687.562,718.165 C683.578,711.501 680.524,704.443 678.544,696.928" fill="#F1CC38"/>
    <path d="M1477.82,600.024 C1476.09,598.035 1473.76,598.903 1471.71,598.902 C1375.45,598.858 1279.18,598.835 1182.92,598.943 C1177.73,598.948 1172.73,597.447 1167.56,597.795 C1186.98,579.552 1206.83,561.838 1228.74,546.56 C1238.75,539.577 1250.19,539.839 1261.43,540.025 C1296.43,540.604 1331.09,545.178 1365.77,549.483 C1408.2,554.748 1450.39,561.809 1492.95,566.039 C1494.97,566.24 1497.74,565.733 1495.68,569.49 C1490.01,579.835 1484.57,590.312 1477.82,600.024" fill="#EAAE1B"/>
    <path d="M1467.42,794.923 C1461.38,801.099 1455.92,806.671 1450.48,812.262 C1448.32,814.479 1445.61,814.721 1442.7,814.857 C1419.74,815.936 1396.75,815.78 1373.78,815.973 C1156.5,817.796 939.223,816.444 721.947,816.866 C714.282,816.881 706.608,816.723 698.957,817.062 C695.215,817.227 692.745,815.851 690.325,813.235 C681.046,803.205 672.899,785.313 671.176,770.306 C684.07,785.44 700.269,794.303 719.273,798.147 C723.492,799 727.823,799.594 732.119,799.713 C744.428,800.054 756.716,800.82 769.047,800.815 C982.845,800.733 1196.64,800.796 1410.44,800.684 C1428.57,800.674 1446.61,798.745 1464.44,795.24 C1465.24,795.083 1466.06,795.063 1467.42,794.923" fill="#AB8B5A"/>
    <path d="M1117.07,365.139 C1103.3,354.821 1089.83,345.425 1075.81,336.83 C1046.39,318.793 1015.34,304.22 982.668,293.127 C980.234,292.301 978.287,291.068 976.34,289.415 C958.712,274.454 938.637,265.374 915.232,264.732 C907.381,264.517 900.055,266.618 893.644,271.241 C891.688,272.653 889.848,272.787 887.608,272.56 C865.691,270.342 843.765,270.042 821.851,272.596 C819.949,272.818 818.399,272.734 816.803,271.374 C809.512,265.161 801.181,264.549 792.411,267.402 C783.056,270.445 775.821,276.33 770.256,284.386 C769.351,285.697 769.024,287.543 766.431,288.364 C770.931,274.014 776.961,261.4 790.189,253.723 C803.524,245.985 818.282,242.654 833.367,240.899 C889.347,234.384 943.458,243.653 996.396,261.265 C1039.98,275.764 1080.13,296.807 1115.76,326.081 C1117.81,327.767 1119.31,329.557 1119.6,332.182 C1120.79,343.019 1120.04,353.71 1117.07,365.139" fill="#FEFEFE"/>
    <path d="M467.108,306.073 C467.699,304.185 468.072,302.994 468.48,301.69 C467.999,301.747 467.574,301.678 467.48,301.824 C461.32,311.342 454.984,320.793 447.035,328.885 C428.276,347.982 405.867,360.753 379.428,365.794 C364.128,368.711 348.636,370.092 333.067,371.041 C321.204,371.765 309.279,372.981 297.782,376.396 C294.653,377.325 292.347,376.93 289.653,374.93 C283.911,370.666 277.343,367.872 269.333,365.871 C275.329,361.265 281.405,358.926 287.525,356.878 C292.378,355.255 297.462,354.319 302.445,353.084 C302.766,353.004 303.134,352.867 303.426,352.949 C316.019,356.488 324.767,347.525 334.777,343.032 C342.194,339.702 348.369,334.161 354.799,329.178 C355.788,328.411 356.467,327.038 358.16,327.562 C363.347,329.17 364.463,325.434 364.577,321.88 C365.072,306.436 365.037,291.017 362.255,275.697 C360.394,265.447 358.116,255.198 358.706,244.648 C358.78,243.323 358.741,241.971 359.008,240.684 C359.197,239.768 359.491,238.615 360.627,238.377 C361.853,238.121 362.26,239.226 362.818,240.029 C368.323,247.954 371.437,256.953 373.479,266.191 C376.014,277.66 378.342,289.276 375.87,301.158 C375.434,303.251 376.534,304.856 378.4,305.522 C380.608,306.311 381.712,304.627 382.582,302.929 C382.804,302.496 382.953,301.969 382.954,301.485 C382.979,290.149 390.318,281.434 393.745,271.319 C398.382,257.637 402.994,243.946 407.806,230.326 C408.792,227.535 409.467,222.921 413.094,223.582 C416.234,224.155 414.72,228.509 414.658,231.121 C414.324,245.064 410.206,258.232 405.715,271.258 C398.746,291.473 389.845,310.758 376.688,327.787 C372.214,333.578 367.107,338.864 360.804,342.784 C358.658,344.118 356.684,345.779 358.224,348.358 C359.735,350.89 362.317,350.317 364.3,348.735 C368.151,345.664 372.787,345.414 377.312,344.432 C390.041,341.668 401.249,335.665 411.442,327.644 C428.219,314.442 440.108,297.281 450.599,279.051 C463.904,255.931 473.304,230.99 483.963,206.637 C485.473,203.188 487.362,197.35 490.211,197.945 C494.016,198.739 493.449,204.66 493.608,208.457 C494.603,232.285 488.666,254.811 480.208,276.822 C479.416,278.883 477.947,280.147 475.929,280.654 C473.605,281.238 472.183,282.482 472.954,284.878 C473.704,287.205 475.317,287.994 478.039,287.339 C488.396,284.848 495.302,277.779 501.647,269.978 C508.184,261.94 512.739,252.645 517.801,243.681 C519.44,240.779 521.124,237.942 523.486,235.53 C525.54,233.431 526.798,234.007 527.963,236.393 C528.915,238.343 528.648,240.164 528.156,242.184 C524.935,255.417 518.061,266.76 509.522,277.05 C498.414,290.435 485.289,301.186 467.108,306.073" fill="#644A34"/>
    <path d="M227.842,748.36 C214.388,737.215 200.841,727.13 193.186,711.492 C191.999,709.066 190.284,707.581 187.674,708.94 C185.228,710.214 185.583,712.468 186.776,714.544 C188.324,717.24 187.9,719.985 187.168,722.767 C185.936,727.443 184.114,731.895 182.156,736.307 C177.21,747.452 171.682,758.38 169.337,771.22 C163.099,763.926 160.639,756.022 160.241,747.379 C159.595,733.324 165.136,720.726 169.752,707.925 C170.421,706.069 172.365,706.119 173.859,705.563 C193.191,698.366 212.312,690.744 229.638,679.268 C257.272,660.966 277.79,636.02 295.637,608.61 C301.516,599.581 306.977,590.281 313.018,580.474 C316.189,587.64 319.8,594.04 324.761,599.554 C325.353,600.211 325.441,600.898 325.333,601.817 C324.237,611.2 322.15,620.314 317.557,629.005 C317.557,626.142 317.513,623.278 317.569,620.416 C317.623,617.701 316.726,615.689 313.692,615.82 C310.749,615.947 310.537,618.245 310.559,620.543 C310.755,641.798 313.585,662.656 319.965,682.978 C320.155,683.585 320.394,684.176 320.833,685.391 C309.983,684.408 299.69,683.161 289.807,679.617 C288.303,679.077 286.921,678.305 286.376,676.352 C285.758,674.138 283.895,673.177 281.636,674.01 C279.519,674.792 278.976,676.948 279.717,678.584 C281.318,682.116 279.357,683.892 277.195,686.078 C270.042,693.31 262.516,700.133 254.852,706.801 C241.999,717.984 230.192,729.821 227.842,748.36" fill="#FEFEFE"/>
    <path d="M804.051,442.348 C799.854,436.321 796.971,430.446 795.554,423.86 C795.077,421.641 795.244,419.614 796.26,417.569 C797.024,416.028 796.471,414.612 795.186,413.57 C793.866,412.499 792.257,412.429 791.05,413.501 C783.463,420.233 776.65,416.841 769.907,412.039 C768.958,411.363 768.018,410.675 767.095,409.965 C758.059,403.015 758.058,403.011 766.669,395.132 C777.103,385.585 788.95,381.65 802.942,385.815 C805.506,386.578 806.401,387.545 806.451,390.557 C806.667,403.538 816.834,411.502 829.609,409.316 C837.753,407.922 845.326,405.115 852.297,400.716 C855.561,398.656 859.22,396.342 860.125,392.627 C861.327,387.692 864.421,386.812 868.559,386.224 C898.62,381.955 928.279,382.196 956.926,393.902 C963.711,396.675 970.044,400.302 975.923,405.394 C971.567,408.258 966.866,409.649 962.247,411.173 C946.711,416.299 930.888,420.03 914.438,420.325 C910.83,420.389 907.008,420.62 903.917,418.145 C902.305,416.854 900.726,416.251 898.976,417.524 C897.189,418.824 897.44,420.668 898.036,422.511 C900.101,428.906 901.118,435.456 900.696,442.176 C900.561,444.321 900.043,446.439 899.782,448.579 C899.584,450.193 898.879,450.956 897.157,450.697 C880.591,448.199 863.639,447.495 848.025,440.497 C838.453,436.208 830.764,430.033 827.37,419.499 C825.967,415.144 823.083,414.882 820.08,418.673 C814.299,425.974 808.552,433.313 804.051,442.348" fill="#FEFEFE"/>
    <path d="M211.912,364.702 C215.997,356.997 222.091,351.828 227.884,346.483 C230.911,343.689 234.556,341.568 237.902,339.116 C239.964,337.605 241.875,336.49 244.737,337.599 C247.468,338.657 248.895,336.425 250.053,334.251 C253.345,328.067 255.776,321.533 257.897,314.852 C259.309,314.882 259.32,316.105 259.696,316.844 C260.735,318.89 262.495,319.29 264.335,318.665 C266.444,317.948 266.515,316.266 266.036,314.184 C264.082,305.684 260.489,297.806 256.723,290.053 C250.907,278.079 244.561,266.364 238.599,254.459 C237.047,251.359 235.96,248.002 234.92,244.681 C234.504,243.35 234.031,241.358 235.414,240.52 C236.81,239.674 238.253,241.031 239.311,242.033 C245.235,247.64 251.009,253.333 255.142,260.54 C258.221,265.908 261.081,271.317 262.694,277.303 C263.413,279.973 264.852,281.441 267.7,280.804 C270.988,280.069 269.984,277.238 269.53,275.507 C268.655,272.164 267.221,268.922 265.666,265.814 C263.681,261.846 262.799,257.67 262.775,253.33 C262.701,240.36 260.206,227.641 258.999,214.792 C258.456,209.009 258.77,203.143 258.742,197.314 C258.737,196.187 258.661,194.738 260.194,194.584 C261.375,194.465 261.625,195.789 262.103,196.623 C267.495,206.02 269.468,216.556 271.574,226.926 C275.386,245.702 276.481,264.756 275.724,283.906 C275.281,295.124 273.324,305.979 268.139,316.089 C267.074,318.166 265.044,321.137 267.465,322.529 C270.118,324.055 273.27,322.872 274.574,319.254 C275.394,316.98 277.392,315.548 279.12,314.019 C295.67,299.369 303.839,280.732 305.827,258.976 C307.633,239.203 306.721,219.612 304.13,199.921 C302.19,185.175 298.772,170.508 299.697,155.451 C299.889,152.327 299.439,148.258 302.831,147.303 C305.958,146.423 307.849,150.143 309.432,152.489 C317.204,164.006 320.657,177.234 323.612,190.55 C326.712,204.518 327.64,218.74 327.782,233.039 C327.822,237.079 326.579,240.916 326.674,244.922 C326.728,247.224 324.836,247.916 323.135,248.593 C321.44,249.266 319.572,249.574 317.981,250.418 C316.497,251.206 315.208,252.537 316.198,254.498 C317.363,256.807 319.476,257.318 321.741,256.657 C329.982,254.251 336.845,249.753 341.795,242.657 C348.354,233.255 351.486,222.292 355.604,211.783 C355.785,211.32 355.795,210.759 356.063,210.366 C357.384,208.433 357.291,204.873 360.561,205.122 C363.908,205.377 365.812,207.947 366.297,211.171 C367.192,217.127 367.151,223.095 365.512,228.952 C365.164,230.196 364.725,231.091 362.823,231.113 C355.331,231.195 351.267,234.137 352.011,241.225 C353.129,251.878 347.122,256.878 339.541,261.694 C334.465,264.92 329.273,267.816 323.68,270.026 C320.642,271.227 317.974,272.403 319.361,276.917 C320.167,279.543 317.905,282.226 316.873,284.834 C308.674,305.542 295.1,321.957 276.983,334.733 C265.59,342.767 254.016,350.56 243.825,360.168 C242.763,361.17 241.406,362.384 240.092,362.508 C230.929,363.369 221.741,363.969 211.912,364.702" fill="#644A34"/>
    <path d="M1440.08,820.197 C1431.65,825.827 1423.95,830.145 1414.72,830.885 C1412.9,831.032 1411.06,830.968 1409.22,830.968 C1185.24,830.971 961.248,830.965 737.26,830.994 C727.721,830.995 718.267,830.73 709.339,826.831 C706.851,825.745 704.142,824.962 701.693,822.029 C947.998,821.193 1193.44,823.216 1440.08,820.197" fill="#AB8B5A"/>
    <path d="M423.395,663.918 C420.763,679.141 418.369,693.707 415.708,708.223 C410.945,734.215 406.109,760.198 398.72,785.612 C397.33,790.394 395.674,795.113 393.876,799.758 C389.48,811.114 372.787,818.04 361.022,813.306 C375.876,787.255 383.468,758.665 390.149,729.791 C394.533,710.848 398.159,691.742 400.757,672.464 C401.235,668.912 402.642,667.237 406.298,666.809 C411.723,666.173 417.088,665.014 423.395,663.918" fill="#38BF2E"/>
    <path d="M920.603,271.742 C938.018,273.74 956.5,281.181 972.127,295.186 C974.592,297.396 976.559,300.128 978.089,303.134 C982.209,311.229 981.161,317.917 975.242,320.927 C965.923,325.666 956.61,323.321 952.586,315.223 C950.272,310.564 948.768,310.262 944.776,313.652 C934.445,322.423 920.654,318.552 916.304,305.621 C915.122,302.104 913.037,301.992 910.115,303.496 C904.49,306.392 898.845,306.014 893.421,302.975 C887.921,299.894 886.357,295.402 888.447,289.458 C892.56,277.759 902.707,271.501 920.603,271.742" fill="#FEFEFE"/>
    <path d="M849.557,539.524 C849.557,538.525 849.535,537.525 849.561,536.526 C849.692,531.51 849.46,526.294 854.95,523.554 C861.446,520.311 868.094,520.466 874.764,523.01 C876.371,523.623 876.653,525.22 877.116,526.629 C884.745,549.829 892.207,573.075 896.197,597.257 C897.345,604.217 897.176,604.499 890.361,606.88 C884.053,609.085 877.628,610.626 870.845,610.262 C866.171,610.01 863.243,607.866 861.517,603.436 C856.473,590.489 853.869,576.966 851.759,563.329 C850.54,555.449 849.706,547.513 849.557,539.524" fill="#FEFEFE"/>
    <path d="M1413.73,191.091 C1413.98,194.795 1411.71,195.322 1408.89,194.743 C1404.15,193.769 1399.7,191.896 1395.41,189.714 C1376.81,180.238 1359.72,168.506 1344.15,154.612 C1336.25,147.564 1336.25,144.384 1343.54,136.662 C1344.89,135.224 1346.5,134.013 1348.02,132.736 C1351.14,130.114 1353.86,130.28 1357.22,132.946 C1372.6,145.134 1388.29,156.941 1401.67,171.426 C1405.39,175.461 1408.91,179.681 1411.51,184.557 C1412.59,186.596 1413.62,188.71 1413.73,191.091" fill="#FEFEFE"/>
    <path d="M398.729,636.414 C397.99,642.259 397.23,647.515 396.696,652.794 C396.411,655.601 394.459,655.417 392.485,655.925 C373.874,660.714 356.028,656.492 338.2,651.605 C332.223,649.966 332.163,650.083 334.802,644.557 C337.96,637.944 340.525,631.131 342.157,623.97 C342.538,622.3 342.55,620.481 345.579,621.509 C361.647,626.963 378.271,630.129 395.006,632.665 C397.928,633.108 399.345,633.928 398.729,636.414" fill="#C48F40"/>
    <path d="M1188.1,157.553 C1199.09,157.529 1209.1,165.507 1211.62,176.296 C1214.32,187.846 1208.78,199.805 1198.43,204.762 C1188.28,209.625 1176.48,206.832 1169.22,197.862 C1167.29,195.468 1165.69,193.182 1170.22,191.844 C1170.84,191.661 1171.4,191.241 1171.95,190.876 C1175,188.863 1178.72,187.058 1178.01,182.611 C1177.34,178.413 1173.39,178.5 1170.2,177.705 C1164.46,176.268 1163.99,175.314 1166.92,170.257 C1171.61,162.162 1178.62,157.759 1188.1,157.553" fill="#FEFEFE"/>
    <path d="M775.932,618.541 C793.087,613.416 806.265,604.434 818.68,594.286 C822.349,591.287 824.466,590.601 828.344,594.348 C840.552,606.145 854.239,616.13 869.568,624.835 C860.635,624.835 852.475,624.953 844.32,624.81 C828.351,624.531 812.383,624.154 796.417,623.718 C789.659,623.534 783.69,620.26 775.932,618.541" fill="#DF1F00"/>
    <path d="M1110.26,251.402 C1107.09,236.113 1104.1,221.703 1101.05,206.993 C1120.68,207.82 1139.45,203.921 1157.72,197.356 C1159.56,196.696 1160.34,197.082 1161.24,198.687 C1162.37,200.699 1163.88,202.502 1165.41,204.661 C1144.72,216.975 1126.45,232.279 1110.26,251.402" fill="#FEFEFE"/>
    <path d="M1352.83,772.316 C1352.83,778.307 1352.75,784.301 1352.87,790.29 C1352.92,792.843 1352.05,793.828 1349.42,793.795 C1340.6,793.683 1331.78,793.701 1322.96,793.784 C1320.55,793.807 1319.79,792.825 1319.81,790.518 C1319.88,779.7 1319.88,768.881 1319.8,758.064 C1319.78,755.759 1320.59,754.964 1322.92,754.684 C1331.81,753.612 1340.69,752.353 1349.54,751.009 C1352.48,750.565 1352.9,751.933 1352.86,754.341 C1352.77,760.331 1352.83,766.324 1352.83,772.316" fill="#AB8A5A"/>
    <path d="M206.649,789.659 C204.393,790.075 202.668,790.614 200.924,790.68 C183.325,791.349 165.719,792.961 148.123,790.792 C144.519,790.348 140.886,789.64 137.44,788.519 C133.073,787.1 132.706,785.17 135.692,781.546 C139.203,777.286 144.385,775.509 148.962,772.858 C151.833,771.195 155.021,768.524 157.851,768.772 C160.807,769.031 161.545,773.764 163.841,776.092 C165.709,777.986 167.494,779.961 169.357,781.859 C170.688,783.213 172.373,783.287 173.999,782.661 C175.667,782.02 175.831,780.444 175.791,778.886 C175.625,772.449 177.553,766.429 179.568,760.449 C180.047,759.027 180.256,756.606 182.494,757.123 C184.579,757.606 187.265,757.365 188.32,760.182 C192.383,771.033 198.859,780.432 206.649,789.659" fill="#9E7031"/>
    <path d="M769.556,307.734 C769.691,292.269 782.647,276.313 797.832,273.196 C804.13,271.903 809.698,273.522 814.039,278.538 C818.997,284.268 819.299,289.546 814.95,295.733 C812.002,299.926 808.134,302.974 803.327,304.788 C799.651,306.176 796.145,306.045 793.025,303.393 C789.897,300.733 787.69,301.494 786.06,305.077 C784.666,308.14 782.791,310.89 780.03,312.887 C777.759,314.53 775.425,316.544 772.356,315.128 C769.148,313.648 769.589,310.546 769.556,307.734" fill="#FEFEFE"/>
    <path d="M549.786,736.22 C547.562,736.189 545.896,734.992 544.18,734.004 C537.848,730.362 531.57,726.625 525.191,723.069 C523.068,721.885 522.081,720.785 522.542,718.018 C523.357,713.135 524.227,708.184 523.782,703.178 C523.575,700.852 524.484,700.147 526.624,700.859 C543.3,706.404 560.223,711.367 575.004,721.382 C577.092,722.797 579.63,724.343 579.206,727.047 C578.796,729.653 575.927,731.044 573.66,731.566 C565.763,733.383 557.753,734.708 549.786,736.22" fill="#9E7031"/>
    <path d="M805.724,776.469 C805.725,780.79 805.571,785.118 805.777,789.429 C805.923,792.5 805.215,793.925 801.723,793.83 C793.253,793.6 784.772,793.667 776.298,793.803 C773.481,793.848 772.533,792.885 772.57,790.07 C772.697,780.266 772.73,770.457 772.557,760.655 C772.498,757.306 773.949,756.85 776.788,757.081 C785.215,757.765 793.653,758.364 802.098,758.741 C804.854,758.864 805.9,759.671 805.778,762.511 C805.578,767.156 805.724,771.815 805.724,776.469" fill="#AB8A5A"/>
    <path d="M25.766,583.96 C32.881,584.579 39.002,586.181 43.841,591.158 C51.375,598.907 49.911,608.769 40.358,613.907 C31.742,618.54 19.663,616.991 12.499,610.333 C4.265,602.68 5.499,592.353 15.294,586.859 C18.715,584.941 22.516,584.531 25.766,583.96" fill="#FC3826"/>
    <path d="M915.448,376.98 C918.768,377.227 921.443,375.832 924.122,373.999 C937.848,364.607 959.651,365.14 972.516,373.857 C981.62,380.025 984.984,387.121 977.547,397.238 C959.835,385.141 939.998,379.419 918.838,377.64 C917.698,377.544 916.578,377.206 915.448,376.98" fill="#FFD2D5"/>
    <path d="M514.136,661.593 C528.38,664.386 541.921,665.678 555.585,665.337 C558.887,665.255 558.137,666.813 557.17,668.704 C553.87,675.158 548.892,679.899 542.477,683.159 C537.234,685.823 531.662,687.398 525.799,687.908 C524.339,688.035 522.948,688.441 522.509,686.13 C520.932,677.835 518.217,669.876 514.136,661.593" fill="#FDFDFD"/>
    <path d="M1390.43,195.417 C1373.2,198.27 1357.35,198.439 1341.75,193.735 C1333.61,191.28 1326.55,187.286 1323.25,178.066 C1339.04,182.78 1354.89,183.921 1370.77,184.668 C1372.58,184.753 1373.84,185.749 1375.26,186.591 C1379.92,189.353 1384.62,192.048 1390.43,195.417" fill="#FDFDFD"/>
    <path d="M335.679,672.685 C351.711,672.097 367.351,672.242 382.906,670.063 C386.115,669.613 389.091,671.105 392.15,671.825 C394.037,672.269 393.724,673.742 393.529,675.026 C392.884,679.296 392.227,683.567 391.429,687.81 C391.089,689.613 390.665,691.437 387.875,690.477 C370.494,684.493 353.081,678.605 335.679,672.685" fill="#38BF2E"/>
    <path d="M427.769,634.646 C427.202,638.337 426.429,643.255 425.701,648.18 C425.426,650.04 424.142,650.497 422.554,650.785 C417.492,651.705 412.432,652.645 407.393,653.682 C404.45,654.287 403.449,653.243 403.837,650.303 C404.838,642.732 405.768,635.152 406.614,627.562 C406.914,624.874 408.303,623.459 410.796,622.633 C418.626,620.038 428.035,625.938 427.769,634.646" fill="#38BF2E"/>
    <path d="M783.525,591.859 C776.017,591.823 769.659,585.325 769.724,577.754 C769.79,570.202 776.338,563.855 783.883,564.03 C791.16,564.199 797.5,570.617 797.551,577.868 C797.604,585.26 790.954,591.894 783.525,591.859" fill="#FDFDFD"/>
    <path d="M767.42,506.016 C768.772,506.17 768.628,507.399 769.005,508.244 C771.9,514.737 774.789,521.233 777.676,527.73 C779.012,530.736 775.906,538.154 772.824,539.331 C772.669,539.39 772.51,539.438 772.352,539.489 C763.144,542.451 762.994,542.48 761.198,533.049 C760.146,527.526 759.558,521.907 758.966,516.31 C758.593,512.776 764.506,505.793 767.42,506.016" fill="#FDFDFD"/>
    <path d="M1359.36,176.575 C1348.59,176.054 1338.02,175.157 1327.84,171.899 C1322.5,170.19 1321.02,165.805 1324.14,161.09 C1325.24,159.435 1326.29,157.606 1327.81,156.413 C1330.44,154.337 1332.93,152.849 1336.17,156.509 C1342.96,164.168 1351.46,169.974 1359.36,176.575" fill="#FDFDFD"/>
    <path d="M214.826,746.887 C205.527,750.234 197.032,753.269 187.623,751.102 C185.459,750.604 184.26,750.121 185.384,747.529 C188.281,740.851 190.987,734.089 194.087,726.59 C200.214,734.21 207.062,740.489 214.826,746.887" fill="#38BF2E"/>
    <path d="M240.66,732.848 C245.472,724.517 252.009,718.698 258.593,713.048 C268.414,704.62 280.037,698.44 288.993,688.9 C290.183,687.632 291.828,687.219 292.993,688.343 C294.466,689.763 292.519,690.686 291.752,691.484 C276.931,706.877 260.827,720.739 242.752,732.221 C242.39,732.451 241.902,732.485 240.66,732.848" fill="#39BE2E"/>
    <path d="M321.161,654.403 C319.177,649.224 319.172,645.225 321.208,640.982 C325.68,631.661 329.028,621.927 330.873,611.708 C331.106,610.419 330.876,608.102 332.879,608.387 C334.722,608.649 336.682,609.753 336.699,612.313 C336.728,616.685 335.792,620.918 334.661,625.082 C331.899,635.251 327.36,644.619 321.161,654.403" fill="#39BE2E"/>
    <path d="M1394.32,153.309 C1401.54,154.392 1408.67,155.8 1415.37,158.841 C1417.8,159.942 1420.15,161.196 1421.86,163.309 C1423.7,165.576 1423.71,167.762 1421.53,169.918 C1417.11,174.304 1413.71,173.978 1409.49,169.66 C1404.3,164.354 1398.62,159.532 1393.16,154.501 C1393.55,154.103 1393.93,153.706 1394.32,153.309" fill="#FDFDFD"/>
    <path d="M763.797,585.715 C769.801,596.238 777.928,600.312 789.018,598.628 C781.019,602.99 773.146,607.75 763.282,605.956 C759.723,605.309 757.875,604.057 759.486,599.92 C761.161,595.616 762.206,591.066 763.797,585.715" fill="#DF1F00"/>
    <path d="M784.768,377.671 C788.497,376.09 789.628,372.254 791.873,369.398 C792.806,368.211 791.192,367.868 790.732,367.144 C792.204,365.221 794.32,364.75 796.561,364.563 C797.669,366.319 799.458,365.76 801.043,365.866 C804.84,366.119 808.361,367.615 810.535,370.471 C812.531,373.093 814.74,374.806 817.712,375.813 C816.053,375.617 814.058,375.116 813.033,376.658 C810.091,381.087 806.425,379.675 802.553,378.508 C796.721,376.75 790.749,376.844 784.768,377.671" fill="#FFD4D5"/>
    <path d="M798.03,548.17 C804.234,546.72 810.142,546.68 816.65,546.807 C813.255,553.221 812.244,559.791 812.911,567.8 C807.012,561.04 802.438,554.871 798.03,548.17" fill="#FDFDFD"/>
    <path d="M799.619,562.989 C791.809,556.785 783.466,555.495 774.122,558.938 C775.762,552.705 783.61,548.012 789.305,549.486 C790.011,549.669 790.719,550.325 791.166,550.948 C794.024,554.933 796.81,558.97 799.619,562.989" fill="#DD1F00"/>
    <path d="M457.02,642.816 C449.659,644.527 442.3,646.249 434.933,647.931 C434.355,648.063 433.188,648.477 433.21,647.725 C433.286,645.107 433.522,642.461 434.052,639.9 C434.523,637.627 436.477,638.665 437.78,638.853 C444.176,639.776 450.554,640.831 456.938,641.84 C456.965,642.165 456.993,642.491 457.02,642.816" fill="#C28E3F"/>
    <path d="M801.308,565.359 C805.271,569.924 809.156,574.559 813.234,579.018 C814.822,580.753 813.811,581.607 812.589,582.56 C808.958,585.389 805.297,588.182 801.083,590.808 C805.435,582.222 806.081,573.826 801.308,565.359" fill="#DD1F00"/>
    <path d="M702.379,615.201 C711.658,616.307 719.248,618.957 726.704,622.66 C719.752,622.66 712.762,623.089 705.865,622.473 C702.585,622.18 704.222,618.033 702.379,615.201" fill="#F3F2F2"/>
    <path d="M752.789,597.011 C750.017,592.319 748.887,587.916 747.902,583.407 C758.809,585.203 757.392,582.367 752.789,597.011" fill="#F5F5F5"/>
    <path d="M854.706,607.112 C849.483,603.039 844.751,599.349 839.887,595.557 C848.377,593.972 852.635,597.163 854.706,607.112" fill="#F9F8F8"/>
    <path d="M1424.9,67.954 C1426.84,64.21 1429.4,60.94 1432.97,58.345 C1430.58,61.884 1428.19,65.423 1425.8,68.961 C1425.5,68.626 1425.2,68.29 1424.9,67.954" fill="#746C6A"/>
    <path d="M335.789,658.413 C333.168,658.786 330.504,659.519 327.526,657.663 C330.948,655.825 333.264,657.987 335.789,658.413" fill="#369529"/>
    <path d="M1085.84,351.782 C1085.49,352.092 1085.13,352.403 1084.78,352.713 C1081.33,352.721 1079.02,351.012 1077.62,347.941 C1077.95,347.642 1078.29,347.344 1078.63,347.045 C1081.23,348.318 1083.74,349.732 1085.84,351.782" fill="#D0CDCC"/>
    <path d="M1079.67,667.13 C1077.44,668.574 1074.97,667.666 1072.61,667.818 C1074.89,666.853 1077.28,667.007 1079.67,667.13" fill="#EEBF2A"/>
    <path d="M737.593,746.913 C739.297,747.02 741.11,746.32 742.655,747.598 C740.92,747.723 739.195,747.772 737.593,746.913" fill="#F1CB37"/>
    <path d="M190.809,499.584 C201.135,499.667 208.856,507.644 208.833,518.207 C208.811,528.6 200.761,536.846 190.638,536.846 C180.494,536.846 171.978,528.04 172.189,517.768 C172.4,507.451 180.541,499.501 190.809,499.584" fill="#2F201B"/>
    <path d="M1077.62,347.941 C1080,349.532 1082.39,351.122 1084.78,352.713 C1091.79,360.356 1091.99,369.13 1088.94,378.377 C1080.96,402.519 1057.64,417.514 1032.31,414.85 C1027.48,414.343 1026.3,412 1028.97,407.796 C1031.37,404.006 1033.71,400.103 1036.61,396.71 C1048.14,383.23 1053.78,367.259 1056.54,350.114 C1057.22,345.916 1058.81,344.392 1063.06,344.775 C1068.08,345.227 1072.88,346.363 1077.62,347.941" fill="#2F201B"/>
    <path d="M903.133,337.41 C913.997,338.111 922.603,342.568 928.057,352.327 C929.791,355.43 930.345,358.581 926.818,360.529 C923.37,362.433 921.044,360.618 919.244,357.313 C915.349,350.162 909,347.161 901.006,347.619 C896.322,347.888 892.73,349.839 891.253,354.712 C890.365,357.644 888.355,359.248 885.211,358.417 C881.763,357.506 881.149,354.859 881.702,351.728 C883.17,343.403 892.746,337.008 903.133,337.41" fill="#2F201B"/>
    <path d="M796.561,364.563 C795.038,366.374 793.1,367.245 790.732,367.144 C787.069,365.774 786.158,363.203 787.225,359.572 C788.727,354.463 791.21,350.011 795.772,347.097 C805.996,340.567 816.421,346.096 819.727,357.462 C820.493,360.096 819.713,362.628 816.86,363.595 C814.237,364.484 811.916,363.724 810.57,361.038 C810.198,360.295 809.913,359.508 809.521,358.776 C806.544,353.208 802.623,352.954 798.865,358.085 C797.456,360.01 796.652,362.163 796.561,364.563" fill="#30211B"/>
    <path d="M1475.2,111.317 C1474.9,113.552 1473.6,115.051 1471.11,116.742 C1471.69,113.666 1474.08,112.953 1475.2,111.317" fill="#958F8D"/>
    <path d="M191.893,511.875 C191.91,515.655 189.147,518.613 185.519,518.7 C181.979,518.784 178.856,515.79 178.727,512.188 C178.591,508.414 181.829,504.99 185.474,505.054 C189.066,505.116 191.876,508.103 191.893,511.875" fill="#FCFBFB"/>
    <path d="M1037.42,407.812 C1039.43,404.951 1040.88,402.537 1042.67,400.422 C1053.64,387.491 1059.57,372.286 1062.6,355.86 C1063.27,352.236 1064.42,351.74 1067.81,352.476 C1082.24,355.617 1086.89,363.866 1081.71,377.717 C1074.81,396.166 1056.91,408.584 1037.42,407.812" fill="#FFEBD3"/>
  </g>
</svg>
