<?xml version="1.0" encoding="UTF-8"?>
<!DOCTYPE svg PUBLIC "-//W3C//DTD SVG 1.1//EN" "http://www.w3.org/Graphics/SVG/1.1/DTD/svg11.dtd">
<svg version="1.1" xmlns="http://www.w3.org/2000/svg" xmlns:xlink="http://www.w3.org/1999/xlink" x="0" y="0" width="887" height="884" viewBox="0, 0, 887, 884">
  <defs>
    <clipPath id="Clip_1">
      <path d="M-0,884 L886.809,884 L886.809,0.133 L-0,0.133 z"/>
    </clipPath>
  </defs>
  <g id="Layer_1">
    <g clip-path="url(#Clip_1)">
      <path d="M527.64,756.344 C526.876,754.834 526.448,753.506 527.584,751.754 C536.203,738.459 542.915,724.192 548.789,709.51 C548.882,709.278 549.235,709.151 549.893,708.651 C553.959,733.758 557.982,758.604 562.211,784.719 C548.185,777.112 534.835,770.578 527.64,756.344 z M848.122,407.667 C844.817,393.14 836.907,386.208 822.113,384.598 C820.621,384.435 818.92,384.487 818.539,382.585 C818.138,380.58 819.81,380.088 821.206,379.587 C824.025,378.577 826.256,377.114 826.757,373.834 C827.639,368.067 824.611,364.528 817.988,364.714 C801.13,365.187 784.854,361.972 768.783,357.423 C732.4,347.125 698.075,331.789 664.616,314.416 C647.818,305.694 632.635,294.578 618.826,281.68 C599.968,264.067 584.211,243.93 570.955,221.792 C565.042,211.917 559.932,201.636 554.774,191.371 C553.188,188.216 550.727,186.58 547.16,186.822 C543.978,187.037 541.541,188.782 540.955,191.747 C540.17,195.716 537.535,196.987 534.275,198.259 C509.17,208.055 486.565,221.81 467.388,240.919 C464.877,243.62 462.236,246.19 459.596,248.757 C434.852,276.686 419.429,309.346 410.464,345.315 C407.68,356.488 405.726,367.797 404.303,379.208 C403.917,382.306 403.045,384.469 399.239,384.675 C387.6,385.306 380.014,391.606 376.38,402.451 C371.956,415.655 371.797,429.088 376.707,442.136 C381.506,454.889 391.188,462.456 404.725,463.947 C409.762,464.502 411.818,466.227 413.283,470.896 C424.296,506.006 442.279,536.607 471.94,559.366 C484.374,568.907 497.395,577.48 512.684,581.906 C516.766,583.312 520.789,584.937 524.948,586.059 C528.637,587.055 528.53,588.405 526.719,591.385 C512.815,614.259 499.631,637.548 487.171,661.243 C484.032,667.213 480.983,673.229 477.633,679.726 C476.321,677.795 475.387,676.469 474.502,675.111 C458.964,651.279 443.453,627.429 427.885,603.616 C423.471,596.864 419.168,596.717 414.281,603.047 C389.047,635.734 363.82,668.425 338.614,701.132 C333.271,708.065 334.465,712.037 342.65,714.76 C363.79,721.791 384.921,728.848 406.105,735.748 C408.969,736.681 410.216,737.962 410.866,741.075 C413.158,752.062 417.946,761.934 426.734,769.221 C442.048,781.916 459.629,790.112 479.365,792.585 C495.332,794.585 509.874,791.969 516.979,774.629 C517.554,773.227 518.467,773.225 519.771,773.702 C522.407,774.667 525.049,775.326 527.23,777.447 C531.534,781.634 536.524,784.986 541.615,788.175 C551.619,794.441 562.354,799.278 573.086,804.255 C559.331,815.764 558.589,831.596 571.144,844.465 C576.352,849.805 582.561,853.027 590.209,852.849 C597.52,852.678 603.184,849.564 606.678,842.937 C613.692,849.703 618.093,851.151 627.319,850.02 C630.82,849.59 634.228,848.747 637.295,847.049 C639.784,845.671 641.162,846.122 643.106,848.274 C651.445,857.509 658.286,867.616 662.75,879.279 C663.587,881.465 664.566,883.498 667.406,883.877 C673.966,884.752 677.133,880.921 674.832,874.52 C670.263,861.81 662.815,850.857 653.981,840.763 C653.069,839.721 650.758,838.446 651.974,837.285 C655.755,833.676 657.345,828.296 662.739,825.893 C689.792,813.839 715.059,798.855 736.768,778.463 C752.474,763.71 764.836,746.785 768.362,724.874 C771.378,706.134 768.731,687.709 764.07,669.534 C756.077,638.366 742.213,609.681 726.56,581.774 C725.284,575.265 725.266,575.233 731.119,571.983 C748.229,562.481 762.745,549.829 775.218,534.893 C791.36,515.563 802.179,493.346 809.257,469.281 C810.325,465.65 812.016,464.254 815.849,464.096 C828.915,463.557 838.74,457.394 844.599,445.672 C850.66,433.543 851.085,420.692 848.122,407.667" fill="#6E4100"/>
      <path d="M726.56,581.774 C722.697,575.342 722.729,575.398 729.269,571.666 C770.408,548.188 795.383,512.373 808.449,467.563 C809.321,464.573 810.293,463.227 813.698,463.087 C831.903,462.339 843.383,452.588 847.188,434.685 C849.402,424.269 849.117,413.839 845.749,403.653 C841.858,391.888 833.901,385.995 821.631,385.651 C819.236,385.584 817.131,385.876 816.693,382.386 C816.23,378.7 818.543,378.888 820.805,378.43 C824.764,377.628 826.338,375.026 825.874,371.13 C825.451,367.575 823.3,365.721 819.806,365.835 C785.62,366.954 754.385,355.339 723.446,343.034 C696.843,332.455 670.648,320.758 646.592,305.049 C612.411,282.728 586.963,252.256 566.841,217.107 C562.382,209.319 558.447,201.221 554.496,193.156 C552.791,189.673 550.719,187.139 546.526,187.933 C542.87,188.626 541.257,191.156 541.453,194.814 C541.627,198.064 538.743,197.887 536.988,198.538 C517.322,205.83 499.188,215.844 482.789,228.917 C477.602,233.052 472.73,237.582 467.714,241.932 C466.024,242.651 464.458,241.974 462.882,241.491 C445.63,236.195 435.26,224.562 431.165,207.11 C430.565,204.554 430.515,202.165 432.301,200.059 C439.936,191.056 448.866,183.42 457.914,175.915 C458.841,175.147 460.026,174.997 461.228,175.311 C465.747,178.446 468.74,183.215 473.447,186.245 C483.14,192.485 493.493,193.931 504.555,191.52 C507.814,190.809 510.905,189.528 514.023,188.347 C532.436,181.377 551.562,178.421 571.18,177.5 C603.711,175.973 635.222,181.198 666.086,190.939 C701.926,202.252 734.562,219.363 762.829,244.509 C777.018,257.132 789.111,271.313 798.982,287.533 C810.151,305.886 834.259,311.251 852.39,299.761 C852.672,299.583 852.945,299.393 853.225,299.212 C858.854,295.57 859.992,295.955 861.857,302.202 C865.583,314.678 868.201,327.391 870.006,340.28 C872.591,358.747 874.167,377.277 875.271,395.913 C878.005,442.046 869.432,485.797 848.889,527.039 C840.506,543.867 830.808,560.093 816.91,573.257 C815.837,574.272 815.118,575.698 813.507,576.051 C800.772,581.14 787.484,584.322 773.924,585.615 C764.24,586.538 754.153,586.24 750.14,574.284 C749.726,573.052 748.87,572.938 747.781,573.487 C740.969,576.918 733.256,578.043 726.56,581.774" fill="#DBA76F"/>
      <path d="M813.507,576.051 C814.23,574.749 814.692,573.178 815.716,572.187 C834.927,553.587 846.832,530.412 856.683,506.084 C867.26,479.966 872.882,452.738 873.804,424.505 C875.153,383.187 871.049,342.5 860.559,302.488 C859.12,296.996 859.068,297.01 854.338,300.217 C835.74,312.828 809.481,307.843 798.171,288.912 C778.984,256.795 751.573,233.595 719.524,215.45 C685.813,196.363 649.432,184.856 611.058,180.314 C578.383,176.447 545.857,177.749 514.695,189.634 C502.6,194.247 491.016,195.837 478.882,190.861 C471.246,187.729 465.891,181.849 460.644,175.828 C459.434,174.892 458.614,173.672 457.903,172.326 C455.158,167.131 455.114,167.107 450.108,170.628 C426.431,187.282 408.396,209.085 392.8,233.173 C374.428,261.549 362.59,292.367 357.606,325.802 C353.398,354.034 354.243,382.162 359.401,410.202 C360.273,414.942 361.031,419.704 362.033,424.42 C362.481,426.891 362.949,429.359 363.542,431.802 C372.09,470.782 385.93,507.381 411.413,538.798 C421.434,551.153 433.011,561.826 445.704,571.345 C448.23,573.24 451.041,574.988 450.383,578.875 C449.104,586.463 444.461,588.248 438.047,583.544 C406.823,560.643 383.768,531.154 368.801,495.595 C349.398,449.496 338.888,401.321 341.073,351.232 C344.423,274.461 377.37,212.025 436.248,163.076 C441.207,158.953 446.92,155.706 452.44,152.307 C454.341,151.136 455.235,149.855 455.61,147.695 C458.177,132.896 466.608,122.715 480.347,116.861 C497.74,109.449 515.966,105.03 534.571,102.089 C537.431,101.636 540.01,100.712 542.593,99.556 C602.387,72.821 664.902,58.088 730.498,56.74 C742.994,56.484 755.469,56.612 767.905,57.608 C771.769,57.918 771.806,56.445 771.86,53.558 C772.417,23.925 796.555,0.194 826.086,0.133 C855.611,0.072 880.204,24.032 880.631,53.274 C881.073,83.57 857.705,108.146 827.692,108.956 C826.741,108.982 825.792,109.078 824.698,109.151 C829.861,125.192 835.102,140.931 839.987,156.779 C847.534,181.257 854.235,205.954 857.618,231.418 C857.905,233.577 859.175,235.04 860.248,236.68 C866.775,246.651 872.839,256.783 871.755,269.415 C871.571,271.562 871.616,273.888 870.779,275.79 C868.023,282.056 869.627,287.812 871.513,293.963 C881.68,327.13 885.638,361.282 886.579,395.817 C887.288,421.814 886.629,447.708 880.679,473.271 C872.376,508.941 857.12,541.281 835.495,570.717 C832.818,574.36 829.683,577.593 826.155,580.407 C820.028,585.295 815.445,583.686 813.507,576.051" fill="#6E4100"/>
      <path d="M450.383,578.875 C449.565,576.71 448.482,574.838 446.489,573.401 C409.313,546.587 385.865,510.084 371.838,467.042 C368.546,456.942 365.844,446.648 362.969,436.416 C362.575,435.015 362.756,433.452 362.671,431.964 C360.451,419.053 361.554,406.024 361.274,393.051 C362.168,375.076 364.624,357.271 368.292,339.678 C372.981,317.191 378.52,294.899 385.98,273.131 C390.208,260.794 396.234,249.293 402.456,237.902 C405.554,232.23 406.541,232.15 412.291,235.136 C417.609,237.897 422.927,240.658 428.546,242.783 C436.547,245.81 444.714,247.841 453.373,247.602 C455.886,247.533 458.767,246.706 460.765,249.274 C429.528,284.768 413.161,326.783 406.474,373.045 C406.403,373.538 406.198,374.025 406.202,374.514 C406.267,381.891 404.429,386.124 395.281,386.542 C386.441,386.945 380.614,393.866 377.704,402.323 C373.405,414.814 373.269,427.515 377.294,440.054 C381.744,453.914 392.807,462.25 407.368,462.987 C411.08,463.175 412.739,464.308 413.831,468.094 C422.508,498.192 437.014,525.016 459.622,547.038 C473.95,560.995 490.486,571.746 508.739,579.885 C510.087,580.486 511.37,581.229 512.684,581.906 C507.603,582.345 502.766,581.061 498.058,579.47 C495.407,578.575 493.697,578.586 492.541,581.465 C488.769,590.857 481.639,593.044 470.604,589.447 C464.848,587.57 460.009,583.992 454.977,580.766 C453.618,579.894 452.572,577.862 450.383,578.875" fill="#DBA76F"/>
      <path d="M221.392,688.854 C214.56,692.768 207.059,694.009 200.798,693.923 C191.849,693.92 184.655,692.782 178.101,689.098 C170.889,685.046 169.294,679.086 174.037,672.411 C180.428,663.417 190.288,657.973 200.393,658.206 C210.645,658.442 220.533,664.11 226.555,673.587 C229.829,678.739 227.291,685.475 221.392,688.854 z M338.006,654.702 C324.755,642.573 309.133,635.285 291.616,631.827 C267.192,627.005 242.946,629.731 218.675,633.314 C211.863,634.32 205.204,637.321 198.098,635.579 C155.659,625.172 112.883,621.141 69.51,628.881 C48.004,632.719 27.236,639.212 6.777,646.755 C2.169,648.454 -0.253,651.951 0.021,656.74 C0.265,661.006 2.537,664.361 6.848,665.674 C9.992,666.631 13.076,665.83 16.104,664.687 C58.766,648.584 102.521,640.562 148.212,646.879 C154.617,647.764 161.112,648.118 168.059,649.839 C166.009,651.605 164.592,652.745 163.265,653.98 C146.525,669.569 147.363,694.217 166.121,705.114 C188.054,717.856 211.183,717.772 233.104,704.985 C250.756,694.689 252.934,670.98 238.688,656.334 C237.334,654.942 235.485,654.032 233.867,652.898 C234.283,652.29 234.698,651.682 235.114,651.074 C241.054,650.585 246.989,650.016 252.935,649.623 C279.433,647.872 304.46,651.331 325.174,670.085 C327.476,672.169 330.295,673.155 333.494,672.464 C337.411,671.618 340.162,669.276 341.298,665.511 C342.562,661.321 341.274,657.694 338.006,654.702" fill="#FF7164"/>
    </g>
    <path d="M305.988,492.424 C305.588,491.906 304.955,491.22 305.044,490.723 C306.122,484.73 308.464,479.305 313.003,475.107 C316.637,471.747 320.651,472.689 324.592,474.61 C331.57,478.011 336.946,482.981 339.606,490.447 C343.06,500.139 339.413,505.17 329.108,505.078 C319.164,504.959 311.849,500.015 305.988,492.424 z M333.811,525.054 C349.265,524.251 360.568,512.612 360.696,497.169 C360.841,479.732 349.343,463.279 331.832,455.866 C318.076,450.042 306.254,452.621 296.127,463.636 C295.714,464.086 295.32,464.774 294.001,464.046 C288.887,437.855 289.206,411.589 297.06,385.572 C297.776,383.202 298.914,380.957 298.335,378.324 C297.305,373.643 293.613,370.289 288.968,369.986 C284.509,369.694 280.508,372.408 278.77,377.245 C274.178,390.025 272.138,403.295 271.245,416.799 C269.545,442.51 271.654,467.642 282.204,491.547 C282.87,493.057 283.505,494.471 283.284,496.292 C280.826,516.568 282.758,536.49 288.82,555.948 C295.586,577.665 306.467,596.834 324.556,611.27 C329.495,615.21 335.742,614.736 339.258,610.367 C342.933,605.799 342.165,600.073 337.253,595.809 C334.24,593.193 331.133,590.716 328.499,587.659 C311.126,567.499 304.047,543.548 302.083,516.573 C312.368,523.327 322.699,525.632 333.811,525.054" fill="#FF7164"/>
    <path d="M269.109,801.221 C267.545,792.757 265.934,785.293 264.886,777.75 C264.452,774.622 263.081,773.138 260.379,771.981 C253.357,768.974 246.433,765.737 238.554,762.179 C245.288,758.535 251.325,754.923 257.666,751.959 C261.924,749.968 263.848,747.433 264.001,742.56 C264.213,735.806 265.448,729.085 266.379,721.222 C271.415,725.948 276.151,729.744 280.075,734.248 C284.382,739.193 288.898,740.902 295.279,738.781 C299.976,737.219 304.999,736.627 309.885,735.644 C310.791,735.462 311.785,734.682 312.652,735.681 C313.711,736.901 312.542,737.824 312.089,738.779 C309.243,744.784 306.467,750.828 303.411,756.727 C302.191,759.083 302.258,760.881 303.63,763.139 C307.082,768.817 310.286,774.648 313.539,780.446 C314.003,781.272 314.653,782.417 314.404,783.131 C313.909,784.546 312.391,783.9 311.364,783.765 C305.101,782.941 298.843,782.066 292.605,781.071 C289.603,780.593 287.341,781.046 285.172,783.609 C280.248,789.426 274.921,794.901 269.109,801.221" fill="#FFC700"/>
    <path d="M161.03,376.592 C159.476,368.231 157.859,360.944 156.865,353.574 C156.393,350.072 154.797,348.378 151.757,347.092 C144.773,344.138 137.903,340.916 130.395,337.536 C137.77,333.534 144.402,329.738 151.225,326.324 C154.097,324.887 155.415,323.099 155.662,319.893 C156.238,312.436 157.155,305.005 158.074,296.229 C161.55,299.575 164.9,302.007 167.225,305.187 C174.119,314.615 182.617,316.806 193.433,312.744 C196.802,311.478 201.781,308.933 204.075,311.765 C205.717,313.792 202.271,318.484 200.253,321.361 C193.625,330.811 193.663,339.583 201.224,348.52 C203.621,351.353 205.008,355.04 207.471,359.428 C199.114,358.36 191.766,357.669 184.524,356.386 C181.107,355.78 178.974,356.608 176.79,359.154 C171.933,364.817 166.8,370.245 161.03,376.592" fill="#FFC700"/>
    <path d="M157.46,509.375 C148.989,506.6 141.857,504.401 134.835,501.896 C132.042,500.899 130.015,501.108 127.625,503.044 C121.722,507.825 115.542,512.264 108.73,517.402 C108.73,508.975 108.529,501.421 108.823,493.886 C108.951,490.598 107.765,488.729 105.16,487.012 C98.804,482.823 92.606,478.393 85.604,473.549 C93.753,470.914 101.019,468.38 108.405,466.266 C111.332,465.429 112.805,463.947 113.601,461.1 C115.649,453.775 117.925,446.513 120.43,438.157 C125.077,444.56 129.448,450.099 133.255,456.002 C135.685,459.772 138.371,461.383 142.969,460.908 C148.575,460.33 154.268,460.544 159.923,460.535 C161.126,460.533 162.803,459.787 163.471,461.347 C163.995,462.573 162.608,463.358 161.96,464.258 C158.557,468.981 155.339,473.863 151.614,478.32 C148.949,481.51 148.453,484.359 150.02,488.242 C152.66,494.788 154.745,501.557 157.46,509.375" fill="#FFC700"/>
    <path d="M81.522,751.117 C81.629,752.451 80.53,752.679 79.673,753.099 C69.548,758.053 59.38,762.923 49.318,768.002 C46.968,769.188 46.277,768.387 45.319,766.372 C41.261,757.839 37.114,749.346 32.811,740.935 C31.652,738.669 32.324,737.864 34.339,736.893 C44.34,732.069 54.285,727.13 64.233,722.198 C65.962,721.34 67.101,721.206 68.116,723.361 C72.214,732.055 76.499,740.66 80.711,749.301 C81,749.896 81.252,750.509 81.522,751.117" fill="#41BC5C"/>
    <path d="M83.92,559.024 C83.674,559.665 83.393,560.443 83.079,561.209 C79.681,569.494 76.144,577.724 72.949,586.086 C71.797,589.104 70.46,589.244 67.773,588.098 C58.012,583.935 48.195,579.899 38.318,576.021 C35.589,574.95 35.347,573.819 36.46,571.242 C40.075,562.87 43.514,554.418 46.775,545.902 C47.824,543.163 49.083,543.054 51.477,544.062 C61.255,548.178 71.111,552.109 80.894,556.217 C82.084,556.716 84.084,556.666 83.92,559.024" fill="#41BC5C"/>
    <path d="M247.438,480.721 C248.029,482.85 246.623,482.874 245.24,483.092 C235.552,484.621 225.864,486.153 216.192,487.778 C214.104,488.129 213.67,487.158 213.398,485.413 C211.629,474.083 209.792,462.763 207.944,451.446 C207.665,449.738 208.304,449.137 209.99,448.887 C219.853,447.419 229.71,445.901 239.544,444.248 C241.567,443.908 241.766,444.927 241.99,446.346 C243.804,457.838 245.63,469.327 247.438,480.721" fill="#41BC5C"/>
    <path d="M230.789,594.319 C225.631,594.321 220.469,594.192 215.318,594.371 C212.405,594.472 211.161,593.693 211.225,590.507 C211.406,581.36 211.345,572.207 211.252,563.057 C211.228,560.753 211.872,559.829 214.335,559.852 C225.481,559.959 236.629,559.943 247.776,559.864 C250.013,559.848 250.598,560.742 250.581,562.824 C250.505,572.307 250.489,581.791 250.585,591.274 C250.61,593.778 249.474,594.376 247.259,594.344 C241.77,594.264 236.279,594.318 230.789,594.319" fill="#41BC5C"/>
    <path d="M419.664,430.94 C416.874,413.752 416.486,396.473 418.724,379.241 C422.76,348.157 431.356,318.43 446.901,291.015 C468.982,252.073 501.549,225.562 543.342,209.967 C547.452,208.433 548.347,210.4 549.835,213.236 C567.56,247.032 590.202,276.941 619.628,301.517 C639.869,318.423 663.076,330.261 686.763,341.315 C717.52,355.668 748.882,368.355 782.233,375.42 C788.072,376.657 794.038,377.337 799.968,378.092 C802.466,378.41 803.582,379.24 803.843,382.013 C805.158,395.986 804.931,409.917 803.392,423.846 C800.869,423.981 800.152,421.812 799.015,420.294 C781.383,396.763 752.899,398.969 735.202,419.293 C727.702,427.907 723.558,438.019 722.42,449.1 C721.123,461.726 728.404,476.941 742.626,484.337 C755.13,490.839 768.411,492.892 782.245,488.519 C783.63,488.081 785.405,486.358 786.679,488.862 C772.395,521.658 749.435,546.43 717.767,563.037 C687.033,579.154 653.827,585.041 619.56,586.014 C586.871,586.942 554.749,583.481 523.893,571.924 C481.996,556.232 452.052,527.873 434.281,486.755 C434.024,486.16 433.906,485.504 433.724,484.876 C436.046,483.457 437.874,485.162 439.773,485.943 C450.505,490.355 461.549,492.376 472.951,489.418 C494.875,483.732 508.82,456.369 500.828,435.263 C498.027,427.865 494.387,421.03 488.77,415.346 C475.116,401.528 456.55,399.5 440.036,409.92 C433.11,414.291 427.88,420.175 423.603,427.051 C422.625,428.623 422.278,430.971 419.664,430.94" fill="#FEF8EA"/>
    <path d="M644.849,767.457 C658.98,759.094 672.707,750.668 685.536,740.877 C693.109,735.097 700.228,728.806 706.369,721.536 C712.895,713.81 717.123,705.464 714.741,694.586 C711.857,681.411 709.191,668.232 703.757,655.807 C701.576,650.821 698.302,649.025 694.565,650.616 C690.541,652.329 689.563,655.989 691.849,661.187 C697.391,673.785 700.158,687.129 702.319,700.61 C703.013,704.938 700.037,708.133 697.692,711.305 C690.763,720.675 681.556,727.609 672.26,734.368 C660.805,742.699 648.689,750.011 636.44,757.116 C633.783,758.657 631.835,758.447 629.149,757.195 C614.921,750.562 600.31,746.983 584.773,752.716 C580.028,754.467 576.179,757.6 571.659,761.087 C570.111,751.736 568.57,742.964 567.22,734.164 C564.598,717.077 562.089,699.973 559.514,682.88 C559.29,681.395 559.225,679.972 559.483,678.45 C560.174,674.373 558.47,671.527 554.379,670.661 C550.206,669.778 547.822,672.038 546.659,675.87 C541.046,694.375 534.177,712.384 525.304,729.589 C523.186,733.696 520.845,737.688 518.291,742.303 C507.611,725.953 497.35,710.213 487.044,694.503 C485.936,692.815 486.497,691.454 487.271,689.886 C503.329,657.316 521.272,625.789 539.92,594.654 C542.499,590.35 547.451,590.885 550.509,595.779 C556.158,604.823 561.962,613.762 568.759,621.991 C572.039,625.963 575.331,630.021 579.167,633.418 C591.115,643.999 603.239,643.928 615.332,633.485 C618.679,630.595 621.636,625.265 625.035,625.041 C627.854,624.855 630.861,630.761 634.128,633.569 C646.833,644.49 659.615,644.056 671.741,631.959 C684.332,619.399 693.692,604.386 702.813,589.26 C708.207,580.317 709.349,577.45 715.695,589.022 C731.584,617.996 746.006,647.542 753.132,680.077 C756.352,694.779 758.096,709.65 755.172,724.633 C751.375,744.093 739.325,758.458 725.276,771.313 C708.449,786.709 689.045,798.343 668.855,808.762 C665.187,810.655 664.431,810.262 664.22,805.976 C663.541,792.235 657.348,780.82 648.113,770.901 C647.108,769.822 646.085,768.76 644.849,767.457" fill="#FF7164"/>
    <path d="M419.664,430.94 C424.111,424.182 428.176,417.278 434.776,412.069 C458.77,393.132 487.751,401.9 500.454,430.456 C511.591,455.492 499.962,474.553 481.029,487.426 C471.115,494.166 459.418,493.068 448.22,490.104 C443.273,488.795 438.549,486.645 433.724,484.877 C426.086,467.667 421.604,449.635 419.664,430.94" fill="#FFD5BA"/>
    <path d="M786.679,488.862 C779.217,490.73 771.79,492.821 763.951,491.91 C746.679,489.905 732.387,483.388 724.462,466.646 C719.406,455.966 720.406,445.459 724.521,434.898 C730.66,419.14 741.224,407.919 757.865,403.37 C773.563,399.078 790.289,405.552 799.768,419.162 C800.895,420.779 802.18,422.287 803.392,423.846 C801.244,446.398 796.287,468.228 786.679,488.862" fill="#FFD5BA"/>
    <path d="M460.765,249.274 C442.646,250.448 426.27,244.932 410.917,235.927 C407.635,234.002 406.211,234.071 404.137,237.549 C391.91,258.056 384.483,280.361 378.367,303.268 C370.589,332.4 364.608,361.816 362.536,391.949 C361.739,401.527 362.449,411.126 362.125,420.708 C362.078,422.098 363.326,424.099 360.898,424.867 C348.346,367.295 350.948,311.149 377.616,257.592 C393.41,225.872 413.774,197.498 441.807,175.215 C446.366,171.591 451.12,168.237 456.342,165.229 C457.799,168.819 459.221,172.325 460.644,175.829 C457.715,176.542 456.016,178.983 453.946,180.81 C446.977,186.962 440.011,193.123 433.732,200.02 C432.096,201.817 431.664,203.386 432.161,205.799 C435.821,223.54 446.16,235.131 463.491,240.466 C464.914,240.904 466.307,241.441 467.714,241.932 C465.397,244.379 463.081,246.827 460.765,249.274" fill="#FEFEFE"/>
    <path d="M603.146,762.932 C622.427,763.4 643.727,778.996 649.825,798.67 C655.072,815.599 643.104,834.599 625.585,837.171 C623.577,837.466 621.558,837.529 619.682,836.753 C616.122,835.279 615.262,831.084 618.311,828.882 C621.892,826.296 623.072,823.064 621.026,819.452 C618.85,815.611 615.246,815.803 611.409,817.446 C606.817,819.413 602.012,819.57 597.319,817.644 C594.298,816.404 592.624,814.024 592.366,810.739 C592.12,807.602 594.524,806.409 596.717,805.315 C600.127,803.614 603.743,802.326 607.144,800.61 C611.213,798.558 612.571,795.081 610.962,791.627 C609.234,787.918 605.661,786.803 601.25,788.977 C595.179,791.971 588.981,793.19 582.468,790.864 C575.198,788.266 573.149,782.941 576.998,776.3 C582.293,767.165 590.369,762.726 603.146,762.932" fill="#FEF8EA"/>
    <path d="M441.498,648.785 C446.93,656.686 452.311,664.619 457.023,672.982 C456.429,675.421 454.184,675.63 452.378,676.201 C422.836,685.537 393.247,694.724 363.691,704.018 C361.299,704.77 358.79,704.951 356.39,705.645 C353.758,704.811 352.941,703.709 354.992,701.131 C364.027,689.774 372.903,678.289 381.837,666.851 C390.487,662.447 400.045,660.689 409.145,657.599 C418.095,654.561 427.167,651.842 436.23,649.127 C437.946,648.614 439.666,647.705 441.498,648.785" fill="#41BC5C"/>
    <path d="M482.46,779.983 C465.526,778.114 447.606,770.913 433.136,757.077 C426.007,750.261 421.878,740.988 423.487,730.414 C424.456,724.047 429.147,721.011 434.644,718.825 C436.942,717.91 437.404,719.185 437.999,720.994 C440.296,727.975 440.984,735.289 442.615,742.405 C442.986,744.024 443.251,745.671 443.695,747.269 C445.212,752.728 449.674,754.513 454.451,751.531 C458.786,748.824 461.566,744.608 464.712,740.743 C466.257,738.845 467.698,736.351 470.635,736.868 C473.658,737.4 474.562,740.224 475.556,742.655 C476.837,745.786 477.093,749.05 476.577,752.442 C475.62,758.73 478.196,761.409 484.651,760.886 C490.106,760.445 495.522,759.331 501.014,760.707 C505.789,761.903 506.775,763.427 505.476,768.162 C503.173,776.556 497.012,780.216 482.46,779.983" fill="#FEF8EA"/>
    <path d="M356.39,705.645 C358.038,703.71 360.507,703.61 362.677,702.93 C392.922,693.443 423.185,684.012 453.436,674.541 C454.671,674.154 455.826,673.508 457.02,672.983 C461.358,678.576 465.216,684.48 468.584,690.705 C467.548,692.471 465.654,692.802 463.953,693.357 C440.74,700.934 417.282,707.734 394.077,715.334 C392.289,715.92 390.477,715.847 388.655,715.879 C377.9,712.468 367.145,709.056 356.39,705.645" fill="#FEFEFE"/>
    <path d="M388.655,715.879 C407.395,709.91 426.126,703.917 444.877,697.984 C452.758,695.491 460.68,693.129 468.583,690.706 C474.49,698.379 479.329,706.757 484.547,714.885 C484.099,716.346 482.861,716.816 481.589,717.241 C473.288,720.017 464.878,722.444 456.543,725.112 C455.299,725.51 453.977,725.899 452.784,724.882 C451.223,719.282 449.702,713.675 446.783,708.566 C444.588,704.726 441.592,703.564 437.179,704.549 C426.472,706.939 417.465,711.542 412.368,721.855 C411.681,723.245 410.92,723.774 409.249,723.156 C402.42,720.632 395.285,718.973 388.655,715.879" fill="#41BC5C"/>
    <path d="M687.257,589.62 C679.039,602.396 671.412,614.286 661.008,624.036 C655.142,629.532 651.147,629.615 644.559,625.031 C644.149,624.746 643.746,624.449 643.356,624.137 C639.817,621.313 635.328,618.25 634.554,614.258 C633.696,609.832 639.864,608.535 642.653,605.561 C648.716,599.096 655.87,595.054 665.099,594.25 C672.231,593.629 679.219,591.367 687.257,589.62" fill="#FEFEFE"/>
    <path d="M441.498,648.785 C422.75,654.695 404.007,660.616 385.247,666.486 C384.177,666.82 382.976,666.738 381.836,666.85 C388.796,657.873 395.755,648.896 402.714,639.919 C410.42,635.317 419.321,634.121 427.616,631.198 C428.602,630.851 429.586,631.238 430.484,631.734 C434.155,637.417 437.827,643.101 441.498,648.785" fill="#FEFEFE"/>
    <path d="M566.279,596.239 C577.017,597.376 586.889,598.783 596.864,598.869 C598.504,598.883 599.674,599.579 600.849,600.577 C605.033,604.128 609.214,607.684 613.492,611.119 C615.31,612.579 616.075,613.712 614.17,615.817 C611.153,619.15 608.285,622.616 604.55,625.181 C598.118,629.597 594.338,629.422 588.523,624.191 C579.792,616.335 573.391,606.611 566.279,596.239" fill="#FEFEFE"/>
    <path d="M835.531,421.5 C835.314,427.142 834.884,432.794 832.537,438.056 C829.257,445.409 823.406,449.22 815.48,450.082 C813.575,450.289 812.801,450.065 813.226,447.762 C816.07,432.344 817.794,416.805 817.609,401.102 C817.58,398.669 818.895,398.467 820.762,398.426 C826.281,398.303 830.359,400.752 832.672,405.857 C834.917,410.811 835.293,416.128 835.531,421.5" fill="#FEF8EA"/>
    <path d="M387.8,421.472 C387.5,416.61 388.039,411.833 389.741,407.254 C390.862,404.236 392.535,401.597 395.463,399.96 C401.616,396.521 404.511,398.107 404.527,404.918 C404.559,418.425 405.948,431.803 408.411,445.076 C409.392,450.363 408.825,450.872 403.581,449.364 C394.189,446.662 388.9,439.359 387.825,427.456 C387.646,425.477 387.8,423.467 387.8,421.472" fill="#FEF8EA"/>
    <path d="M452.784,724.882 C463.372,721.55 473.96,718.218 484.548,714.886 C488.257,720.597 491.967,726.308 495.677,732.019 C493.457,735.282 490.267,735.623 486.752,734.987 C482.434,727.606 476.762,722.612 467.446,723.801 C461.773,724.525 458.207,728.545 454.039,732.65 C453.555,729.652 453.169,727.267 452.784,724.882" fill="#FDFDFD"/>
    <path d="M430.484,631.734 C421.228,634.462 411.971,637.19 402.714,639.919 C408.023,632.917 413.41,625.971 418.599,618.881 C420.323,616.526 421.181,617.118 422.442,619.17 C425.045,623.406 427.795,627.551 430.484,631.734" fill="#41BC5C"/>
    <path d="M594.661,833.47 C594.743,838.535 593.077,840.179 588.805,839.828 C580.957,839.183 573.348,828.065 575.659,820.631 C576.227,818.805 577.141,817.026 579.106,816.779 C581.13,816.526 580.93,818.812 581.544,819.975 C583.891,824.418 587.353,827.649 591.901,829.551 C594.147,830.49 595.177,831.659 594.661,833.47" fill="#FEF7E9"/>
    <path d="M486.752,734.987 C489.727,733.997 492.702,733.007 495.677,732.018 C499.037,737.049 502.398,742.078 506.214,747.789 C500.626,747.456 496.055,747.184 491.483,746.912 C489.924,746.819 489.877,745.631 489.565,744.481 C488.701,741.296 487.699,738.149 486.752,734.987" fill="#41BB5B"/>
    <path d="M620.341,599.093 C623.514,599.093 626.294,599.093 629.482,599.093 C626.474,602.63 623.789,604.705 620.341,599.093" fill="#F6ECDD"/>
    <path d="M814.868,351.945 C807.606,350.433 800.059,347.851 792.634,344.938 C759.805,332.055 731.372,312.267 705.245,288.933 C682.913,268.99 663.212,246.734 646.761,221.665 C646.031,220.552 645.239,219.471 644.613,218.302 C642.691,214.713 643.121,211.406 646.577,209.129 C649.938,206.914 653.126,208.047 655.336,211.065 C659.168,216.299 662.508,221.898 666.41,227.076 C697.403,268.211 734.885,301.849 780.891,325.519 C792.31,331.394 804.303,335.858 816.756,339.084 C820.361,340.018 822.712,342.453 822.083,346.364 C821.528,349.819 819.249,351.93 814.868,351.945" fill="#6E4100"/>
    <path d="M582.146,111.215 C670.28,114.374 748.948,141.803 814.374,202.656 C830.397,217.559 844.327,234.376 855.118,253.541 C861.963,265.697 859.163,279.834 848.693,288.181 C838.322,296.448 824.083,296.144 813.865,287.29 C812.006,285.68 810.27,283.749 809.015,281.646 C787.909,246.26 757.458,220.979 721.694,201.775 C681.739,180.319 639.01,168.031 593.613,165.926 C563.098,164.511 533.212,167.706 504.568,179.432 C491.075,184.955 476.07,178.11 470.157,164.611 C464.458,151.598 470.025,136.298 483.247,130.003 C499.735,122.154 517.409,118.125 535.307,115.126 C550.765,112.536 566.374,111.51 582.146,111.215" fill="#FEFEFE"/>
    <path d="M583.338,98.004 C599.615,91.219 616.166,86.393 632.949,82.407 C668.204,74.036 703.926,69.477 740.216,69.631 C758.05,69.707 775.798,70.875 793.5,72.967 C795.883,73.249 797.477,74.081 798.379,76.454 C814.886,119.851 830.188,163.629 840.455,209.006 C840.522,209.303 840.381,209.648 840.309,210.18 C770.476,136.581 685.038,98.909 583.338,98.004" fill="#FF7164"/>
    <path d="M825.94,95.888 C821.573,96.668 818.836,95.122 817.318,89.998 C815.061,82.384 811.576,75.142 808.948,67.626 C807.443,63.32 804.967,61.052 800.307,60.797 C796.333,60.579 792.404,59.504 788.431,59.312 C785.221,59.157 784.781,57.711 784.752,54.916 C784.527,33.284 801.555,14.992 823.784,13.17 C844.815,11.446 864.067,27.518 867.366,49.554 C870.397,69.796 855.935,90.255 835.275,94.919 C832.35,95.579 829.404,96.169 825.94,95.888" fill="#FEFEFE"/>
    <path d="M360.898,424.867 C362.63,417.183 361.124,409.393 361.678,401.674 C361.91,398.43 360.842,395.063 362.536,391.949 C362.581,405.287 362.627,418.626 362.672,431.964 C361.254,429.805 361.206,427.303 360.898,424.867" fill="#F5F2EF"/>
    <path d="M658.474,467.728 C659.072,481.513 657.494,495.005 651.648,507.661 C645.794,520.337 636.246,528.391 621.995,529.856 C610.632,531.024 602.056,525.607 595.071,517.375 C584.514,504.936 580.069,489.789 576.662,474.248 C576.271,472.462 575.789,470.666 575.675,468.854 C575.495,465.98 574.475,464.223 571.316,463.923 C567.643,463.575 565.868,461.236 566.671,457.7 C567.517,453.975 570.441,453.584 573.765,454.188 C596.668,458.352 619.445,458.396 641.981,451.869 C644.847,451.039 647.62,449.89 650.434,448.884 C655.176,447.189 658.012,448.726 658.398,453.749 C658.754,458.384 658.474,463.067 658.474,467.728" fill="#6E4100"/>
    <path d="M498.822,395.53 C499.312,387.726 502.226,380.995 508.224,375.904 C510.286,374.153 510.66,373.114 508.954,370.819 C505.898,366.708 504.872,361.778 504.733,356.715 C504.642,353.409 506.314,351.153 509.683,351.068 C512.755,350.991 514.48,352.877 514.748,356.051 C514.901,357.863 515.153,359.691 515.609,361.448 C517.026,366.905 519.845,368.986 525.468,368.92 C536.826,368.785 545.951,375.679 548.956,386.665 C550.114,390.897 548.609,394.465 544.918,395.512 C540.911,396.649 538.259,394.923 536.672,391.124 C533.555,383.669 530.096,381.163 524.386,381.996 C518.044,382.92 512.795,388.443 511.914,395.162 C511.72,396.64 511.951,398.25 511.445,399.596 C510.25,402.768 507.693,404.408 504.363,403.736 C500.058,402.868 498.578,399.697 498.822,395.53" fill="#6E4100"/>
    <path d="M726.484,396.261 C726.452,400.581 723.876,403.679 720.141,403.89 C716.41,404.101 713.874,401.535 713.5,396.881 C713.074,391.572 710.915,387.283 706.489,384.261 C699.691,379.62 692.598,381.652 689.254,389.15 C688.985,389.755 688.799,390.397 688.534,391.004 C686.745,395.089 683.268,396.943 679.844,395.379 C676.096,393.667 674.962,390.694 676.168,386.72 C677.654,381.818 680.058,377.463 684.091,374.292 C686.011,372.782 686.412,371.773 685.042,369.603 C682.697,365.886 681.812,361.642 681.64,357.241 C681.503,353.718 682.842,351.173 686.524,351.076 C689.889,350.987 691.461,353.247 691.69,356.572 C691.814,358.381 692.041,360.249 692.63,361.948 C694.063,366.078 696.206,368.825 701.445,369.093 C714.995,369.784 726.585,382.739 726.484,396.261" fill="#6E4100"/>
    <path d="M501.167,278.699 C501.366,277.806 501.419,276.759 501.824,275.871 C505.632,267.517 513.045,264.805 521.326,264.318 C528.383,263.903 534.36,266.547 537.931,273.179 C538.815,274.818 539.461,276.483 538.896,278.406 C538.32,280.372 536.978,281.516 535.05,281.87 C532.634,282.314 531.005,281.147 529.642,279.174 C524.701,272.022 514.683,272.814 510.899,280.741 C509.586,283.49 507.706,284.491 504.956,283.937 C502.262,283.395 501.257,281.378 501.167,278.699" fill="#6E4300"/>
    <path d="M617.674,404.528 C617.569,406.986 615.91,408.749 612.751,408.882 C609.756,409.009 604.432,402.606 604.398,398.854 C604.369,395.639 606.107,393.9 609.291,393.796 C612.34,393.697 617.602,400.074 617.674,404.528" fill="#6F4400"/>
    <path d="M636.662,668.739 C636.762,675.139 632.206,679.917 625.906,680.021 C619.535,680.125 614.759,675.537 614.666,669.223 C614.573,662.888 619.193,658.018 625.422,657.886 C631.657,657.754 636.565,662.493 636.662,668.739" fill="#FEFEFE"/>
    <path d="M636.662,720.972 C636.666,727.349 632.021,732.013 625.666,732.014 C619.311,732.015 614.665,727.353 614.666,720.976 C614.668,714.675 619.419,709.881 625.662,709.879 C631.904,709.878 636.659,714.673 636.662,720.972" fill="#FEFEFE"/>
    <path d="M601.107,466.748 C616.012,467.359 630.696,465.798 644.979,461.459 C648.279,460.457 648.866,461.028 648.896,464.314 C649.011,476.702 648.292,488.924 643.732,500.637 C642.393,504.076 640.612,507.259 638.426,510.197 C629.339,522.403 613.756,523.165 603.654,511.846 C593.892,500.907 589.97,487.327 586.773,473.495 C585.133,466.398 585.312,466.397 592.617,466.727 C595.442,466.854 598.277,466.748 601.107,466.748" fill="#FEFEFE"/>
  </g>
</svg>
