<?xml version="1.0" encoding="UTF-8"?>
<!DOCTYPE svg PUBLIC "-//W3C//DTD SVG 1.1//EN" "http://www.w3.org/Graphics/SVG/1.1/DTD/svg11.dtd">
<svg version="1.1" xmlns="http://www.w3.org/2000/svg" xmlns:xlink="http://www.w3.org/1999/xlink" x="0" y="0" width="560" height="352" viewBox="0, 0, 560, 352">
  <g id="Layer_1">
    <path d="M19.227,152.716 L37.95,169.925 L37.95,309.813 L0.5,309.813 L0.5,169.925 L19.227,152.716" fill="#0B0B09"/>
    <path d="M19.227,156.42 L3.234,171.114 L3.234,307.081 L35.217,307.081 L35.217,171.114 L19.227,156.42" fill="#F8C823"/>
    <path d="M19.227,156.42 L31.371,172.434 L31.371,307.081 L35.217,307.081 L35.217,171.114 L19.227,156.42" fill="#E9A62D"/>
    <path d="M53.943,152.716 L72.667,169.925 L72.667,309.813 L35.217,309.813 L35.217,169.925 L53.943,152.716" fill="#0B0B09"/>
    <path d="M53.943,156.42 L37.95,171.114 L37.95,307.081 L69.933,307.081 L69.934,171.114 L53.943,156.42" fill="#F8C823"/>
    <path d="M53.943,156.42 L66.087,172.434 L66.087,307.081 L69.933,307.081 L69.934,171.114 L53.943,156.42" fill="#E9A62D"/>
    <path d="M88.66,152.716 L107.384,169.925 L107.384,309.813 L69.933,309.813 L69.934,169.925 L88.66,152.716" fill="#0B0B09"/>
    <path d="M88.659,156.42 L72.667,171.114 L72.667,307.081 L104.649,307.081 L104.649,171.114 L88.659,156.42" fill="#F8C823"/>
    <path d="M88.659,156.42 L100.803,172.434 L100.803,307.081 L104.649,307.081 L104.649,171.114 L88.659,156.42" fill="#E9A62D"/>
    <path d="M123.377,152.716 L142.1,169.925 L142.1,309.813 L104.649,309.813 L104.649,169.925 L123.377,152.716" fill="#0B0B09"/>
    <path d="M123.375,156.42 L107.384,171.114 L107.384,307.081 L139.366,307.081 L139.366,171.114 L123.375,156.42" fill="#F8C823"/>
    <path d="M123.375,156.42 L135.52,172.434 L135.52,307.081 L139.366,307.081 L139.366,171.114 L123.375,156.42" fill="#E9A62D"/>
    <path d="M158.093,152.716 L176.816,169.925 L176.816,309.813 L139.366,309.813 L139.366,169.925 L158.093,152.716" fill="#0B0B09"/>
    <path d="M158.092,156.42 L142.1,171.114 L142.1,307.081 L174.083,307.081 L174.083,171.114 L158.092,156.42" fill="#F8C823"/>
    <path d="M158.092,156.42 L170.236,172.434 L170.236,307.081 L174.083,307.081 L174.083,171.114 L158.092,156.42" fill="#E9A62D"/>
    <path d="M192.809,152.716 L211.533,169.925 L211.532,309.813 L174.083,309.813 L174.083,169.925 L192.809,152.716" fill="#0B0B09"/>
    <path d="M192.809,156.42 L176.816,171.114 L176.816,307.081 L208.799,307.081 L208.799,171.114 L192.809,156.42" fill="#F8C823"/>
    <path d="M192.809,156.42 L204.953,172.434 L204.953,307.081 L208.799,307.081 L208.799,171.114 L192.809,156.42" fill="#E9A62D"/>
    <path d="M227.526,152.716 L246.25,169.925 L246.25,309.813 L208.799,309.813 L208.799,169.925 L227.526,152.716" fill="#0B0B09"/>
    <path d="M227.525,156.42 L211.533,171.114 L211.532,307.081 L243.516,307.081 L243.516,171.114 L227.525,156.42" fill="#F8C823"/>
    <path d="M227.525,156.42 L239.669,172.434 L239.669,307.081 L243.516,307.081 L243.516,171.114 L227.525,156.42" fill="#E9A62D"/>
    <path d="M262.243,152.716 L280.966,169.925 L280.966,309.813 L243.516,309.813 L243.516,169.925 L262.243,152.716" fill="#0B0B09"/>
    <path d="M262.241,156.42 L246.25,171.114 L246.25,307.081 L278.232,307.081 L278.232,171.114 L262.241,156.42" fill="#F8C823"/>
    <path d="M262.241,156.42 L274.385,172.434 L274.385,307.081 L278.232,307.081 L278.232,171.114 L262.241,156.42" fill="#E9A62D"/>
    <path d="M296.959,152.716 L315.683,169.925 L315.683,309.813 L278.232,309.813 L278.232,169.925 L296.959,152.716" fill="#0B0B09"/>
    <path d="M296.958,156.42 L280.966,171.114 L280.966,307.081 L312.948,307.081 L312.948,171.114 L296.958,156.42" fill="#F8C823"/>
    <path d="M296.958,156.42 L309.102,172.434 L309.101,307.081 L312.948,307.081 L312.948,171.114 L296.958,156.42" fill="#E9A62D"/>
    <path d="M331.675,152.716 L350.399,169.925 L350.399,309.813 L312.948,309.813 L312.948,169.925 L331.675,152.716" fill="#0B0B09"/>
    <path d="M331.673,156.42 L315.683,171.114 L315.683,307.081 L347.665,307.081 L347.665,171.114 L331.673,156.42" fill="#F8C823"/>
    <path d="M331.673,156.42 L343.82,172.434 L343.82,307.081 L347.665,307.081 L347.665,171.114 L331.673,156.42" fill="#E9A62D"/>
    <path d="M366.391,152.716 L385.116,169.925 L385.116,309.813 L347.665,309.813 L347.665,169.925 L366.391,152.716" fill="#0B0B09"/>
    <path d="M366.39,156.42 L350.399,171.114 L350.399,307.081 L382.382,307.081 L382.382,171.114 L366.39,156.42" fill="#F8C823"/>
    <path d="M366.39,156.42 L378.536,172.434 L378.536,307.081 L382.382,307.081 L382.382,171.114 L366.39,156.42" fill="#E9A62D"/>
    <path d="M401.11,152.716 L419.832,169.925 L419.832,309.813 L382.382,309.813 L382.382,169.925 L401.11,152.716" fill="#0B0B09"/>
    <path d="M401.108,156.42 L385.116,171.114 L385.116,307.081 L417.098,307.081 L417.098,171.114 L401.108,156.42" fill="#F8C823"/>
    <path d="M401.108,156.42 L413.252,172.434 L413.252,307.081 L417.098,307.081 L417.098,171.114 L401.108,156.42" fill="#E9A62D"/>
    <path d="M435.826,152.716 L454.548,169.925 L454.548,309.813 L417.098,309.813 L417.098,169.925 L435.826,152.716" fill="#0B0B09"/>
    <path d="M435.824,156.42 L419.832,171.114 L419.832,307.081 L451.815,307.081 L451.815,171.114 L435.824,156.42" fill="#F8C823"/>
    <path d="M435.824,156.42 L447.968,172.434 L447.968,307.081 L451.815,307.081 L451.815,171.114 L435.824,156.42" fill="#E9A62D"/>
    <path d="M470.542,152.716 L489.263,169.925 L489.263,309.813 L451.815,309.813 L451.815,169.925 L470.542,152.716" fill="#0B0B09"/>
    <path d="M470.542,156.42 L454.548,171.114 L454.548,307.081 L486.532,307.081 L486.532,171.114 L470.542,156.42" fill="#F8C823"/>
    <path d="M470.542,156.42 L482.684,172.434 L482.684,307.081 L486.532,307.081 L486.532,171.114 L470.542,156.42" fill="#E9A62D"/>
    <path d="M505.257,152.716 L523.98,169.925 L523.98,309.813 L486.532,309.813 L486.532,169.925 L505.257,152.716" fill="#0B0B09"/>
    <path d="M505.257,156.42 L489.263,171.114 L489.263,307.081 L521.249,307.081 L521.249,171.114 L505.257,156.42" fill="#F8C823"/>
    <path d="M505.257,156.42 L517.4,172.434 L517.4,307.081 L521.249,307.081 L521.249,171.114 L505.257,156.42" fill="#E9A62D"/>
    <path d="M539.974,152.716 L558.696,169.925 L558.696,309.813 L521.249,309.813 L521.249,169.925 L539.974,152.716" fill="#0B0B09"/>
    <path d="M539.974,156.42 L523.98,171.114 L523.98,307.081 L555.964,307.081 L555.964,171.114 L539.974,156.42" fill="#F8C823"/>
    <path d="M539.974,156.42 L552.117,172.434 L552.116,307.081 L555.964,307.081 L555.964,171.114 L539.974,156.42" fill="#E9A62D"/>
    <path d="M479.414,230.774 C480.733,230.538 482.088,230.352 483.471,230.219 C485.16,230.056 486.841,229.969 488.509,229.969 C502.765,229.969 515.678,235.752 525.02,245.094 C534.365,254.438 540.147,267.348 540.147,281.605 C540.147,295.862 534.365,308.775 525.02,318.118 C515.678,327.46 502.765,333.241 488.509,333.241 L427.031,333.241 C416.972,333.241 407.859,329.161 401.264,322.566 C394.666,315.965 390.583,306.852 390.583,296.794 C390.583,291.59 391.678,286.635 393.647,282.152 C395.565,277.794 398.31,273.882 401.679,270.616 C400.714,268.209 399.955,265.691 399.426,263.091 C398.846,260.24 398.541,257.296 398.541,254.301 C398.541,242.189 403.451,231.222 411.388,223.287 C419.322,215.351 430.288,210.44 442.401,210.44 C450.203,210.44 457.539,212.484 463.891,216.063 C470.192,219.612 475.533,224.682 479.414,230.774" fill="#0B0B09"/>
    <path d="M483.727,232.93 C482.152,233.084 480.577,233.318 479.012,233.626 L478.082,233.808 L477.586,232.991 C473.917,226.949 468.731,221.922 462.556,218.442 C456.603,215.089 449.724,213.174 442.401,213.174 C431.043,213.174 420.76,217.781 413.32,225.221 C405.878,232.66 401.274,242.945 401.274,254.301 C401.274,257.136 401.558,259.897 402.096,262.546 C402.651,265.278 403.484,267.916 404.554,270.428 L404.933,271.316 L404.223,271.966 C400.803,275.107 398.036,278.945 396.146,283.246 C394.327,287.389 393.317,291.972 393.317,296.794 C393.317,306.105 397.092,314.536 403.19,320.636 C409.29,326.733 417.72,330.507 427.031,330.507 L488.509,330.507 C502.014,330.507 514.24,325.032 523.089,316.184 C531.935,307.337 537.412,295.109 537.412,281.605 C537.412,268.102 531.935,255.875 523.089,247.027 C514.24,238.177 502.014,232.705 488.509,232.705 C486.864,232.705 485.269,232.783 483.727,232.93" fill="#8CA43D"/>
    <path d="M393.93,303.222 C395.228,309.957 398.531,315.976 403.19,320.636 C409.29,326.733 417.72,330.507 427.031,330.507 L488.509,330.507 C502.014,330.507 514.24,325.032 523.089,316.184 C529.383,309.89 533.969,301.884 536.095,292.927 C530.057,306.042 517.104,317.081 503.609,317.081 L414.286,317.081 C406.078,317.081 397.505,310.329 393.93,303.222" fill="#7B913C"/>
    <path d="M104.75,230.774 C106.071,230.538 107.425,230.352 108.808,230.219 C110.497,230.056 112.18,229.969 113.847,229.969 C128.103,229.969 141.016,235.752 150.358,245.094 C159.701,254.437 165.483,267.348 165.483,281.605 C165.483,295.862 159.701,308.775 150.358,318.118 C141.016,327.459 128.103,333.241 113.847,333.241 L52.368,333.241 C42.309,333.241 33.197,329.161 26.602,322.566 C20.002,315.965 15.921,306.852 15.921,296.794 C15.921,291.59 17.016,286.635 18.985,282.152 C20.902,277.794 23.646,273.881 27.018,270.616 C26.052,268.209 25.292,265.691 24.764,263.091 C24.184,260.24 23.877,257.296 23.877,254.301 C23.877,242.189 28.789,231.222 36.725,223.287 C44.659,215.351 55.625,210.44 67.737,210.44 C75.54,210.44 82.876,212.484 89.227,216.062 C95.53,219.612 100.871,224.682 104.75,230.774" fill="#0B0B09"/>
    <path d="M109.064,232.93 C107.49,233.084 105.915,233.318 104.349,233.626 L103.419,233.808 L102.923,232.991 C99.256,226.949 94.067,221.922 87.893,218.442 C81.941,215.089 75.062,213.174 67.737,213.174 C56.381,213.174 46.097,217.781 38.657,225.221 C31.216,232.66 26.611,242.945 26.611,254.301 C26.611,257.136 26.895,259.897 27.434,262.546 C27.988,265.278 28.821,267.916 29.892,270.428 L30.27,271.315 L29.561,271.966 C26.141,275.107 23.373,278.945 21.484,283.246 C19.665,287.389 18.655,291.972 18.655,296.794 C18.655,306.105 22.428,314.536 28.526,320.636 C34.626,326.733 43.057,330.507 52.368,330.507 L113.847,330.507 C127.351,330.507 139.579,325.032 148.425,316.184 C157.273,307.337 162.749,295.109 162.749,281.605 C162.749,268.102 157.273,255.875 148.425,247.027 C139.579,238.177 127.351,232.705 113.847,232.705 C112.203,232.705 110.604,232.783 109.064,232.93" fill="#8CA43D"/>
    <path d="M19.267,303.222 C20.565,309.957 23.868,315.976 28.526,320.636 C34.626,326.733 43.057,330.507 52.368,330.507 L113.847,330.507 C127.351,330.507 139.579,325.032 148.425,316.184 C154.72,309.89 159.307,301.884 161.431,292.927 C155.394,306.042 142.441,317.081 128.948,317.081 L39.622,317.081 C31.414,317.081 22.843,310.329 19.267,303.222" fill="#7B913C"/>
    <path d="M94.785,295.772 L465.78,295.772 L465.78,349.86 L93.419,349.86 L93.419,295.772 L94.785,295.772" fill="#0B0B09"/>
    <path d="M463.045,298.506 L96.152,298.506 L96.152,347.125 L463.045,347.126 L463.045,298.506" fill="#8C6035"/>
    <path d="M459.09,298.506 L98.739,298.506 L98.74,82.764 L460.458,82.764 L460.458,298.506 L459.09,298.506" fill="#0B0B09"/>
    <path d="M101.474,85.499 L457.725,85.499 L457.725,295.772 L101.474,295.772 z" fill="#C2D87A"/>
    <path d="M96.152,298.506 L463.045,298.506 L463.045,303.287 L96.152,303.287 z" fill="#BC9061"/>
    <path d="M475.284,85.499 L81.817,85.499 L118.476,3.028 L440.724,3.028 C452.912,30.53 465.15,58.013 477.38,85.499 L475.284,85.499" fill="#0B0B09"/>
    <path d="M86.009,82.764 L473.19,82.764 L438.962,5.761 L120.236,5.761 L86.009,82.764" fill="#992528"/>
    <path d="M101.473,85.499 L457.725,85.499 L457.725,97.734 L101.473,97.734 z" fill="#A7C063"/>
    <path d="M438.962,5.761 L457.81,70.068 L86.009,82.764 L473.19,82.764 L438.962,5.761" fill="#852124"/>
    <path d="M414.777,349.86 L302.958,349.86 L302.958,131.949 L416.143,131.949 L416.143,349.86 L414.777,349.86" fill="#0B0B09"/>
    <path d="M305.692,134.682 L413.41,134.682 L413.41,347.126 L305.692,347.126 z" fill="#6E2F20"/>
    <path d="M305.692,134.682 L315.344,134.682 L315.344,347.126 L305.692,347.126 z" fill="#4C2719"/>
    <path d="M305.692,134.682 L413.41,134.682 L413.41,144.336 L305.692,144.336 z" fill="#4C2719"/>
    <path d="M397.263,227.2 C401.035,227.2 404.453,228.73 406.923,231.203 C409.394,233.674 410.926,237.091 410.926,240.863 C410.926,244.634 409.394,248.052 406.923,250.523 C404.453,252.996 401.035,254.526 397.263,254.526 C393.49,254.526 390.072,252.996 387.601,250.523 C385.13,248.052 383.598,244.634 383.598,240.863 C383.598,237.091 385.13,233.674 387.601,231.203 C390.072,228.73 393.49,227.2 397.263,227.2" fill="#0B0B09"/>
    <path d="M404.991,233.135 C403.013,231.16 400.281,229.933 397.263,229.933 C394.244,229.933 391.51,231.16 389.534,233.135 C387.558,235.111 386.333,237.845 386.333,240.863 C386.333,243.881 387.558,246.615 389.534,248.591 C391.51,250.566 394.244,251.793 397.263,251.793 C400.281,251.793 403.013,250.566 404.991,248.591 C406.966,246.615 408.191,243.881 408.191,240.863 C408.191,237.845 406.966,235.111 404.991,233.135" fill="#E9A62D"/>
    <path d="M401.226,233.575 C399.78,232.132 397.783,231.236 395.577,231.236 C393.37,231.236 391.373,232.132 389.927,233.575 C388.483,235.021 387.587,237.018 387.587,239.224 C387.587,241.431 388.483,243.428 389.927,244.874 C391.373,246.319 393.37,247.214 395.577,247.214 C397.783,247.214 399.78,246.319 401.226,244.874 C402.669,243.428 403.565,241.431 403.565,239.224 C403.565,237.018 402.669,235.021 401.226,233.575" fill="#F3B528"/>
    <path d="M121.146,131.949 L282.719,131.949 L282.719,253.301 L119.778,253.301 L119.778,131.949 L121.146,131.949" fill="#0B0B09"/>
    <path d="M398.541,233.844 C397.481,232.785 396.015,232.13 394.399,232.13 C392.78,232.13 391.315,232.785 390.256,233.844 C389.196,234.905 388.54,236.37 388.54,237.985 C388.54,239.603 389.196,241.069 390.256,242.129 C391.315,243.187 392.78,243.843 394.399,243.843 C396.015,243.843 397.481,243.187 398.541,242.129 C399.599,241.069 400.255,239.603 400.255,237.985 C400.255,236.37 399.599,234.905 398.541,233.844" fill="#F8C823"/>
    <path d="M122.512,134.682 L279.987,134.682 L279.987,250.57 L122.512,250.57 z" fill="#FFFFFE"/>
    <path d="M134.345,144.606 L269.519,144.606 L269.519,240.643 L132.977,240.643 L132.977,144.606 L134.345,144.606" fill="#0B0B09"/>
    <path d="M135.711,147.341 L266.787,147.341 L266.787,237.91 L135.711,237.91 z" fill="#6E89B8"/>
    <path d="M237.258,151.987 L224.255,151.987 L185.355,232.276 L198.358,232.276 L237.258,151.987 z M196.992,151.987 L219.536,151.987 L180.636,232.276 L158.092,232.276 L196.992,151.987" fill="#9CB1D0"/>
  </g>
</svg>
