<?xml version="1.0" encoding="UTF-8" standalone="no"?>
<!-- Created with Inkscape (http://www.inkscape.org/) -->
<svg xmlns:inkscape="http://www.inkscape.org/namespaces/inkscape" xmlns:rdf="http://www.w3.org/1999/02/22-rdf-syntax-ns#" xmlns="http://www.w3.org/2000/svg" xmlns:xlink="http://www.w3.org/1999/xlink" xmlns:ns1="http://sozi.baierouge.fr" xmlns:cc="http://creativecommons.org/ns#" xmlns:sodipodi="http://sodipodi.sourceforge.net/DTD/sodipodi-0.dtd" xmlns:dc="http://purl.org/dc/elements/1.1/" id="svg2" xml:space="preserve" viewBox="0 0 44 41.441" version="1.1" inkscape:version="0.91 r13725">
  <defs id="defs6">
    <linearGradient id="linearGradient24" y2="7.7998" gradientUnits="userSpaceOnUse" x2="39.863" gradientTransform="matrix(.8 0 0 -.8 0 33.16)" y1="7.7998" x1="2.6377">
      <stop id="stop26" style="stop-color:#b8d63a" offset="0"/>
      <stop id="stop28" style="stop-color:#a7c740" offset=".49020"/>
      <stop id="stop30" style="stop-color:#b8d63a" offset=".93330"/>
      <stop id="stop32" style="stop-color:#b8d63a" offset="1"/>
    </linearGradient>
    <linearGradient id="linearGradient46" y2="8.4746" gradientUnits="userSpaceOnUse" x2="44" gradientTransform="matrix(.8 0 0 -.8 0 33.16)" y1="8.4746">
      <stop id="stop48" style="stop-color:#dc6647" offset="0"/>
      <stop id="stop50" style="stop-color:#d7541b" offset=".49020"/>
      <stop id="stop52" style="stop-color:#d86f5a" offset="1"/>
    </linearGradient>
    <linearGradient id="linearGradient66" y2="-30.724" gradientUnits="userSpaceOnUse" x2="23.051" gradientTransform="matrix(.17872 -.77976 -.77976 -.17872 -.00035389 33.16)" y1="-30.724" x1="16.896">
      <stop id="stop68" style="stop-color:#9c340b" offset="0"/>
      <stop id="stop70" style="stop-color:#74240b" offset="1"/>
    </linearGradient>
    <linearGradient id="linearGradient86" y2="-34.173" gradientUnits="userSpaceOnUse" x2="36.091" gradientTransform="matrix(.000041344 -.8 -.8 .0008 .00027979 33.16)" y1="-34.173" x1="16.741">
      <stop id="stop88" style="stop-color:#9c340b" offset="0"/>
      <stop id="stop90" style="stop-color:#74240b" offset="1"/>
    </linearGradient>
    <linearGradient id="linearGradient106" y2="-41.147" gradientUnits="userSpaceOnUse" x2="36.384" gradientTransform="matrix(.0000399 -.8 -.8 .0008 .00020382 33.16)" y1="-41.147" x1="16.334">
      <stop id="stop108" style="stop-color:#76882b" offset="0"/>
      <stop id="stop110" style="stop-color:#526321" offset="1"/>
    </linearGradient>
    <linearGradient id="linearGradient126" y2="14.639" gradientUnits="userSpaceOnUse" x2="22.932" gradientTransform="matrix(.7488 .28168 .28168 -.7488 -.00025358 33.16)" y1="14.639" x1="8.8022">
      <stop id="stop128" style="stop-color:#ffdb5e" offset="0"/>
      <stop id="stop130" style="stop-color:#ffd84a" offset=".49020"/>
      <stop id="stop132" style="stop-color:#d4a911" offset=".98040"/>
      <stop id="stop134" style="stop-color:#d4a911" offset="1"/>
    </linearGradient>
    <linearGradient id="linearGradient148" y2="-27.256" gradientUnits="userSpaceOnUse" x2="7.8521" gradientTransform="matrix(.01688 -.79984 -.79984 -.01688 .00026299 33.16)" y1="-27.256" x1="4.3013">
      <stop id="stop150" style="stop-color:#d9ae11" offset="0"/>
      <stop id="stop152" style="stop-color:#ffd84a" offset=".49020"/>
      <stop id="stop154" style="stop-color:#d4a911" offset=".78040"/>
      <stop id="stop156" style="stop-color:#b8920e" offset="1"/>
    </linearGradient>
    <linearGradient id="linearGradient170" y2="6.2998" gradientUnits="userSpaceOnUse" x2="39.863" gradientTransform="matrix(.8 0 0 -.8 0 33.16)" y1="6.2998" x1="2.6377">
      <stop id="stop172" style="stop-color:#b8d63a" offset="0"/>
      <stop id="stop174" style="stop-color:#a7c740" offset=".49020"/>
      <stop id="stop176" style="stop-color:#b8d63a" offset=".93330"/>
      <stop id="stop178" style="stop-color:#b8d63a" offset="1"/>
    </linearGradient>
    <linearGradient id="linearGradient194" y2="3.6138" gradientUnits="userSpaceOnUse" x2="35.329" gradientTransform="matrix(.7868 -.14472 -.14472 -.7868 -.00018911 33.16)" y1="3.6138" x1="13.494">
      <stop id="stop196" style="stop-color:#ffdb5e" offset="0"/>
      <stop id="stop198" style="stop-color:#ffd84a" offset=".49020"/>
      <stop id="stop200" style="stop-color:#d4a911" offset=".78040"/>
      <stop id="stop202" style="stop-color:#b8920e" offset="1"/>
    </linearGradient>
    <linearGradient id="linearGradient218" y2="-35.252" gradientUnits="userSpaceOnUse" x2="36.04" gradientTransform="matrix(.0116 -.79992 -.79992 -.0116 .00016485 33.16)" y1="-35.252" x1="11.887">
      <stop id="stop220" style="stop-color:#d9ae11" offset="0"/>
      <stop id="stop222" style="stop-color:#ffd84a" offset=".49020"/>
      <stop id="stop224" style="stop-color:#d4a911" offset=".78040"/>
      <stop id="stop226" style="stop-color:#b8920e" offset="1"/>
    </linearGradient>
    <linearGradient id="linearGradient244" y2="5.5752" gradientUnits="userSpaceOnUse" x2="30.463" gradientTransform="matrix(.8 0 0 -.8 0 33.16)" y1="5.5752" x1="23.338">
      <stop id="stop246" style="stop-color:#756321" offset="0"/>
      <stop id="stop248" style="stop-color:#d4a911" offset=".78040"/>
      <stop id="stop250" style="stop-color:#b8920e" offset="1"/>
    </linearGradient>
    <linearGradient id="linearGradient264" y2="-21.856" gradientUnits="userSpaceOnUse" x2="9.8112" gradientTransform="matrix(.01496 -.79984 -.79984 -.01496 .00013717 33.16)" y1="-21.856" x1="5.8105">
      <stop id="stop266" style="stop-color:#d9ae11" offset="0"/>
      <stop id="stop268" style="stop-color:#ffd84a" offset=".49020"/>
      <stop id="stop270" style="stop-color:#d4a911" offset=".78040"/>
      <stop id="stop272" style="stop-color:#b8920e" offset="1"/>
    </linearGradient>
    <linearGradient id="linearGradient286" y2="3.6499" gradientUnits="userSpaceOnUse" x2="22.638" gradientTransform="matrix(.8 0 0 -.8 0 33.16)" y1="3.6499" x1="18.163">
      <stop id="stop288" style="stop-color:#756321" offset="0"/>
      <stop id="stop290" style="stop-color:#d4a911" offset=".78040"/>
      <stop id="stop292" style="stop-color:#b8920e" offset="1"/>
    </linearGradient>
    <linearGradient id="linearGradient306" y2="-20.945" gradientUnits="userSpaceOnUse" x2="5.8011" gradientTransform="matrix(.01576 -.79984 -.79984 -.01576 .0000103 33.16)" y1="-20.945" x1=".72510">
      <stop id="stop308" style="stop-color:#d9ae11" offset="0"/>
      <stop id="stop310" style="stop-color:#ffd84a" offset=".49020"/>
      <stop id="stop312" style="stop-color:#d4a911" offset=".78040"/>
      <stop id="stop314" style="stop-color:#b8920e" offset="1"/>
    </linearGradient>
    <linearGradient id="linearGradient328" y2="-17.394" gradientUnits="userSpaceOnUse" x2="7.4567" gradientTransform="matrix(.01736 -.79984 -.79984 -.01736 .00011129 33.16)" y1="-17.394" x1="4.0059">
      <stop id="stop330" style="stop-color:#d9ae11" offset="0"/>
      <stop id="stop332" style="stop-color:#ffd84a" offset=".49020"/>
      <stop id="stop334" style="stop-color:#d4a911" offset=".78040"/>
      <stop id="stop336" style="stop-color:#b8920e" offset="1"/>
    </linearGradient>
    <linearGradient id="linearGradient350" y2="5.1504" gradientUnits="userSpaceOnUse" x2="39.863" gradientTransform="matrix(.8 0 0 -.8 0 33.16)" y1="5.1504" x1="2.6377">
      <stop id="stop352" style="stop-color:#b8d63a" offset="0"/>
      <stop id="stop354" style="stop-color:#a7c740" offset=".49020"/>
      <stop id="stop356" style="stop-color:#b8d63a" offset=".93330"/>
      <stop id="stop358" style="stop-color:#b8d63a" offset="1"/>
    </linearGradient>
    <linearGradient id="linearGradient372" y2="11.375" gradientUnits="userSpaceOnUse" x2="39.863" gradientTransform="matrix(.8 0 0 -.8 0 33.16)" y1="11.375" x1="2.6377">
      <stop id="stop374" style="stop-color:#b8d63a" offset="0"/>
      <stop id="stop376" style="stop-color:#a7c740" offset=".49020"/>
      <stop id="stop378" style="stop-color:#b8d63a" offset=".93330"/>
      <stop id="stop380" style="stop-color:#b8d63a" offset="1"/>
    </linearGradient>
    <linearGradient id="linearGradient394" y2="9.625" gradientUnits="userSpaceOnUse" x2="39.863" gradientTransform="matrix(.8 0 0 -.8 0 33.16)" y1="9.625" x1="2.6377">
      <stop id="stop396" style="stop-color:#b8d63a" offset="0"/>
      <stop id="stop398" style="stop-color:#a7c740" offset=".49020"/>
      <stop id="stop400" style="stop-color:#b8d63a" offset=".93330"/>
      <stop id="stop402" style="stop-color:#b8d63a" offset="1"/>
    </linearGradient>
    <linearGradient id="linearGradient416" y2="-13.902" gradientUnits="userSpaceOnUse" x2="15.784" gradientTransform="matrix(-.07432 -.79656 -.79656 .07432 -.00071318 33.16)" y1="-13.902" x1="10.134">
      <stop id="stop418" style="stop-color:#dd5c29" offset="0"/>
      <stop id="stop420" style="stop-color:#bb491c" offset="1"/>
    </linearGradient>
    <linearGradient id="linearGradient434" y2="-20.872" gradientUnits="userSpaceOnUse" x2="39.574" gradientTransform="matrix(.03272 -.79936 -.79936 -.03272 -.00025950 33.16)" y1="-20.872" x1="18.782">
      <stop id="stop436" style="stop-color:#b0cc33" offset="0"/>
      <stop id="stop438" style="stop-color:#809436" offset="1"/>
    </linearGradient>
    <linearGradient id="linearGradient452" y2="-17.001" gradientUnits="userSpaceOnUse" x2="34.908" gradientTransform="matrix(-.07848 -.79616 -.79616 .07848 .00062738 33.16)" y1="-17.001" x1="16.821">
      <stop id="stop454" style="stop-color:#c54c15" offset="0"/>
      <stop id="stop456" style="stop-color:#a2370c" offset="1"/>
    </linearGradient>
    <linearGradient id="linearGradient472" y2="-30.498" gradientUnits="userSpaceOnUse" x2="36.395" gradientTransform="matrix(.0000399 -.8 -.8 .0008 .00020382 33.16)" y1="-30.498" x1="16.345">
      <stop id="stop474" style="stop-color:#76882b" offset="0"/>
      <stop id="stop476" style="stop-color:#526321" offset="1"/>
    </linearGradient>
    <linearGradient id="linearGradient490" y2="-38.61" gradientUnits="userSpaceOnUse" x2="36.387" gradientTransform="matrix(.0000399 -.8 -.8 .0008 .00020382 33.16)" y1="-38.61" x1="16.337">
      <stop id="stop492" style="stop-color:#76882b" offset="0"/>
      <stop id="stop494" style="stop-color:#526321" offset="1"/>
    </linearGradient>
    <linearGradient id="linearGradient508" y2="-32.723" gradientUnits="userSpaceOnUse" x2="36.391" gradientTransform="matrix(.0000399 -.8 -.8 .0008 .00020382 33.16)" y1="-32.723" x1="16.341">
      <stop id="stop510" style="stop-color:#76882b" offset="0"/>
      <stop id="stop512" style="stop-color:#526321" offset="1"/>
    </linearGradient>
    <linearGradient id="linearGradient526" y2="6.125" gradientUnits="userSpaceOnUse" x2="21.2" gradientTransform="matrix(.8 0 0 -.8 0 33.16)" y1="6.125" x1="14.5">
      <stop id="stop528" style="stop-color:#756321" offset="0"/>
      <stop id="stop530" style="stop-color:#d4a911" offset=".78040"/>
      <stop id="stop532" style="stop-color:#b8920e" offset="1"/>
    </linearGradient>
    <linearGradient id="linearGradient546" y2="8.1001" gradientUnits="userSpaceOnUse" x2="39.912" gradientTransform="matrix(.8 0 0 -.8 0 33.16)" y1="8.1001" x1="2.6875">
      <stop id="stop548" style="stop-color:#b8d63a" offset="0"/>
      <stop id="stop550" style="stop-color:#a7c740" offset=".49020"/>
      <stop id="stop552" style="stop-color:#b8d63a" offset=".93330"/>
      <stop id="stop554" style="stop-color:#b8d63a" offset="1"/>
    </linearGradient>
    <linearGradient id="linearGradient568" y2="6.8252" gradientUnits="userSpaceOnUse" x2="39.863" gradientTransform="matrix(.8 0 0 -.8 0 33.16)" y1="6.8252" x1="2.6377">
      <stop id="stop570" style="stop-color:#b8d63a" offset="0"/>
      <stop id="stop572" style="stop-color:#a7c740" offset=".49020"/>
      <stop id="stop574" style="stop-color:#b8d63a" offset=".93330"/>
      <stop id="stop576" style="stop-color:#b8d63a" offset="1"/>
    </linearGradient>
    <linearGradient id="linearGradient590" y2="-12.11" gradientUnits="userSpaceOnUse" x2="38.186" gradientTransform="matrix(.01592 -.79984 -.79984 -.01592 -.00017369 33.16)" y1="-12.11" x1="11.806">
      <stop id="stop592" style="stop-color:#d9ae11" offset="0"/>
      <stop id="stop594" style="stop-color:#ffd84a" offset=".49020"/>
      <stop id="stop596" style="stop-color:#d4a911" offset=".78040"/>
      <stop id="stop598" style="stop-color:#b8920e" offset="1"/>
    </linearGradient>
    <linearGradient id="linearGradient612" y2="8.9751" gradientUnits="userSpaceOnUse" x2="39.863" gradientTransform="matrix(.8 0 0 -.8 0 33.16)" y1="8.9751" x1="2.6377">
      <stop id="stop614" style="stop-color:#b8d63a" offset="0"/>
      <stop id="stop616" style="stop-color:#a7c740" offset=".49020"/>
      <stop id="stop618" style="stop-color:#b8d63a" offset=".93330"/>
      <stop id="stop620" style="stop-color:#b8d63a" offset="1"/>
    </linearGradient>
    <linearGradient id="linearGradient634" y2="-3.6982" gradientUnits="userSpaceOnUse" x2="39.572" gradientTransform="matrix(.03272 -.79936 -.79936 -.03272 -.00025950 33.16)" y1="-3.6982" x1="18.78">
      <stop id="stop636" style="stop-color:#b0cc33" offset="0"/>
      <stop id="stop638" style="stop-color:#809436" offset="1"/>
    </linearGradient>
    <linearGradient id="linearGradient652" y2="-6.5645" gradientUnits="userSpaceOnUse" x2="39.56" gradientTransform="matrix(.03272 -.79936 -.79936 -.03272 -.00025950 33.16)" y1="-6.5645" x1="18.767">
      <stop id="stop654" style="stop-color:#b0cc33" offset="0"/>
      <stop id="stop656" style="stop-color:#809436" offset="1"/>
    </linearGradient>
    <linearGradient id="linearGradient670" y2="-16.315" gradientUnits="userSpaceOnUse" x2="39.565" gradientTransform="matrix(.03272 -.79936 -.79936 -.03272 -.00025950 33.16)" y1="-16.315" x1="18.773">
      <stop id="stop672" style="stop-color:#b0cc33" offset="0"/>
      <stop id="stop674" style="stop-color:#809436" offset="1"/>
    </linearGradient>
    <linearGradient id="linearGradient688" y2="-2.9614" gradientUnits="userSpaceOnUse" x2="39.592" gradientTransform="matrix(.03272 -.79936 -.79936 -.03272 -.00025950 33.16)" y1="-2.9614" x1="18.799">
      <stop id="stop690" style="stop-color:#b0cc33" offset="0"/>
      <stop id="stop692" style="stop-color:#809436" offset="1"/>
    </linearGradient>
    <linearGradient id="linearGradient706" y2="-19.727" gradientUnits="userSpaceOnUse" x2="39.577" gradientTransform="matrix(.03272 -.79936 -.79936 -.03272 -.00025950 33.16)" y1="-19.727" x1="18.785">
      <stop id="stop708" style="stop-color:#b0cc33" offset="0"/>
      <stop id="stop710" style="stop-color:#809436" offset="1"/>
    </linearGradient>
    <linearGradient id="linearGradient724" y2="-38.647" gradientUnits="userSpaceOnUse" x2="36.387" gradientTransform="matrix(.0000399 -.8 -.8 .0008 .00020382 33.16)" y1="-38.647" x1="16.337">
      <stop id="stop726" style="stop-color:#76882b" offset="0"/>
      <stop id="stop728" style="stop-color:#526321" offset="1"/>
    </linearGradient>
    <linearGradient id="linearGradient742" y2="-30.247" gradientUnits="userSpaceOnUse" x2="36.395" gradientTransform="matrix(.0000399 -.8 -.8 .0008 .00020382 33.16)" y1="-30.247" x1="16.345">
      <stop id="stop744" style="stop-color:#76882b" offset="0"/>
      <stop id="stop746" style="stop-color:#526321" offset="1"/>
    </linearGradient>
    <linearGradient id="linearGradient760" y2="-27.072" gradientUnits="userSpaceOnUse" x2="36.398" gradientTransform="matrix(.0000399 -.8 -.8 .0008 .00020382 33.16)" y1="-27.072" x1="16.348">
      <stop id="stop762" style="stop-color:#76882b" offset="0"/>
      <stop id="stop764" style="stop-color:#526321" offset="1"/>
    </linearGradient>
    <linearGradient id="linearGradient778" y2="-23.447" gradientUnits="userSpaceOnUse" x2="39.567" gradientTransform="matrix(.03272 -.79936 -.79936 -.03272 -.00025950 33.16)" y1="-23.447" x1="18.775">
      <stop id="stop780" style="stop-color:#b0cc33" offset="0"/>
      <stop id="stop782" style="stop-color:#809436" offset="1"/>
    </linearGradient>
  </defs>
  <g id="g10" transform="matrix(1.25 0 0 -1.25 0 41.441)">
    <g id="g12">
      <g id="g14">
        <g id="g16">
          <g id="g22">
            <path id="path34" style="fill-rule:evenodd;fill:url(#linearGradient24)" d="m31.801 26.321-0.121-0.039-1.719 0.316h-0.481l-1.64 0.203c0.453 0 1.055 0.028 1.801 0.078 0.05 0.028 0.105 0.039 0.16 0.039l-0.68 0.082c0.453 0 1.012 0.028 1.68 0.079l-0.602 0.121c0.508 0 1.11 0.027 1.801 0.082l-0.48 0.078c0.425 0 0.933 0.039 1.519 0.121 0.238 0 0.453 0.012 0.641 0.039 0.027 0.027 0.054 0.039 0.082 0.039l0.117-0.039-0.199-0.121c-0.106-0.133-0.106-0.227 0-0.277l-0.559 0.039c-0.109-0.133-0.094-0.243 0.039-0.321l-0.68 0.039c-0.054-0.105-0.027-0.199 0.079-0.281l-0.797 0.082v-0.082c-0.028-0.078-0.016-0.172 0.039-0.277z" inkscape:connector-curvature="0"/>
          </g>
        </g>
      </g>
      <g id="g36">
        <g id="g38">
          <g id="g44">
            <path id="path54" style="fill-rule:evenodd;fill:url(#linearGradient46)" d="m26.281 28.399 7.399-0.879c-0.188-0.027-0.399-0.039-0.641-0.039-0.586-0.082-1.094-0.121-1.519-0.121l0.48-0.078c-0.691-0.055-1.293-0.082-1.801-0.082l0.602-0.121c-0.668-0.051-1.227-0.079-1.68-0.079l0.68-0.082c-0.055 0-0.11-0.011-0.16-0.039-0.746-0.05-1.348-0.078-1.801-0.078l1.64-0.203-0.8-0.199 0.8-0.078 0.758 0.199-0.277 0.078 1.719-0.316-1.481-0.403-4.918 0.762c0.16 0.078 0.145 0.133-0.043 0.16-0.133 0.028-0.316 0.028-0.558 0 0 0.028 0.015 0.067 0.043 0.117 0.05 0.188 0.039 0.336-0.043 0.442 0.32 0.105 0.574 0.238 0.761 0.398h0.161l-0.082 0.082c0.054 0.078 0.105 0.145 0.16 0.199l0.441-0.039c-0.109 0.079-0.109 0.172 0 0.282l0.16 0.117zm7.598-0.879 1.32-0.16-3.398-1.039c-0.055 0.105-0.067 0.199-0.039 0.277v0.082l0.797-0.082c-0.106 0.082-0.133 0.176-0.079 0.281l0.68-0.039c-0.133 0.078-0.148 0.188-0.039 0.321l0.559-0.039c-0.106 0.05-0.106 0.144 0 0.277l0.199 0.121zm-7.918 0.922-0.199-0.043v0.043h0.199zm-22.242-2.762l0.402-0.039h-0.082l-0.32 0.039zm-0.078 0-0.403-0.121c-1.039 0.188-2.117 0.375-3.238 0.563 2.094 0.539 3.867 0.992 5.32 1.359h0.02l0.422-0.039-0.684-0.16 0.723-0.082 0.719 0.16 1.441-0.16c-0.106 0.082-0.106 0.187 0 0.32l0.437-0.039c1.067-0.188 2.055-0.359 2.961-0.52v-0.121c0.133-0.027 0.282-0.054 0.442-0.082h-0.602l1.16-0.16c-1.574-0.426-3.414-0.934-5.519-1.519v-0.04c-0.934 0.133-1.895 0.282-2.879 0.442l0.398 0.078 1.442-0.199c-0.106 0.082-0.106 0.199 0 0.359l0.719-0.078c-0.079 0.078-0.079 0.184 0 0.32l0.64-0.082c-0.105 0.082-0.105 0.188 0 0.321l0.52-0.039c-0.078 0.054-0.055 0.144 0.082 0.281l0.316 0.156h-0.039l-0.84-0.078c-0.558-0.078-1.039-0.121-1.437-0.121l0.398-0.039 0.039-0.039c-0.664-0.055-1.238-0.082-1.719-0.082l0.52-0.078c-0.613-0.055-1.133-0.082-1.559-0.082l0.598-0.118-1.84-0.121 0.762-0.121c0.16-0.027 0.387-0.039 0.68-0.039zm4.359 2.481-0.32-0.082h-0.039c0.16 0.054 0.32 0.093 0.48 0.121l0.758 0.16-0.68-0.16h-0.078l-0.121-0.039zm10.84 1.078-0.52-0.039c-0.082 0-0.148-0.012-0.199-0.039 0 0.078 0.012 0.132 0.039 0.16l0.68-0.082zm-1.52-5.68c-0.425 0.082-0.894 0.16-1.398 0.242-1.016 0.184-1.961 0.332-2.844 0.438 0.961 0.375 1.867 0.695 2.723 0.961 0.187-0.078 0.426-0.121 0.719-0.121 1.253 0 2.082 0.043 2.48 0.121 0.215 0.027 0.453 0.082 0.719 0.16h0.242l0.758 0.16 1.203-0.16 4.277-0.641v-0.039c-0.984-0.293-2.16-0.601-3.519-0.922-1.387-0.316-2.348-0.531-2.879-0.636-0.403 0.078-1.016 0.183-1.84 0.32l0.719 0.156 1.558-0.199c-0.105 0.109-0.105 0.242 0 0.402l0.762-0.082c-0.109 0.082-0.121 0.172-0.039 0.281l0.641-0.039c-0.11 0.078-0.11 0.184 0 0.321l0.558-0.043c-0.105 0.082-0.094 0.175 0.039 0.281 0.055 0.055 0.149 0.121 0.281 0.199l-0.878-0.121c-0.614-0.051-1.137-0.078-1.563-0.078l0.481-0.078-1.797-0.121 0.558-0.082c-0.64-0.051-1.187-0.078-1.64-0.078l0.64-0.122-1.961-0.121 1.602-0.199-0.602-0.16zm1.52 5.402c0.16-0.027 0.398-0.121 0.719-0.281h-0.039c-0.079 0.027-0.172 0.055-0.282 0.078-0.133 0.028-0.449 0.043-0.957 0.043l0.039 0.039c0.078 0.028 0.172 0.039 0.282 0.039h0.277c-0.027 0.028-0.039 0.055-0.039 0.082zm4.441-4.203c0.211 0.082 0.211 0.137 0 0.16-0.187 0.028-0.441 0.016-0.761-0.039-0.293-0.05-0.305-0.105-0.04-0.16l0.122 0.039-0.082-0.039c0.187-0.027 0.441-0.012 0.761 0.039zm-9.519 4.684 0.879 0.199c0.078 0 0.16-0.016 0.238-0.043 0.082-0.133 0.187-0.25 0.32-0.359 0.055-0.051 0.121-0.106 0.199-0.16-0.453-0.079-0.796-0.118-1.039-0.118-0.293 0-0.652 0.024-1.078 0.078 0.16 0.188 0.321 0.321 0.481 0.403zm-4.922-2.801c0.187 0.078 0.187 0.133 0 0.16-0.16 0.028-0.399 0.012-0.719-0.043-0.293-0.051-0.309-0.105-0.043-0.16l0.082 0.043-0.039-0.043c0.32 0 0.559 0.016 0.719 0.043z" inkscape:connector-curvature="0"/>
          </g>
        </g>
      </g>
      <g id="g56">
        <g id="g58">
          <g id="g64">
            <path id="path72" style="fill-rule:evenodd;fill:url(#linearGradient66)" d="m30.441 25.758 4.758 1.602v-3.918l-0.961-0.403-4.199-1.679v0.558c0.027 0.563 0.066 1.082 0.121 1.563 0 0.16 0.012 0.32 0.039 0.48 0.028 0.321 0.055 0.625 0.082 0.918l0.16 0.879zm-4.203-1.398 0.16-4.442c-1.492-0.613-3.546-1.492-6.16-2.636h-0.039v5.398c2.375 0.641 4.387 1.199 6.039 1.68z" inkscape:connector-curvature="0"/>
          </g>
        </g>
      </g>
      <path id="path74" style="fill-rule:evenodd;fill:#9e8838" d="m33.078 18.801c0.188 0.051 0.281-0.066 0.281-0.359 0-0.297-0.093-0.481-0.281-0.563v0.039l-0.039 0.082v-0.121c-0.051-0.05-0.117-0.039-0.199 0.039-0.051 0.082-0.078 0.176-0.078 0.282 0 0.293 0.105 0.492 0.316 0.601zm-11.719-4.922c0.215 0.106 0.321-0.011 0.321-0.359 0-0.266-0.106-0.481-0.321-0.641v0.039l-0.039 0.121v-0.16c-0.187-0.054-0.281 0.067-0.281 0.36 0 0.32 0.109 0.535 0.32 0.64zm8.801-4.078v0.957c0 0.028 0.012 0.043 0.039 0.043 0.215 0.106 0.321-0.015 0.321-0.359 0-0.293-0.106-0.496-0.321-0.602l-0.039-0.039zm-5.84-1.679c0.188 0.078 0.282-0.043 0.282-0.364 0-0.316-0.11-0.519-0.321-0.597v-0.039c-0.215-0.055-0.32 0.066-0.32 0.359 0.051 0.344 0.172 0.558 0.359 0.641z" inkscape:connector-curvature="0"/>
      <g id="g76">
        <g id="g78">
          <g id="g84">
            <path id="path92" style="fill-rule:evenodd;fill:url(#linearGradient86)" d="m34.281 13.442v-6.801l-2.359-1.359c-0.535-0.297-1.016-0.563-1.442-0.801v0.437c0.161 0 0.321 0.043 0.481 0.121l0.719 0.442c-0.239 0.133-0.492 0.398-0.758 0.801l0.558 0.316c-0.214 0.109-0.441 0.336-0.679 0.684l0.48 0.277c-0.242 0.109-0.469 0.359-0.679 0.762l0.398 0.199c-0.215 0.105-0.398 0.332-0.559 0.68-0.109 0.16-0.187 0.375-0.242 0.64v-0.039c0-0.027-0.011-0.066-0.039-0.121v0.121l0.039 0.039c0.215 0.106 0.321 0.309 0.321 0.602 0 0.344-0.106 0.465-0.321 0.359-0.027 0-0.039-0.015-0.039-0.043-0.055 2.774-0.094 5.055-0.121 6.84l0.52 0.242v0.918c0.214 0 0.375 0.028 0.48 0.082l0.723 0.36c-0.242 0.16-0.496 0.441-0.762 0.839l0.52 0.282c-0.188 0.105-0.387 0.304-0.598 0.597l3.277 1.403 0.039 0.718-0.039-5c0.028-0.558 0.055-1.664 0.082-3.32-0.215 0.106-0.414 0.32-0.601 0.641l0.441 0.238c-0.215 0.137-0.441 0.387-0.68 0.762h0.039l0.36 0.199c-0.188 0.105-0.375 0.336-0.559 0.68l-0.203 0.601v0.039h-0.039v-0.039c0-0.082-0.066-0.347-0.199-0.801-0.188-0.48-0.375-0.867-0.559-1.16l0.36 0.121 0.039 0.039c-0.239-0.585-0.465-1.039-0.68-1.359l0.441 0.16c-0.214-0.535-0.429-0.949-0.64-1.242l0.519 0.16c-0.265-0.64-0.519-1.133-0.761-1.48 0.187 0.027 0.429 0.109 0.718 0.242l0.485 0.32v-0.918l0.597 0.278v0.879l0.481 0.121 0.441 0.242zm0 0.316-0.519 0.641 0.519 0.242v-0.883zm-5-9.879c0.106 0.055 0.227 0.121 0.36 0.2l0.238 0.16v-0.078c-0.211-0.11-0.414-0.2-0.598-0.282zm-2.722 6.082v-0.203c-0.079-2.344-0.118-4.73-0.118-7.16-0.695-0.289-1.546-0.68-2.562-1.156-0.906-0.43-1.918-0.91-3.039-1.442-0.106 2.375-0.188 4.442-0.238 6.2v0.48c-0.028 0.133-0.043 0.266-0.043 0.402v0.2l0.363 0.238v-0.961l0.637 0.281 0.043 1 0.519 0.121 0.758 0.438c-0.266 0.133-0.531 0.414-0.801 0.84l0.602 0.32c-0.242 0.109-0.481 0.336-0.719 0.68l0.519 0.281c-0.242 0.133-0.48 0.398-0.718 0.801l0.437 0.199c-0.238 0.105-0.453 0.348-0.637 0.719l-0.203 0.64h-0.039c0-0.16-0.082-0.441-0.242-0.84-0.211-0.453-0.414-0.851-0.598-1.199-0.027 0.692-0.042 1.254-0.042 1.68l-0.04 3.961 3.282 1.398c-0.215-0.425-0.414-0.757-0.602-1 0.133 0 0.336 0.055 0.602 0.16-0.055-0.105-0.094-0.214-0.121-0.32-0.266-0.508-0.52-0.906-0.758-1.199 0.211 0.027 0.465 0.105 0.758 0.238l0.562 0.321-0.043-0.957 0.641 0.277v0.922l0.519 0.121 0.762 0.398c-0.266 0.133-0.535 0.414-0.801 0.84l0.563 0.281c-0.188 0.106-0.375 0.293-0.563 0.559l1.242 0.519v-0.48c0.079-2 0.133-3.691 0.161-5.078-0.028-0.027-0.055-0.055-0.082-0.082h0.082v-0.602c-0.137-0.238-0.27-0.449-0.403-0.636 0.11 0 0.242 0.023 0.403 0.078v-0.117c-0.215-0.454-0.414-0.817-0.602-1.083l0.559 0.161c-0.293-0.668-0.559-1.176-0.797-1.52 0.183 0.027 0.426 0.106 0.718 0.238 0.028 0 0.055 0.016 0.079 0.043zm6.519 8.84c-0.211-0.109-0.316-0.308-0.316-0.601 0-0.106 0.027-0.2 0.078-0.282 0.082-0.078 0.148-0.093 0.199-0.039v0.121l0.043-0.082v-0.039c0.184 0.082 0.281 0.266 0.281 0.563 0 0.293-0.097 0.41-0.285 0.359zm-11.719-4.922c-0.214-0.105-0.32-0.32-0.32-0.64 0-0.293 0.094-0.414 0.281-0.36v0.16l0.039-0.121v-0.039c0.215 0.16 0.321 0.375 0.321 0.641 0 0.348-0.106 0.465-0.321 0.359zm2.563-12.121-0.043-0.316 0.641 0.316 0.039 0.321 0.519 0.121 0.723 0.441c-0.242 0.133-0.508 0.414-0.801 0.84l0.602 0.359c-0.215 0.106-0.442 0.321-0.68 0.641l0.476 0.32c-0.238 0.106-0.476 0.36-0.718 0.758h0.039l0.402 0.242c-0.215 0.106-0.414 0.332-0.601 0.68-0.055 0.078-0.133 0.293-0.243 0.641-0.105-0.426-0.183-0.708-0.238-0.84-0.215-0.563-0.426-0.989-0.641-1.282l0.403 0.161h0.039c-0.266-0.641-0.52-1.133-0.762-1.481l0.481 0.199c-0.239-0.586-0.481-1.039-0.719-1.359 0.16 0.027 0.359 0.094 0.601 0.199-0.293-0.691-0.574-1.226-0.839-1.597 0.183 0.023 0.437 0.117 0.757 0.277 0.106 0.055 0.293 0.176 0.563 0.359zm0.398 6.364c-0.187-0.083-0.308-0.297-0.359-0.641 0-0.293 0.105-0.414 0.316-0.359v0.039c0.215 0.078 0.321 0.281 0.321 0.597 0 0.321-0.09 0.442-0.278 0.364zm-3.84 2.16v0.476l0.36 0.16h0.039l-0.399-0.839v0.203zm0.04-0.84c-0.028 0.051-0.028 0.105 0 0.156l0.082 0.043-0.082-0.199z" inkscape:connector-curvature="0"/>
          </g>
        </g>
      </g>
      <path id="path94" style="fill-rule:evenodd;fill:#591f07" d="m30.922 20.918-0.883-0.359c-0.027 0.293-0.027 0.563 0 0.801l4.199 1.679-0.039-0.718-3.277-1.403zm-4.524-1 0.043-0.879-1.242-0.519-1.519-0.641-3.282-1.398-0.117-0.039-0.801 1 0.719-0.16h0.039c2.614 1.144 4.668 2.023 6.16 2.636z" inkscape:connector-curvature="0"/>
      <g id="g96">
        <g id="g98">
          <g id="g104">
            <path id="path112" style="fill-rule:evenodd;fill:url(#linearGradient106)" d="m34.281 14.641-0.519-0.242 0.519-0.641v-0.316l-0.441-0.242-0.481-0.121-0.32 0.043-0.277-0.282-0.481-0.32c-0.293-0.133-0.535-0.215-0.719-0.238 0.239 0.343 0.493 0.84 0.758 1.476l-0.519-0.16c0.215 0.297 0.426 0.711 0.64 1.242l-0.441-0.16c0.215 0.32 0.441 0.774 0.68 1.359l-0.039-0.039-0.36-0.121c0.184 0.293 0.371 0.68 0.559 1.16 0.133 0.454 0.199 0.719 0.199 0.801v0.039h0.039v-0.039l0.203-0.601c0.184-0.348 0.371-0.575 0.559-0.68l-0.36-0.199h-0.039c0.239-0.375 0.465-0.625 0.68-0.762l-0.441-0.238c0.187-0.321 0.386-0.535 0.601-0.641v-0.078z" inkscape:connector-curvature="0"/>
          </g>
        </g>
      </g>
      <path id="path114" style="fill-rule:evenodd;fill:#904c0b" d="m29.961 26.598 0.277-0.078-0.758-0.199-0.8 0.078 0.8 0.199h0.481zm0.519-21.68v-0.437l-0.601-0.32v0.078l0.402 0.281v0.402h0.199v-0.004zm2.879 8.161v-0.879l-0.597-0.282v0.922l0.277 0.282 0.32-0.043zm-13.121 12.519 0.403-0.039 0.078-0.039-0.758-0.16h-0.242c0.109 0.054 0.215 0.105 0.32 0.16 0.082 0.027 0.149 0.055 0.199 0.078zm-2.316-1.879h0.516l0.242-0.121-0.719-0.156c-0.215 0.051-0.43 0.09-0.641 0.117l0.602 0.16zm-0.043-9.398-0.039-0.879-0.801 0.156 0.039 0.883 0.402 0.078 0.36-0.199 0.039-0.039zm6.84 2v-0.922l-0.641-0.277 0.043 0.957 0.277 0.281 0.321-0.039zm5.84 2.437v-0.918l-0.52-0.242v0.961l0.242 0.199h0.278zm-24.797 8.684h0.519l0.239-0.082-0.719-0.16-0.723 0.082 0.684 0.16zm-2.121-1.762h0.078l0.32-0.039h0.082l0.238-0.082-0.398-0.078c-0.242 0.027-0.481 0.051-0.723 0.078l0.403 0.121zm0.078-8.84-0.039-0.879-0.68 0.161 0.039 0.839c0.16 0 0.266 0.024 0.32 0.078l0.36-0.199zm3.242-7.039-0.039-0.84-0.684 0.118v0.839l0.364 0.082 0.359-0.199zm7.039-1.402-0.039-0.879l-0.723 0.16 0.043 0.879 0.36 0.082c0.105-0.109 0.226-0.187 0.359-0.242zm-10.52-4.117-0.039-0.442-0.679 0.199v0.403l0.359 0.039 0.32-0.199h0.039zm14-3.082-0.039-0.442-0.761 0.16 0.039 0.442 0.359 0.082 0.402-0.242zm7.079 0.879-0.039-0.321-0.641-0.316 0.043 0.316 0.277 0.321h0.36zm-2.957 5.761-0.043-1-0.637-0.281v0.961l0.316 0.32h0.364zm-1-1.16v-0.48h-0.043l0.043 0.48z" inkscape:connector-curvature="0"/>
      <g id="g116">
        <g id="g118">
          <g id="g124">
            <path id="path136" style="fill-rule:evenodd;fill:url(#linearGradient126)" d="m25.762 28.481v0.039h0.039l-0.039-0.039zm-5.641-0.082c0.293-0.106 0.531-0.211 0.719-0.32-0.16 0.027-0.309 0.043-0.442 0.043-0.078 0.105-0.171 0.199-0.277 0.277zm-13.281-3.32c2.105 0.585 3.949 1.093 5.519 1.519 0.133 0.055 0.266 0.094 0.403 0.121 0.05 0 0.105 0.016 0.16 0.039 0.156 0 0.332 0.016 0.519 0.043 0.426 0.051 0.786 0.078 1.079 0.078-0.051-0.215-0.04-0.425 0.039-0.64 0.109-0.321 0.386-0.547 0.839-0.68 0.055-0.16 0.188-0.277 0.403-0.359-0.856-0.266-1.762-0.586-2.723-0.961-0.078 0-0.144-0.012-0.199-0.039l-0.559 0.082c-0.293 0.05-0.773 0.117-1.441 0.199-0.211 0.051-0.453 0.094-0.719 0.117-0.187 0.027-0.387 0.055-0.601 0.082l-2.719 0.399z" inkscape:connector-curvature="0"/>
          </g>
        </g>
      </g>
      <g id="g138">
        <g id="g140">
          <g id="g146">
            <path id="path158" style="fill-rule:evenodd;fill:url(#linearGradient148)" d="m20.121 29.641c-0.16-0.082-0.348-0.187-0.562-0.32-0.079-0.055-0.145-0.094-0.2-0.121-0.214-0.106-0.386-0.188-0.519-0.239h-0.039c-0.082-0.027-0.149-0.054-0.199-0.082-0.11 0-0.204-0.011-0.282-0.039-0.082 0-0.175-0.015-0.281-0.039l0.602 0.238 0.359 0.161c0.027 0.027 0.051 0.039 0.078 0.039 0.137 0.136 0.281 0.254 0.442 0.359 0.32 0.242 0.613 0.402 0.878 0.481 0.641 0.242 1.454 0.335 2.442 0.281 1.625-0.16 2.547-0.492 2.762-1 0.132-0.293 0.183-0.574 0.16-0.84v-0.121c0-0.106-0.028-0.227-0.082-0.36-0.055-0.054-0.106-0.121-0.16-0.199-0.028-0.027-0.055-0.054-0.082-0.082-0.184-0.16-0.438-0.293-0.758-0.398-0.239-0.055-0.52-0.094-0.84-0.121-1.762-0.16-2.625 0.027-2.602 0.562 0.082 0 0.16-0.015 0.242-0.043h0.801c0.266 0.028 0.465 0.094 0.598 0.203 0.055 0.078 0.094 0.161 0.121 0.239 0.078 0.187 0.094 0.453 0.039 0.8-0.027 0.266-0.078 0.465-0.16 0.598-0.051 0.055-0.09 0.094-0.117 0.121-0.403 0.426-1.215 0.426-2.442 0-0.054-0.027-0.121-0.055-0.199-0.078z" inkscape:connector-curvature="0"/>
          </g>
        </g>
      </g>
      <g id="g160">
        <g id="g162">
          <g id="g168">
            <path id="path180" style="fill-rule:evenodd;fill:url(#linearGradient170)" d="m25.961 28.442 0.437 0.039-0.117-0.082-0.16-0.117c-0.109-0.11-0.109-0.203 0-0.282l-0.441 0.039c0.054 0.133 0.082 0.254 0.082 0.36l0.199 0.043zm-0.441-0.602l0.082-0.082h-0.161c0.024 0.028 0.051 0.055 0.079 0.082z" inkscape:connector-curvature="0"/>
          </g>
        </g>
      </g>
      <path id="path182" style="fill-rule:evenodd;fill:#f2d156" d="m24.68 26.801c0.242 0.028 0.425 0.028 0.558 0 0.188-0.027 0.203-0.082 0.043-0.16h-0.043l-0.597 0.078c0 0.028 0.011 0.055 0.039 0.082zm-1.399-2.043c-0.32-0.051-0.574-0.066-0.761-0.039l0.082 0.039-0.122-0.039c-0.265 0.055-0.253 0.106 0.043 0.16 0.317 0.055 0.571 0.067 0.758 0.039 0.211-0.023 0.211-0.078 0-0.16zm-14.441 1.883c-0.16-0.027-0.399-0.043-0.719-0.043l0.039 0.043-0.082-0.043c-0.266 0.055-0.25 0.109 0.043 0.16 0.32 0.055 0.559 0.067 0.719 0.043 0.187-0.027 0.187-0.082 0-0.16zm-2.481-11.68c0 0.293 0.121 0.414 0.36 0.36 0.242 0 0.359-0.16 0.359-0.481 0-0.265-0.117-0.402-0.359-0.402v0.043c-0.239 0.051-0.36 0.211-0.36 0.48zm7.039-1.281c0 0.32 0.137 0.453 0.403 0.399 0.238-0.051 0.359-0.227 0.359-0.52-0.055-0.293-0.187-0.414-0.398-0.359-0.242 0.054-0.364 0.214-0.364 0.48zm-10.199-3.961c0.242-0.051 0.36-0.211 0.36-0.48 0-0.293-0.118-0.414-0.36-0.36-0.265 0.055-0.371 0.215-0.32 0.481 0 0.293 0.109 0.414 0.32 0.359zm13.641-3.199c0.055 0.32 0.187 0.453 0.398 0.398 0.27-0.078 0.403-0.265 0.403-0.558s-0.133-0.414-0.403-0.36v0.122l-0.039-0.122c-0.238 0.051-0.359 0.227-0.359 0.52z" inkscape:connector-curvature="0"/>
      <g id="g184">
        <g id="g186">
          <g id="g192">
            <path id="path204" style="fill-rule:evenodd;fill:url(#linearGradient194)" d="m8.398 27.481c-0.586 0.105-1.199 0.211-1.839 0.32l0.519 0.117h0.043l0.559 0.161 0.32 0.082 0.199 0.039 0.68 0.16 0.242 0.039 1.238 0.32v-0.121c0.082-0.398 0.309-0.719 0.68-0.957 0.133-0.082 0.336-0.148 0.602-0.199-0.055-0.055-0.094-0.11-0.121-0.16-0.106-0.11-0.161-0.215-0.161-0.321-0.906 0.161-1.894 0.332-2.961 0.52zm17.801-2.762-4.277 0.641-1.281 0.199-0.403 0.039c0 0.027 0.016 0.043 0.043 0.043 0.293 0.16 0.52 0.277 0.68 0.359 0.105 0.028 0.801 0.067 2.078 0.122 0.188 0 0.359 0.011 0.52 0.039 0.027 0.027 0.054 0.039 0.082 0.039 0.16 0.027 0.304 0.066 0.437 0.121 0.188 0.078 0.336 0.172 0.442 0.277 0.027 0 0.042 0.016 0.042 0.043l0.079 0.078 0.601-0.078h0.039l4.918-0.762c-1.199-0.425-2.371-0.8-3.519-1.121-0.266-0.051-0.426-0.066-0.481-0.039zm-13.437 3.082v0.117l0.117-0.117h-0.117zm0-1.082h-0.16c0.078 0.028 0.183 0.039 0.32 0.039-0.055-0.023-0.11-0.039-0.16-0.039z" inkscape:connector-curvature="0"/>
          </g>
        </g>
      </g>
      <path id="path206" style="fill-rule:evenodd;fill:#5e4b07" d="m24.641 26.719c-0.028-0.027-0.055-0.055-0.082-0.078 0-0.027-0.012-0.043-0.039-0.043-0.106-0.105-0.254-0.199-0.442-0.277-0.133-0.055-0.277-0.094-0.437-0.121-0.028 0-0.055-0.012-0.082-0.039-0.161-0.028-0.332-0.039-0.52-0.039-1.281-0.055-1.973-0.094-2.078-0.122-0.16-0.082-0.387-0.199-0.68-0.359-0.027 0-0.043-0.016-0.043-0.043-0.05-0.023-0.117-0.051-0.199-0.078-0.105-0.055-0.211-0.106-0.316-0.16-0.27-0.078-0.508-0.133-0.723-0.16-0.398-0.078-1.227-0.121-2.48-0.121-0.293 0-0.532 0.043-0.719 0.121-0.215 0.082-0.348 0.199-0.399 0.359 0.293-0.078 0.692-0.117 1.2-0.117 0.746 0 1.574 0.105 2.48 0.316 0.586 0.137 1.027 0.364 1.32 0.684 0.344 0.371 0.41 0.824 0.2 1.359-0.055 0.133-0.122 0.238-0.2 0.321 0.133 0 0.278-0.016 0.438-0.043h0.082c0.215-0.106 0.398-0.211 0.558-0.321-0.078 0.028-0.16 0.043-0.238 0.043-0.027-0.535 0.84-0.722 2.598-0.562 0.32 0.027 0.601 0.066 0.84 0.121 0.082-0.106 0.093-0.254 0.039-0.442-0.028-0.05-0.039-0.093-0.039-0.117-0.028-0.027-0.039-0.054-0.039-0.082zm-12.039 0c-0.297 0-0.563 0.016-0.801 0.039-0.16 0.028-0.309 0.055-0.442 0.082v0.121c0 0.106 0.055 0.211 0.161 0.321 0.027 0.05 0.066 0.105 0.121 0.16 0.371-0.082 0.867-0.121 1.48-0.121-0.215 0.105-0.336 0.265-0.359 0.48h0.117l0.242-0.32c0.504-0.082 1.117-0.039 1.84 0.117-0.242-0.238-0.387-0.476-0.441-0.719-0.293 0-0.653-0.027-1.079-0.078-0.187-0.027-0.363-0.043-0.519-0.043-0.137 0-0.242-0.011-0.32-0.039z" inkscape:connector-curvature="0"/>
      <g id="g208">
        <g id="g210">
          <g id="g216">
            <path id="path228" style="fill-rule:evenodd;fill:url(#linearGradient218)" d="m30.039 17.598c0.027-1.785 0.066-4.066 0.121-6.84v-1.078c0.028-1.465 0.067-3.055 0.117-4.758v-0.402l-0.398-0.281-0.238-0.157c-0.133-0.082-0.254-0.148-0.364-0.203-0.343-0.183-0.652-0.332-0.918-0.437-0.453-0.188-0.918-0.403-1.398-0.641-0.082-0.027-0.16-0.066-0.242-0.121l-0.078-0.039v0.078l0.16 1.121-0.281 17.078c0 0.215 0.015 0.414 0.039 0.602v1.398c0 0.829-0.106 1.321-0.321 1.481l-0.039 0.242 0.481 0.117c1.574 0.242 2.828 0.602 3.761 1.082v-0.082l-0.16-0.879c-0.027-0.293-0.054-0.597-0.082-0.918-0.027-0.16-0.039-0.32-0.039-0.48-0.055-0.481-0.094-1-0.121-1.563v-0.558c-0.027-0.238-0.027-0.508 0-0.801-0.027-0.559-0.027-1.227 0-2v-0.961z" inkscape:connector-curvature="0"/>
          </g>
        </g>
      </g>
      <path id="path230" style="fill-rule:evenodd;fill:#eec221" d="m26.398 19.918-0.16 4.442-0.039 0.281v0.078c0.055-0.027 0.215-0.012 0.481 0.039l-0.481-0.117 0.039-0.242c0.215-0.16 0.321-0.652 0.321-1.481v-1.398c-0.024-0.188-0.039-0.387-0.039-0.602l0.281-17.078-0.16-1.121v-0.078c-0.055-0.027-0.121-0.055-0.2-0.082v0.039c0 2.43 0.039 4.816 0.118 7.16v0.203c0.027 0.559 0.043 1.278 0.043 2.161v1.277c-0.028 0.027-0.028 0.051 0 0.082-0.028 1.387-0.082 3.078-0.161 5.078v0.48l-0.043 0.879zm0.282 4.84c1.148 0.321 2.32 0.696 3.519 1.121l0.242-0.039c-0.933-0.48-2.187-0.84-3.761-1.082z" inkscape:connector-curvature="0"/>
      <path id="path232" style="fill-rule:evenodd;fill:#ff6e47" d="m35.199 27.36-4.758-1.602v0.082l-0.242 0.039 1.481 0.403 0.121 0.039 3.398 1.039zm-22.121-3.121c0.883-0.106 1.828-0.254 2.844-0.438 0.504-0.082 0.973-0.16 1.398-0.242 0.215-0.027 0.426-0.066 0.641-0.117 0.824-0.137 1.437-0.242 1.84-0.32 0.531 0.105 1.492 0.32 2.879 0.636 1.359 0.321 2.535 0.629 3.519 0.922v-0.039l0.039-0.281c-1.652-0.481-3.664-1.039-6.039-1.68v-5.398l-0.597 4.636-0.043 0.082c-0.024 0.321-0.079 0.559-0.161 0.719l-3.117 0.602c-1.226 0.238-2.359 0.437-3.402 0.597v0.282c0.055 0.027 0.121 0.039 0.199 0.039zm-13.078 1.883c1.121-0.188 2.199-0.375 3.238-0.563 0.242-0.027 0.481-0.051 0.723-0.078 0.984-0.16 1.945-0.309 2.879-0.442l0.039-0.281c-1.277 0.188-2.613 0.43-4 0.723-0.426 0.078-0.852 0.172-1.277 0.277l-0.442 0.082c-0.398 0.106-0.785 0.199-1.16 0.282z" inkscape:connector-curvature="0"/>
      <g id="g234">
        <g id="g236">
          <g id="g242">
            <path id="path252" style="fill-rule:evenodd;fill:url(#linearGradient244)" d="m18.641 29.039v0.161c0.132-0.028 0.265-0.012 0.398 0.039 0.027 0.027 0.055 0.054 0.082 0.082 0.16 0.16 0.293 0.254 0.399 0.277-0.161-0.105-0.305-0.223-0.442-0.359-0.023 0-0.051-0.012-0.078-0.039l-0.359-0.161zm2.199-0.96c-0.188 0.109-0.426 0.214-0.719 0.32-0.16 0.133-0.348 0.226-0.559 0.281-0.32 0.16-0.562 0.254-0.722 0.281 0.133 0.051 0.308 0.133 0.519 0.239 0.055 0.027 0.121 0.066 0.203 0.121 0.211 0.133 0.399 0.238 0.559 0.32 0.106 0 0.227-0.016 0.359-0.043 0.399-0.105 0.692-0.172 0.879-0.199 0.321-0.078 0.629-0.078 0.922 0 0.211 0.082 0.414 0.148 0.598 0.199 0.082-0.133 0.133-0.332 0.16-0.598 0.055-0.347 0.039-0.613-0.039-0.8-0.027-0.078-0.066-0.161-0.121-0.239-0.133-0.109-0.332-0.175-0.598-0.203h-0.801c-0.16 0.11-0.347 0.215-0.558 0.321h-0.082z" inkscape:connector-curvature="0"/>
          </g>
        </g>
      </g>
      <g id="g254">
        <g id="g256">
          <g id="g262">
            <path id="path274" style="fill-rule:evenodd;fill:url(#linearGradient264)" d="m17.68 28.801h0.601c0.508 0 0.824-0.015 0.957-0.043 0.11-0.023 0.203-0.051 0.282-0.078h0.042c0.211-0.055 0.399-0.148 0.559-0.281 0.106-0.078 0.199-0.172 0.281-0.277 0.078-0.083 0.145-0.188 0.2-0.321 0.21-0.535 0.144-0.988-0.2-1.359-0.293-0.32-0.734-0.551-1.32-0.684-0.906-0.211-1.734-0.316-2.48-0.316-0.508 0-0.907 0.039-1.2 0.117-0.457 0.133-0.734 0.359-0.84 0.68-0.082 0.215-0.093 0.425-0.042 0.64 0.054 0.243 0.203 0.481 0.441 0.719 0.133 0.188 0.305 0.363 0.519 0.524 0.348 0.265 0.708 0.464 1.082 0.597 0.161 0.082 0.317 0.133 0.477 0.16 0.109 0.055 0.231 0.094 0.363 0.121 0.078 0.028 0.172 0.039 0.278 0.039l-0.239-0.238h0.239z" inkscape:connector-curvature="0"/>
          </g>
        </g>
      </g>
      <g id="g276">
        <g id="g278">
          <g id="g284">
            <path id="path294" style="fill-rule:evenodd;fill:url(#linearGradient286)" d="m15 31.719c0-0.398 0.199-0.84 0.602-1.32 0.238-0.293 0.503-0.559 0.796-0.801-0.453 0.109-1.023 0.242-1.718 0.402-0.055 0.161-0.094 0.321-0.121 0.481-0.133 0.558-0.028 0.984 0.32 1.277l0.121-0.039zm1.559-3c-0.266 0.028-0.493 0.067-0.68 0.121-0.184 0.078-0.348 0.16-0.481 0.239-0.078 0.054-0.144 0.109-0.199 0.16-0.133 0.109-0.238 0.226-0.32 0.359 0.32-0.023 0.68-0.133 1.082-0.316 0.398-0.16 0.758-0.297 1.078-0.403-0.16-0.027-0.32-0.078-0.48-0.16z" inkscape:connector-curvature="0"/>
          </g>
        </g>
      </g>
      <g id="g296">
        <g id="g298">
          <g id="g304">
            <path id="path316" style="fill-rule:evenodd;fill:url(#linearGradient306)" d="m16.398 29.598c-0.293 0.242-0.558 0.508-0.796 0.801-0.403 0.48-0.602 0.922-0.602 1.32-0.027 0.106-0.027 0.199 0 0.281 0.078 0.375 0.375 0.68 0.879 0.918 0.508 0.215 0.988 0.282 1.441 0.204 0.989-0.161 1.399-0.801 1.239-1.922-0.051-0.481-0.184-1.106-0.399-1.879-0.027-0.028-0.039-0.082-0.039-0.16-0.055-0.106-0.094-0.227-0.121-0.36h-0.32l-0.16 0.078 0.16 0.16c-0.106 0-0.2-0.011-0.282-0.039l-0.359 0.2c-0.211 0.132-0.426 0.265-0.641 0.398z" inkscape:connector-curvature="0"/>
          </g>
        </g>
      </g>
      <g id="g318">
        <g id="g320">
          <g id="g326">
            <path id="path338" style="fill-rule:evenodd;fill:url(#linearGradient328)" d="m17.039 28.879c-0.32 0.106-0.68 0.243-1.078 0.403-0.402 0.183-0.762 0.293-1.082 0.316-0.078 0.027-0.16 0.043-0.238 0.043-0.215 0.023-0.403 0.012-0.563-0.043-0.105-0.023-0.211-0.078-0.316-0.156-0.16-0.082-0.321-0.215-0.481-0.403-0.109-0.132-0.215-0.292-0.32-0.48-0.133-0.238-0.199-0.453-0.199-0.641v-0.117c0.023-0.215 0.144-0.375 0.359-0.48-0.613 0-1.109 0.039-1.48 0.121-0.266 0.051-0.469 0.117-0.602 0.199-0.371 0.238-0.598 0.559-0.68 0.957v0.121c-0.054 0.348 0.039 0.668 0.282 0.961 0.558 0.695 1.691 0.852 3.398 0.481 0.215-0.055 0.43-0.106 0.641-0.161 0.695-0.16 1.265-0.293 1.718-0.402 0.215-0.133 0.43-0.266 0.641-0.398l0.359-0.2c-0.132-0.027-0.253-0.066-0.359-0.121zm0.641-0.078h-0.239l0.079 0.078 0.16-0.078z" inkscape:connector-curvature="0"/>
          </g>
        </g>
      </g>
      <g id="g340">
        <g id="g342">
          <g id="g348">
            <path id="path360" style="fill-rule:evenodd;fill:url(#linearGradient350)" d="m18.32 28.84-0.039-0.039h-0.281c0.027 0.133 0.066 0.254 0.121 0.36 0.051 0.027 0.117 0.039 0.199 0.039l0.52 0.039 0.082 0.043 0.117-0.043c-0.133-0.051-0.266-0.067-0.398-0.039v-0.161l-0.602-0.238c0.109 0.024 0.199 0.039 0.281 0.039zm0.52 0.121c0-0.027 0.015-0.054 0.039-0.082h-0.277c0.05 0.028 0.117 0.055 0.199 0.082h0.039z" inkscape:connector-curvature="0"/>
          </g>
        </g>
      </g>
      <g id="g362">
        <g id="g364">
          <g id="g370">
            <path id="path382" style="fill-rule:evenodd;fill:url(#linearGradient372)" d="m17.922 23.719-1.602 0.199 1.961 0.121-0.64 0.122c0.453 0 1 0.027 1.64 0.078l-0.558 0.082 1.797 0.121-0.481 0.078c0.426 0 0.949 0.027 1.563 0.078l0.878 0.121c-0.132-0.078-0.226-0.144-0.281-0.199-0.133-0.106-0.144-0.199-0.039-0.281l-0.558 0.043c-0.11-0.137-0.11-0.243 0-0.321l-0.641 0.039c-0.082-0.105-0.066-0.199 0.039-0.281l-0.762 0.082c-0.105-0.16-0.105-0.293 0-0.402l-1.558 0.199-0.239 0.121h-0.519z" inkscape:connector-curvature="0"/>
          </g>
        </g>
      </g>
      <g id="g384">
        <g id="g386">
          <g id="g392">
            <path id="path404" style="fill-rule:evenodd;fill:url(#linearGradient394)" d="m20.641 25.559 1.281-0.199-1.203 0.16-0.078 0.039z" inkscape:connector-curvature="0"/>
          </g>
        </g>
      </g>
      <g id="g406">
        <g id="g408">
          <g id="g414">
            <path id="path422" style="fill-rule:evenodd;fill:url(#linearGradient416)" d="m12.879 23.918c1.043-0.16 2.176-0.359 3.402-0.597l3.117-0.602c0.082-0.16 0.137-0.398 0.161-0.719l0.043-0.082 0.597-4.636-0.719 0.16-3 0.68c-1.468 0.32-2.695 0.57-3.679 0.757l0.078 5.039zm-6 0.84l0.199-4.758c-1.383 0.321-3.105 0.735-5.156 1.239-0.481 0.109-0.977 0.226-1.481 0.359l-0.441 4.524c0.375-0.083 0.762-0.176 1.16-0.282l0.442-0.082c0.425-0.105 0.851-0.199 1.277-0.277 1.387-0.293 2.723-0.535 4-0.723z" inkscape:connector-curvature="0"/>
          </g>
        </g>
      </g>
      <g id="g424">
        <g id="g426">
          <g id="g432">
            <path id="path440" style="fill-rule:evenodd;fill:url(#linearGradient434)" d="m17.879 14.321-0.039 0.039-0.36 0.199-0.402-0.078c-0.156-0.055-0.371-0.055-0.637 0l-0.921 0.238c0.32 0.188 0.668 0.508 1.039 0.961l-0.719 0.16c0.293 0.16 0.586 0.414 0.879 0.758l-0.598 0.16c0.238 0.133 0.481 0.336 0.719 0.602 0.453-0.133 0.801-0.227 1.039-0.281l0.519-0.161c0.188-0.265 0.375-0.476 0.563-0.636l-0.602 0.078c0.293-0.481 0.575-0.84 0.84-1.078l-0.719 0.039c0.321-0.563 0.641-0.989 0.961-1.282l-0.921 0.083c-0.239 0.023-0.454 0.089-0.641 0.199z" inkscape:connector-curvature="0"/>
          </g>
        </g>
      </g>
      <g id="g442">
        <g id="g444">
          <g id="g450">
            <path id="path458" style="fill-rule:evenodd;fill:url(#linearGradient452)" d="m12.641 9.719h0.078c-0.024-0.027-0.051-0.066-0.078-0.121v0.121zm0.039 0.68v0.32c0.054-0.027 0.121-0.039 0.199-0.039-0.078-0.105-0.145-0.199-0.199-0.281zm0 0.64v0.762l0.121 6.481c1.785-0.403 3.133-0.707 4.039-0.922-0.238-0.266-0.481-0.465-0.719-0.602l0.598-0.16c-0.293-0.344-0.586-0.598-0.879-0.758l0.719-0.16c-0.371-0.453-0.719-0.773-1.039-0.961l0.921-0.238c0.266-0.055 0.481-0.055 0.637 0l-0.039-0.883 0.801-0.156 0.039 0.879c0.187-0.106 0.402-0.172 0.641-0.199l0.921-0.083c-0.32 0.293-0.64 0.719-0.961 1.282l0.719-0.039c-0.265 0.238-0.547 0.597-0.84 1.078l0.602-0.078c-0.188 0.16-0.375 0.371-0.563 0.636l1.883-0.476 0.117 0.039 0.043-3.961c0-0.426 0.012-0.988 0.039-1.68l-0.039-0.043v-0.039h0.039v-0.039c-0.16-0.133-0.308-0.238-0.441-0.32l0.441-0.117v-0.121c-0.292-0.348-0.574-0.586-0.839-0.719 0.132-0.082 0.332-0.149 0.597-0.203-0.316-0.344-0.613-0.586-0.879-0.719 0.161-0.078 0.403-0.145 0.719-0.199-0.371-0.453-0.719-0.762-1.039-0.922 0.215-0.106 0.52-0.199 0.922-0.277 0.16-0.028 0.359-0.043 0.598-0.043 0-0.133 0.015-0.266 0.043-0.399l-0.043-0.48h0.043c0.05-1.758 0.132-3.825 0.238-6.2l-3.84 0.84c-1.84 0.399-3.227 0.68-4.16 0.84-0.16 1.84-0.238 3.453-0.238 4.84l0.039 2.039c0.214-0.051 0.414-0.051 0.597 0h0.043l-0.043-0.879 0.723-0.16 0.039 0.879 0.641-0.199 0.879-0.118c-0.293 0.293-0.598 0.719-0.918 1.278l0.679-0.078c-0.269 0.238-0.535 0.601-0.801 1.078l0.598-0.078c-0.293 0.265-0.57 0.668-0.84 1.199l0.481-0.082c-0.239 0.242-0.465 0.59-0.68 1.043l-0.277 0.719c-0.055-0.188-0.16-0.387-0.321-0.602-0.242-0.371-0.496-0.625-0.761-0.758l0.48-0.121h0.039c-0.187-0.266-0.359-0.48-0.519-0.641zm-10.559 6.52c-0.027 0.215-0.043 0.414-0.043 0.602l0.442-0.082-0.399-0.52zm0-0.559 0.32-0.039c0.211-0.054 0.399-0.054 0.559 0h0.039l-0.039-0.839 0.68-0.161 0.039 0.879c0.215-0.105 0.414-0.176 0.601-0.199l0.84-0.082c-0.293 0.266-0.601 0.668-0.922 1.199l0.684-0.039c-0.242 0.242-0.496 0.574-0.762 1l0.559-0.039c-0.293 0.266-0.559 0.641-0.797 1.121l0.476-0.043c-0.16 0.137-0.304 0.309-0.437 0.524 1.117-0.243 2.172-0.469 3.16-0.684l0.117-2.84c0.082-1.144 0.16-2.426 0.242-3.84-0.187 0.215-0.359 0.481-0.519 0.801l-0.242 0.723-0.278-0.602c-0.242-0.347-0.48-0.586-0.722-0.718l0.441-0.161h0.039c-0.293-0.375-0.574-0.64-0.84-0.8l0.563-0.161c-0.297-0.347-0.563-0.586-0.801-0.718 0.16-0.082 0.371-0.149 0.641-0.2-0.321-0.429-0.641-0.722-0.961-0.882l0.84-0.239 0.597-0.043v-0.839l0.684-0.118 0.039 0.84c0.211-0.109 0.414-0.176 0.598-0.203 0.054-2.051 0.093-4.332 0.121-6.84 0.027-0.023 0.082-0.051 0.16-0.078-1.492 0.371-3.36 0.867-5.602 1.481-0.023 0.718-0.05 1.398-0.078 2.039-0.082 2.718-0.094 4.839-0.039 6.359 0.024 0.828 0.024 2.309 0 4.441zm-0.121 3.719c0.32-0.055 0.641-0.121 0.961-0.199-0.16-0.215-0.32-0.359-0.481-0.441l0.442-0.118h0.039c-0.293-0.402-0.574-0.679-0.84-0.839l0.559-0.122c-0.215-0.293-0.414-0.507-0.602-0.64 0 0.48-0.012 0.972-0.039 1.48l-0.039 0.879zm4.359-5.758c0-0.269 0.121-0.429 0.36-0.48v-0.039c0.242 0 0.359 0.133 0.359 0.398 0 0.321-0.117 0.481-0.359 0.481-0.239 0.054-0.36-0.067-0.36-0.36zm1.161-3.441c-0.051 0.078-0.094 0.148-0.122 0.199l0.122-0.039v-0.16zm-0.04 1.238v-0.519c-0.105 0.187-0.214 0.375-0.32 0.562h0.039l0.281-0.043zm5.918 0.922c0-0.266 0.122-0.426 0.364-0.48 0.211-0.055 0.343 0.066 0.398 0.359 0 0.293-0.121 0.465-0.359 0.52-0.266 0.054-0.403-0.079-0.403-0.399zm-10.199-3.961c-0.211 0.055-0.32-0.066-0.32-0.359-0.051-0.266 0.055-0.426 0.32-0.481 0.242-0.054 0.36 0.067 0.36 0.36 0 0.269-0.118 0.429-0.36 0.48zm-0.437-5.277v-0.403l0.679-0.199 0.039 0.442c0.188-0.11 0.375-0.176 0.559-0.203l0.84-0.118c-0.293 0.266-0.586 0.68-0.879 1.239l0.641-0.078c-0.243 0.238-0.496 0.585-0.762 1.039l0.562-0.082c-0.269 0.269-0.535 0.64-0.8 1.121h0.039l0.441-0.039c-0.242 0.211-0.469 0.546-0.68 1l-0.242 0.679-0.277-0.601c-0.215-0.321-0.442-0.547-0.684-0.68l0.442-0.117v-0.043l-0.52-0.559v-0.32l0.238-0.039-0.238-0.281 0.039-0.602 0.082-0.039-0.082-0.078 0.039-1 0.524-0.039zm13.957-3.082-0.039-0.442 0.761-0.16 0.039 0.442c0.266-0.133 0.481-0.215 0.641-0.239l0.918-0.121c-0.316 0.293-0.641 0.735-0.961 1.321l0.723-0.122c-0.266 0.27-0.547 0.641-0.84 1.122l0.598-0.082c-0.293 0.269-0.571 0.668-0.84 1.203l0.519-0.082c-0.265 0.242-0.504 0.586-0.718 1.039-0.106 0.187-0.2 0.441-0.282 0.761h-0.039c0-0.16-0.094-0.375-0.277-0.64-0.242-0.348-0.496-0.586-0.762-0.719l0.481-0.16c-0.293-0.399-0.586-0.668-0.879-0.801 0.133-0.082 0.332-0.148 0.597-0.199-0.32-0.348-0.613-0.586-0.879-0.719l0.719-0.203c-0.371-0.426-0.719-0.719-1.039-0.879 0.238-0.105 0.547-0.199 0.918-0.281l0.602-0.039h0.039zm0.121 5.16c0-0.293 0.121-0.469 0.359-0.52l0.039 0.122v-0.122c0.27-0.054 0.403 0.067 0.403 0.36s-0.133 0.48-0.403 0.558c-0.211 0.055-0.343-0.078-0.398-0.398z" inkscape:connector-curvature="0"/>
          </g>
        </g>
      </g>
      <path id="path460" style="fill-rule:evenodd;fill:#7d2c0a" d="m7.121 19.598c-0.988 0.215-2.043 0.441-3.16 0.684-0.32 0.078-0.656 0.16-1 0.238-0.32 0.078-0.641 0.144-0.961 0.199-0.027 0.028-0.055 0.039-0.078 0.039v0.481c2.051-0.504 3.773-0.918 5.156-1.239l0.043-0.402zm13.16-3.156-1.883 0.476-0.519 0.161c-0.238 0.054-0.586 0.148-1.039 0.281-0.906 0.215-2.254 0.519-4.039 0.922v0.597c0.984-0.187 2.211-0.437 3.679-0.757l3-0.68 0.801-1z" inkscape:connector-curvature="0"/>
      <g id="g462">
        <g id="g464">
          <g id="g470">
            <path id="path478" style="fill-rule:evenodd;fill:url(#linearGradient472)" d="m25.199 18.52c0.188-0.266 0.375-0.453 0.563-0.559l-0.563-0.281c0.266-0.426 0.535-0.707 0.801-0.84l-0.762-0.398-0.519-0.121-0.321 0.039-0.277-0.281-0.562-0.321c-0.293-0.133-0.547-0.211-0.758-0.238 0.238 0.293 0.492 0.691 0.758 1.199 0.027 0.106 0.066 0.215 0.121 0.32-0.266-0.105-0.469-0.16-0.602-0.16 0.188 0.243 0.387 0.575 0.602 1l1.519 0.641z" inkscape:connector-curvature="0"/>
          </g>
        </g>
      </g>
      <g id="g480">
        <g id="g482">
          <g id="g488">
            <path id="path496" style="fill-rule:evenodd;fill:url(#linearGradient490)" d="m30.922 20.918c0.211-0.293 0.41-0.492 0.598-0.597l-0.52-0.282c0.266-0.398 0.52-0.679 0.762-0.839l-0.723-0.36c-0.105-0.054-0.266-0.082-0.48-0.082h-0.278l-0.242-0.199c-0.027 0.773-0.027 1.441 0 2l0.883 0.359z" inkscape:connector-curvature="0"/>
          </g>
        </g>
      </g>
      <g id="g498">
        <g id="g500">
          <g id="g506">
            <path id="path514" style="fill-rule:evenodd;fill:url(#linearGradient508)" d="m26.602 13.399h-0.082c0.027 0.027 0.05 0.055 0.082 0.082-0.028-0.027-0.028-0.055 0-0.082zm0-0.598v-0.562c-0.161-0.051-0.293-0.078-0.403-0.078 0.133 0.187 0.266 0.398 0.403 0.64zm-0.043-2.84c-0.024-0.027-0.051-0.043-0.079-0.043-0.292-0.132-0.535-0.211-0.718-0.238 0.238 0.348 0.504 0.852 0.797 1.52l-0.559-0.161c0.188 0.266 0.387 0.625 0.602 1.083 0-0.883-0.016-1.602-0.043-2.161z" inkscape:connector-curvature="0"/>
          </g>
        </g>
      </g>
      <g id="g516">
        <g id="g518">
          <g id="g524">
            <path id="path534" style="fill-rule:evenodd;fill:url(#linearGradient526)" d="m13.281 29.039c0.426-0.054 0.785-0.078 1.078-0.078 0.243 0 0.586 0.039 1.039 0.118 0.137-0.079 0.297-0.161 0.481-0.239 0.187-0.054 0.414-0.093 0.68-0.121-0.371-0.133-0.731-0.332-1.079-0.597-0.214-0.161-0.386-0.336-0.519-0.524-0.723-0.156-1.336-0.199-1.84-0.117l-0.242 0.32-0.117 0.117c0 0.188 0.066 0.403 0.199 0.641 0.105 0.188 0.211 0.348 0.32 0.48z" inkscape:connector-curvature="0"/>
          </g>
        </g>
      </g>
      <g id="g536">
        <g id="g538">
          <g id="g544">
            <path id="path556" style="fill-rule:evenodd;fill:url(#linearGradient546)" d="m11.801 26.758c0.238-0.023 0.504-0.039 0.801-0.039h0.16c-0.137-0.027-0.27-0.066-0.403-0.121l-1.16 0.16h0.602z" inkscape:connector-curvature="0"/>
          </g>
        </g>
      </g>
      <g id="g558">
        <g id="g560">
          <g id="g566">
            <path id="path578" style="fill-rule:evenodd;fill:url(#linearGradient568)" d="m7.078 27.918-0.519-0.117c0.64-0.109 1.253-0.215 1.839-0.32l-0.437 0.039c-0.106-0.133-0.106-0.238 0-0.32l-1.441 0.16-0.239 0.082h-0.519l-0.422 0.039 1.219 0.32 0.441 0.117h0.078zm0.563 0.161h0.039l-0.559-0.161-0.043 0.043 0.481 0.118h0.082zm0.558 0.121-0.199-0.039 0.121 0.039h0.078z" inkscape:connector-curvature="0"/>
          </g>
        </g>
      </g>
      <g id="g580">
        <g id="g582">
          <g id="g588">
            <path id="path600" style="fill-rule:evenodd;fill:url(#linearGradient590)" d="m12.84 1.68v-0.039c-2.774 0.453-4.442 0.801-5 1.039-0.078 0.027-0.133 0.055-0.16 0.082-0.028 2.504-0.067 4.785-0.121 6.84 0 0.398-0.012 0.785-0.039 1.16v0.918c-0.028 0.215-0.04 0.402-0.04 0.559v0.519c-0.027 0.055-0.027 0.11 0 0.16-0.082 1.414-0.16 2.696-0.242 3.84l-0.117 2.84-0.043 0.402-0.199 4.758-0.039 0.281v0.04l2.719-0.399c0.214-0.027 0.414-0.055 0.601-0.082 0.266-0.023 0.508-0.066 0.719-0.117 0.668-0.082 1.148-0.149 1.441-0.199l0.559-0.082v-0.282l-0.078-5.039v-0.597l-0.121-6.481v-1.402l-0.039-0.68v-1.16l-0.039-2.039c0-1.387 0.078-3 0.238-4.84z" inkscape:connector-curvature="0"/>
          </g>
        </g>
      </g>
      <g id="g602">
        <g id="g604">
          <g id="g610">
            <path id="path622" style="fill-rule:evenodd;fill:url(#linearGradient612)" d="m4.359 25.559-0.238 0.082-0.402 0.039h-0.078c-0.293 0-0.52 0.012-0.68 0.039l-0.762 0.121 1.84 0.121-0.598 0.118c0.426 0 0.946 0.027 1.559 0.082l-0.52 0.078c0.481 0 1.051 0.027 1.719 0.082l-0.039 0.039-0.398 0.039c0.398 0 0.879 0.043 1.437 0.121l0.84 0.078h0.039l-0.316-0.156c-0.137-0.137-0.16-0.227-0.082-0.281l-0.52 0.039c-0.105-0.133-0.105-0.239 0-0.321l-0.64 0.082c-0.079-0.136-0.079-0.242 0-0.32l-0.719 0.078c-0.106-0.16-0.106-0.277 0-0.359l-1.442 0.199z" inkscape:connector-curvature="0"/>
          </g>
        </g>
      </g>
      <g id="g624">
        <g id="g626">
          <g id="g632">
            <path id="path640" style="fill-rule:evenodd;fill:url(#linearGradient634)" d="m2.121 17v0.161l-0.043 0.398h0.043l0.399 0.52-0.442 0.082v0.199c0.188 0.133 0.387 0.347 0.602 0.64l-0.559 0.122c0.266 0.16 0.547 0.437 0.84 0.839h-0.039l-0.442 0.118c0.161 0.082 0.321 0.226 0.481 0.441 0.344-0.078 0.68-0.16 1-0.238 0.133-0.215 0.277-0.387 0.437-0.524l-0.476 0.043c0.238-0.48 0.504-0.855 0.797-1.121l-0.559 0.039c0.266-0.426 0.52-0.758 0.762-1l-0.684 0.039c0.321-0.531 0.629-0.933 0.922-1.199l-0.84 0.082c-0.187 0.023-0.386 0.094-0.601 0.199l-0.36 0.199c-0.054-0.054-0.16-0.078-0.32-0.078h-0.039c-0.16-0.054-0.348-0.054-0.559 0l-0.32 0.039z" inkscape:connector-curvature="0"/>
          </g>
        </g>
      </g>
      <g id="g642">
        <g id="g644">
          <g id="g650">
            <path id="path658" style="fill-rule:evenodd;fill:url(#linearGradient652)" d="m7.48 12.918c-0.027-0.05-0.027-0.105 0-0.16l-0.281 0.043h-0.039c0.106-0.187 0.215-0.375 0.32-0.562 0-0.157 0.012-0.344 0.04-0.559l-0.122 0.039c0.028-0.051 0.067-0.121 0.122-0.199v-0.762c0.027-0.371 0.039-0.758 0.039-1.16-0.184 0.027-0.387 0.094-0.598 0.203l-0.359 0.199-0.364-0.082-0.597 0.043-0.84 0.239c0.32 0.16 0.64 0.453 0.961 0.882-0.27 0.051-0.481 0.118-0.641 0.2 0.238 0.132 0.504 0.371 0.801 0.718l-0.563 0.161c0.266 0.16 0.547 0.425 0.84 0.8h-0.039l-0.441 0.161c0.242 0.132 0.48 0.371 0.722 0.718l0.278 0.602 0.242-0.723c0.16-0.32 0.332-0.586 0.519-0.801z" inkscape:connector-curvature="0"/>
          </g>
        </g>
      </g>
      <g id="g660">
        <g id="g662">
          <g id="g668">
            <path id="path676" style="fill-rule:evenodd;fill:url(#linearGradient670)" d="m14 8.399c-0.133 0.055-0.254 0.133-0.359 0.242l-0.36-0.082h-0.043c-0.183-0.051-0.383-0.051-0.597 0v1.039c0.027 0.055 0.054 0.094 0.078 0.121h-0.078l0.039 0.68c0.054 0.082 0.121 0.176 0.199 0.281-0.078 0-0.145 0.012-0.199 0.039v0.32c0.16 0.161 0.332 0.375 0.519 0.641h-0.039l-0.48 0.121c0.265 0.133 0.519 0.387 0.761 0.758 0.161 0.215 0.266 0.414 0.321 0.602l0.277-0.719c0.215-0.453 0.441-0.801 0.68-1.043l-0.481 0.082c0.27-0.535 0.551-0.934 0.84-1.199l-0.598 0.078c0.266-0.481 0.532-0.84 0.801-1.078l-0.679 0.078c0.32-0.559 0.625-0.985 0.918-1.281l-0.879 0.121-0.641 0.199z" inkscape:connector-curvature="0"/>
          </g>
        </g>
      </g>
      <g id="g678">
        <g id="g680">
          <g id="g686">
            <path id="path694" style="fill-rule:evenodd;fill:url(#linearGradient688)" d="m3.48 4.282h-0.039l-0.32 0.199-0.359-0.039-0.524 0.039-0.039 1 0.082 0.078-0.082 0.039-0.039 0.602 0.238 0.281-0.238 0.039v0.32l0.52 0.559v0.043l-0.442 0.117c0.242 0.133 0.469 0.359 0.684 0.68l0.277 0.601 0.242-0.679c0.211-0.454 0.438-0.786 0.68-1l-0.441 0.039h-0.039c0.265-0.481 0.531-0.852 0.8-1.118l-0.562 0.079c0.266-0.454 0.519-0.801 0.762-1.039l-0.641 0.078c0.293-0.559 0.586-0.973 0.879-1.239l-0.84 0.118c-0.184 0.027-0.371 0.093-0.559 0.203z" inkscape:connector-curvature="0"/>
          </g>
        </g>
      </g>
      <g id="g696">
        <g id="g698">
          <g id="g704">
            <path id="path712" style="fill-rule:evenodd;fill:url(#linearGradient706)" d="m17.48 1.2-0.402 0.242-0.359-0.082h-0.039l-0.602 0.039c-0.371 0.082-0.68 0.176-0.918 0.281 0.32 0.16 0.668 0.453 1.039 0.879l-0.719 0.199c0.266 0.137 0.559 0.375 0.879 0.723-0.265 0.051-0.464 0.117-0.597 0.199 0.293 0.133 0.586 0.399 0.879 0.801l-0.481 0.16c0.266 0.133 0.52 0.371 0.762 0.719 0.183 0.265 0.277 0.48 0.277 0.64h0.039c0.082-0.32 0.176-0.574 0.282-0.761 0.214-0.453 0.453-0.801 0.718-1.039l-0.519 0.082c0.269-0.535 0.547-0.934 0.84-1.203l-0.598 0.082c0.293-0.481 0.574-0.852 0.84-1.122l-0.723 0.122c0.32-0.586 0.645-1.028 0.961-1.321l-0.918 0.121c-0.16 0.024-0.375 0.106-0.641 0.239z" inkscape:connector-curvature="0"/>
          </g>
        </g>
      </g>
      <g id="g714">
        <g id="g716">
          <g id="g722">
            <path id="path730" style="fill-rule:evenodd;fill:url(#linearGradient724)" d="m30.48 4.918h-0.199c-0.054 1.707-0.093 3.293-0.121 4.762 0.028 0.051 0.039 0.094 0.039 0.117v0.043c0.055-0.265 0.137-0.48 0.242-0.64 0.161-0.348 0.348-0.575 0.559-0.68l-0.398-0.199c0.21-0.403 0.437-0.657 0.679-0.762l-0.48-0.281c0.238-0.348 0.465-0.571 0.679-0.68l-0.558-0.316c0.266-0.403 0.516-0.668 0.758-0.801l-0.719-0.442c-0.16-0.078-0.32-0.121-0.481-0.121z" inkscape:connector-curvature="0"/>
          </g>
        </g>
      </g>
      <g id="g732">
        <g id="g734">
          <g id="g740">
            <path id="path748" style="fill-rule:evenodd;fill:url(#linearGradient742)" d="m24.559 2.079h-0.36l-0.277-0.321c-0.27-0.183-0.457-0.304-0.563-0.359-0.32-0.16-0.574-0.25-0.757-0.277 0.265 0.371 0.546 0.906 0.839 1.597-0.242-0.105-0.441-0.172-0.601-0.199 0.238 0.32 0.48 0.773 0.719 1.359l-0.481-0.199c0.242 0.348 0.496 0.84 0.762 1.481h-0.039l-0.403-0.161c0.215 0.293 0.426 0.719 0.641 1.282 0.055 0.132 0.133 0.414 0.238 0.84 0.11-0.348 0.188-0.563 0.243-0.641 0.187-0.348 0.386-0.574 0.601-0.68l-0.402-0.242h-0.039c0.242-0.398 0.48-0.652 0.718-0.758l-0.476-0.32c0.238-0.32 0.465-0.535 0.68-0.641l-0.602-0.359c0.293-0.43 0.559-0.707 0.801-0.84l-0.723-0.441-0.519-0.121z" inkscape:connector-curvature="0"/>
          </g>
        </g>
      </g>
      <g id="g750">
        <g id="g752">
          <g id="g758">
            <path id="path766" style="fill-rule:evenodd;fill:url(#linearGradient760)" d="m21.602 7.84h-0.364l-0.316-0.32-0.363-0.238-0.079 2.117 0.04 0.043 0.082 0.199-0.082-0.043h-0.04v0.481l0.399 0.839h-0.039l-0.36-0.16h-0.039v0.043l0.039 0.039c0.188 0.348 0.387 0.746 0.598 1.199 0.16 0.403 0.242 0.68 0.242 0.84h0.039l0.203-0.64c0.184-0.371 0.399-0.614 0.637-0.719l-0.437-0.199c0.238-0.403 0.476-0.668 0.718-0.801l-0.519-0.281c0.238-0.344 0.48-0.571 0.719-0.68l-0.602-0.32c0.27-0.426 0.535-0.707 0.801-0.84l-0.758-0.438-0.519-0.121z" inkscape:connector-curvature="0"/>
          </g>
        </g>
      </g>
      <g id="g768">
        <g id="g770">
          <g id="g776">
            <path id="path784" style="fill-rule:evenodd;fill:url(#linearGradient778)" d="m20.559 7.282v-0.203c-0.239 0-0.438 0.015-0.598 0.043-0.402 0.078-0.707 0.171-0.922 0.277 0.32 0.16 0.668 0.469 1.039 0.922-0.316 0.054-0.558 0.121-0.719 0.199 0.266 0.133 0.563 0.375 0.879 0.719-0.265 0.054-0.465 0.121-0.597 0.199 0.265 0.137 0.547 0.375 0.839 0.723v-0.563h0.04c-0.028-0.051-0.028-0.105 0-0.16l-0.04-0.039 0.079-2.117zm-0.079 3-0.441 0.117c0.133 0.082 0.281 0.187 0.441 0.32v-0.437z" inkscape:connector-curvature="0"/>
          </g>
        </g>
      </g>
    </g>
  </g>
<metadata><rdf:RDF><cc:Work><dc:format>image/svg+xml</dc:format><dc:type rdf:resource="http://purl.org/dc/dcmitype/StillImage"/><cc:license rdf:resource="http://creativecommons.org/licenses/publicdomain/"/><dc:publisher><cc:Agent rdf:about="http://openclipart.org/"><dc:title>Openclipart</dc:title></cc:Agent></dc:publisher></cc:Work><cc:License rdf:about="http://creativecommons.org/licenses/publicdomain/"><cc:permits rdf:resource="http://creativecommons.org/ns#Reproduction"/><cc:permits rdf:resource="http://creativecommons.org/ns#Distribution"/><cc:permits rdf:resource="http://creativecommons.org/ns#DerivativeWorks"/></cc:License></rdf:RDF></metadata></svg>
