<?xml version="1.0" encoding="iso-8859-1"?>
<!-- Uploaded to: SVG Repo, www.svgrepo.com, Generator: SVG Repo Mixer Tools -->
<svg height="800px" width="800px" version="1.1" id="Layer_1" xmlns="http://www.w3.org/2000/svg" xmlns:xlink="http://www.w3.org/1999/xlink" 
	 viewBox="0 0 512 512" xml:space="preserve">
<g transform="translate(1 1)">
	<path style="fill:#FFFFFF;" d="M331.8,357.4H229.4C173.08,357.4,127,311.32,127,255s46.08-102.4,102.4-102.4h93.867V33.133H229.4
		C106.52,33.133,7.533,132.12,7.533,255S106.52,476.867,229.4,476.867h102.4V357.4z"/>
	<g>
		<polygon style="fill:#CCCCCC;" points="229.4,476.867 400.067,476.867 400.067,357.4 229.4,357.4 		"/>
		<polygon style="fill:#CCCCCC;" points="229.4,152.6 400.067,152.6 400.067,33.133 229.4,33.133 		"/>
	</g>
	<path style="fill:#E2E3E5;" d="M374.467,357.4H229.4C173.08,357.4,127,311.32,127,255s46.08-102.4,102.4-102.4h145.067V33.133H255
		C132.12,33.133,33.133,132.12,33.133,255S132.12,476.867,255,476.867h119.467V357.4z"/>
	<g>
		<path style="fill:#B6B6B6;" d="M400.067,485.4H229.4C102.253,485.4-1,382.147-1,255S102.253,24.6,229.4,24.6h170.667
			c5.12,0,8.533,3.413,8.533,8.533V152.6c0,5.12-3.413,8.533-8.533,8.533H229.4c-52.053,0-93.867,41.813-93.867,93.867
			s41.813,93.867,93.867,93.867h170.667c5.12,0,8.533,3.413,8.533,8.533v119.467C408.6,481.987,405.187,485.4,400.067,485.4z
			 M229.4,41.667C111.64,41.667,16.067,137.24,16.067,255S111.64,468.333,229.4,468.333h162.133v-102.4H229.4
			c-61.44,0-110.933-49.493-110.933-110.933S167.96,144.067,229.4,144.067h162.133v-102.4H229.4z"/>
		<path style="fill:#B6B6B6;" d="M323.267,161.133c-5.12,0-8.533-3.413-8.533-8.533V33.133c0-5.12,3.413-8.533,8.533-8.533
			c5.12,0,8.533,3.413,8.533,8.533V152.6C331.8,157.72,328.387,161.133,323.267,161.133z"/>
		<path style="fill:#B6B6B6;" d="M323.267,485.4c-5.12,0-8.533-3.413-8.533-8.533V357.4c0-5.12,3.413-8.533,8.533-8.533
			c5.12,0,8.533,3.413,8.533,8.533v119.467C331.8,481.987,328.387,485.4,323.267,485.4z"/>
		<path style="fill:#B6B6B6;" d="M468.333,67.267H459.8c-5.12,0-8.533-3.413-8.533-8.533S454.68,50.2,459.8,50.2h8.533
			c5.12,0,8.533,3.413,8.533,8.533S473.453,67.267,468.333,67.267z"/>
		<path style="fill:#B6B6B6;" d="M434.2,67.267h-8.533c-5.12,0-8.533-3.413-8.533-8.533s3.413-8.533,8.533-8.533h8.533
			c5.12,0,8.533,3.413,8.533,8.533S439.32,67.267,434.2,67.267z"/>
		<path style="fill:#B6B6B6;" d="M502.467,67.267h-8.533c-5.12,0-8.533-3.413-8.533-8.533s3.413-8.533,8.533-8.533h8.533
			c5.12,0,8.533,3.413,8.533,8.533S507.587,67.267,502.467,67.267z"/>
		<path style="fill:#B6B6B6;" d="M468.333,135.533H459.8c-5.12,0-8.533-3.413-8.533-8.533s3.413-8.533,8.533-8.533h8.533
			c5.12,0,8.533,3.413,8.533,8.533S473.453,135.533,468.333,135.533z"/>
		<path style="fill:#B6B6B6;" d="M434.2,135.533h-8.533c-5.12,0-8.533-3.413-8.533-8.533s3.413-8.533,8.533-8.533h8.533
			c5.12,0,8.533,3.413,8.533,8.533S439.32,135.533,434.2,135.533z"/>
		<path style="fill:#B6B6B6;" d="M502.467,135.533h-8.533c-5.12,0-8.533-3.413-8.533-8.533s3.413-8.533,8.533-8.533h8.533
			c5.12,0,8.533,3.413,8.533,8.533S507.587,135.533,502.467,135.533z"/>
		<path style="fill:#B6B6B6;" d="M451.267,101.4h-8.533c-5.12,0-8.533-3.413-8.533-8.533c0-5.12,3.413-8.533,8.533-8.533h8.533
			c5.12,0,8.533,3.413,8.533,8.533C459.8,97.987,456.387,101.4,451.267,101.4z"/>
		<path style="fill:#B6B6B6;" d="M485.4,101.4h-8.533c-5.12,0-8.533-3.413-8.533-8.533c0-5.12,3.413-8.533,8.533-8.533h8.533
			c5.12,0,8.533,3.413,8.533,8.533C493.933,97.987,490.52,101.4,485.4,101.4z"/>
		<path style="fill:#B6B6B6;" d="M468.333,400.067H459.8c-5.12,0-8.533-3.413-8.533-8.533S454.68,383,459.8,383h8.533
			c5.12,0,8.533,3.413,8.533,8.533S473.453,400.067,468.333,400.067z"/>
		<path style="fill:#B6B6B6;" d="M434.2,400.067h-8.533c-5.12,0-8.533-3.413-8.533-8.533s3.413-8.533,8.533-8.533h8.533
			c5.12,0,8.533,3.413,8.533,8.533S439.32,400.067,434.2,400.067z"/>
		<path style="fill:#B6B6B6;" d="M502.467,400.067h-8.533c-5.12,0-8.533-3.413-8.533-8.533s3.413-8.533,8.533-8.533h8.533
			c5.12,0,8.533,3.413,8.533,8.533S507.587,400.067,502.467,400.067z"/>
		<path style="fill:#B6B6B6;" d="M468.333,468.333H459.8c-5.12,0-8.533-3.413-8.533-8.533s3.413-8.533,8.533-8.533h8.533
			c5.12,0,8.533,3.413,8.533,8.533S473.453,468.333,468.333,468.333z"/>
		<path style="fill:#B6B6B6;" d="M434.2,468.333h-8.533c-5.12,0-8.533-3.413-8.533-8.533s3.413-8.533,8.533-8.533h8.533
			c5.12,0,8.533,3.413,8.533,8.533S439.32,468.333,434.2,468.333z"/>
		<path style="fill:#B6B6B6;" d="M502.467,468.333h-8.533c-5.12,0-8.533-3.413-8.533-8.533s3.413-8.533,8.533-8.533h8.533
			c5.12,0,8.533,3.413,8.533,8.533S507.587,468.333,502.467,468.333z"/>
		<path style="fill:#B6B6B6;" d="M451.267,434.2h-8.533c-5.12,0-8.533-3.413-8.533-8.533s3.413-8.533,8.533-8.533h8.533
			c5.12,0,8.533,3.413,8.533,8.533S456.387,434.2,451.267,434.2z"/>
		<path style="fill:#B6B6B6;" d="M485.4,434.2h-8.533c-5.12,0-8.533-3.413-8.533-8.533s3.413-8.533,8.533-8.533h8.533
			c5.12,0,8.533,3.413,8.533,8.533S490.52,434.2,485.4,434.2z"/>
	</g>
</g>
</svg>